<?xml version="1.0" standalone="no"?>
<!DOCTYPE svg PUBLIC "-//W3C//DTD SVG 1.1//EN" "http://www.w3.org/Graphics/SVG/1.1/DTD/svg11.dtd" >
<svg xmlns="http://www.w3.org/2000/svg">
<metadata></metadata>
<defs>
<font id="poynterosdisplaybold" horiz-adv-x="1517" >
<font-face units-per-em="2048" ascent="1638" descent="-410" />
<missing-glyph horiz-adv-x="450" />
<glyph horiz-adv-x="0" />
<glyph horiz-adv-x="682" />
<glyph unicode=" "  horiz-adv-x="450" />
<glyph unicode="&#x09;" horiz-adv-x="450" />
<glyph unicode="&#xa0;" horiz-adv-x="450" />
<glyph unicode="!" horiz-adv-x="589" d="M115 166q0 74 53.5 127t126.5 53t126.5 -53t53.5 -127t-53.5 -127t-126.5 -53t-126.5 53t-53.5 127zM125 1102q-36 172 3.5 243.5t166.5 71.5t166.5 -71.5t3.5 -243.5l-139 -651h-62z" />
<glyph unicode="&#x22;" horiz-adv-x="962" d="M104 1171q-33 114 6.5 178t145.5 64t145.5 -64t6.5 -178l-123 -436h-58zM555 1171q-33 114 6.5 178t145.5 64t145 -64t6 -178l-123 -436h-57z" />
<glyph unicode="#" horiz-adv-x="1116" d="M57 299v246h219l43 311h-215v246h250l43 305h72l-43 -305h377l43 305h72l-44 -305h185v-246h-219l-43 -311h215v-246h-250l-43 -305h-72l43 305h-377l-43 -305h-71l43 305h-185zM348 545h377l43 311h-377z" />
<glyph unicode="$" horiz-adv-x="962" d="M33 408h49l59 -125q41 -86 99.5 -138.5t156.5 -64.5l33 487q-201 68 -294 165t-93 267q0 165 127.5 277t314.5 121l13 162l67 -5l-10 -157q151 -8 272 -64l29 -348h-49l-59 127q-43 92 -90 143t-109 64l-31 -457q227 -78 319.5 -173.5t92.5 -252.5q0 -99 -42.5 -181.5 t-111 -135t-150.5 -82.5t-165 -33l-15 -219l-67 4l14 215q-170 8 -334 64zM276 1116q0 -87 41.5 -140.5t135.5 -88.5l28 438q-99 -4 -152 -64.5t-53 -144.5zM465 76q104 3 167.5 65t63.5 166q0 88 -45 142.5t-153 95.5z" />
<glyph unicode="%" horiz-adv-x="1556" d="M37 1020q0 179 101.5 289t260.5 110q142 0 240 -103t98 -282t-101.5 -289t-260.5 -110q-142 0 -240 103t-98 282zM262 27l967 1388l65 -45l-966 -1388zM272 1055q0 -359 123 -359q42 0 66 39t32.5 102t8.5 162q0 359 -123 359q-42 0 -66 -39t-32.5 -102t-8.5 -162z M819 362q0 179 102 289.5t261 110.5q142 0 240 -103t98 -282t-102 -289.5t-261 -110.5q-142 0 -240 103t-98 282zM1055 397q0 -174 28.5 -266t94.5 -92q42 0 66 39t32 102t8 162q0 174 -28.5 266t-94.5 92q-42 0 -66 -39t-32 -102t-8 -162z" />
<glyph unicode="&#x26;" horiz-adv-x="1589" d="M33 360q0 265 368 457q-188 112 -188 273q0 141 124.5 235t303.5 94q160 0 246 -66t86 -169q0 -152 -201 -260q80 -47 167 -130.5t163 -185.5q104 193 104 250q0 31 -21 49.5t-71 30.5l-35 8v41q23 0 106.5 -1t129.5 -1q47 0 110 1t84 1v-41l-28 -6q-60 -13 -96 -45 t-82 -102q-7 -11 -66 -100.5t-94 -141.5q70 -103 108 -191q68 -148 129 -200t166 -51h58l6 -39q-81 -37 -182 -58.5t-187 -21.5q-112 0 -169 43.5t-114 171.5q-4 12 -22 47q-113 -144 -226.5 -205t-263.5 -61q-178 0 -295.5 99t-117.5 275zM332 477q0 -125 82 -206t200 -81 q88 0 157 29.5t132 95.5q-173 326 -444 471q-127 -115 -127 -309zM469 1212q0 -73 52 -128t190 -128q55 85 55 203q0 91 -46.5 146t-115.5 55q-61 0 -98 -45t-37 -103z" />
<glyph unicode="'" horiz-adv-x="512" d="M104 1171q-33 114 6.5 178t145.5 64t145.5 -64t6.5 -178l-123 -436h-58z" />
<glyph unicode="(" horiz-adv-x="737" d="M68 674q0 274 159 490t447 368l31 -37q-145 -130 -220 -320.5t-75 -500.5q0 -212 38 -373t100 -263.5t157 -187.5l-31 -36q-288 151 -447 368t-159 492z" />
<glyph unicode=")" horiz-adv-x="737" d="M33 -150q95 85 157 187.5t100 263.5t38 373q0 310 -75 500.5t-220 320.5l30 37q289 -152 448 -368t159 -490t-159.5 -491.5t-447.5 -368.5z" />
<glyph unicode="*" horiz-adv-x="708" d="M86 987l133 133l-133 135l18 31l181 -55l51 186h37l51 -186l180 55l21 -31l-136 -135l136 -133l-19 -31l-182 54l-51 -187h-37l-51 187l-181 -54z" />
<glyph unicode="+" horiz-adv-x="921" d="M61 655v107h345v344h110v-344h344v-107h-344v-344h-110v344h-345z" />
<glyph unicode="," horiz-adv-x="512" d="M49 -291q67 58 120 141.5t60 151.5q-84 56 -122.5 105t-38.5 108q0 58 42 100.5t111 42.5q88 0 150.5 -64.5t62.5 -170.5q0 -81 -54.5 -168.5t-131.5 -155.5t-172 -127z" />
<glyph unicode="-" horiz-adv-x="696" d="M51 451v262h594v-262h-594z" />
<glyph unicode="." horiz-adv-x="512" d="M70 172q0 76 55 131t131 55t131 -55t55 -131t-55 -131t-131 -55t-131 55t-55 131z" />
<glyph unicode="/" horiz-adv-x="880" d="M20 10l764 1420l76 -39l-764 -1420z" />
<glyph unicode="0" horiz-adv-x="1208" d="M63 711q0 123 19 228.5t61 195t103.5 153.5t151 99.5t200.5 35.5q117 0 210.5 -38.5t155.5 -105.5t103.5 -161t59.5 -200t18 -228q0 -154 -31 -281t-94.5 -225t-167.5 -152.5t-242 -54.5q-117 0 -210.5 38.5t-155.5 105.5t-103.5 161t-59.5 200.5t-18 228.5zM393 750 q0 -145 5.5 -248.5t20 -193t39.5 -143.5t64 -84t94 -30q112 0 155.5 144t43.5 456q0 145 -5.5 248.5t-20 193t-39.5 143.5t-64 84t-94 30q-112 0 -155.5 -144t-43.5 -456z" />
<glyph unicode="1" horiz-adv-x="739" d="M25 -2v41l67 14q29 6 47 13t34.5 17t25 29.5t15.5 42t10 64t4 86t1 117.5v582q0 132 -14.5 195t-42.5 83t-90 25l-49 4v43q101 5 250 24.5t219 38.5l37 -24v-971q0 -160 9.5 -231t32.5 -98.5t78 -39.5l64 -14v-41q-15 0 -158 2t-184 2t-191 -2t-165 -2z" />
<glyph unicode="2" horiz-adv-x="1011" d="M20 35l402 467q112 132 163.5 238.5t51.5 220.5q0 109 -64 179t-174 70q-54 0 -96.5 -11.5t-80.5 -38t-68 -57t-72 -81.5l-45 29q45 81 92 142.5t107 114t134 80t158 27.5q194 0 300 -97t106 -278q0 -135 -74 -254.5t-233 -263.5l-353 -317l265 14q162 8 232 36.5 t149 129.5l20 27h45l-133 -412h-811z" />
<glyph unicode="3" horiz-adv-x="978" d="M37 133q0 55 34.5 87t82.5 32q75 0 135.5 -41t134.5 -141q126 37 186 119t60 214q0 130 -76 188t-205 58q-97 0 -170 -16l-22 51q238 140 326.5 226t88.5 182q0 68 -49 108.5t-139 40.5q-96 0 -168 -28t-158 -89l-32 39q110 122 229.5 188t273.5 66q163 0 248.5 -63 t85.5 -168q0 -94 -72.5 -171.5t-234.5 -168.5q156 -18 244 -94.5t88 -208.5q0 -144 -93 -275t-243 -209.5t-309 -78.5q-116 0 -181 43.5t-65 109.5z" />
<glyph unicode="4" horiz-adv-x="1136" d="M0 408l702 999h238v-926h186v-108h-186v-375h-313v375h-607zM168 481h459v654z" />
<glyph unicode="5" horiz-adv-x="903" d="M6 133q0 53 34 86t95 33q66 0 123 -39.5t135 -140.5q123 35 196 123.5t73 201.5q0 92 -53.5 157t-189.5 116.5t-366 83.5l-20 34l268 605h356q145 0 205 57h49l-92 -305h-534l-56 -131q333 -57 477 -164.5t144 -317.5q0 -114 -50.5 -217.5t-132.5 -176t-189.5 -115.5 t-219.5 -43q-122 0 -187 47.5t-65 105.5z" />
<glyph unicode="6" horiz-adv-x="1120" d="M59 516q0 274 195.5 500t599.5 416l31 -48q-148 -89 -248.5 -183.5t-156 -198t-78.5 -208.5t-23 -235q0 -251 53.5 -379.5t157.5 -128.5q97 0 135.5 84.5t38.5 276.5q0 190 -57 284.5t-158 94.5q-3 0 -10.5 -1.5t-10.5 -1.5l-8 50q48 20 115 20q197 0 317.5 -107 t120.5 -300q0 -207 -143 -340.5t-357 -133.5q-244 0 -379 142t-135 397z" />
<glyph unicode="7" horiz-adv-x="991" d="M18 981l146 453h49q21 -19 45.5 -25.5t81 -9t209.5 -2.5h399l21 -35l-201 -408q-247 -503 -410 -895q-9 -23 -24 -44t-27 -21q-41 0 -71.5 22.5t-30.5 51.5q0 24 26 65q195 303 451 842l80 172h-334q-146 0 -209.5 -23.5t-112.5 -87.5l-43 -55h-45z" />
<glyph unicode="8" horiz-adv-x="1064" d="M41 340q0 116 66.5 196.5t195.5 147.5q-219 127 -219 344q0 165 132 278t319 113q190 0 316 -88t126 -233q0 -99 -60.5 -170.5t-168.5 -128.5q143 -76 209.5 -165.5t66.5 -230.5q0 -117 -67 -214.5t-178 -152t-240 -54.5q-135 0 -246.5 40.5t-181.5 123.5t-70 194z M303 360q0 -135 72 -220t190 -85q96 0 159.5 57t63.5 148q0 77 -29 129t-115.5 111.5t-262.5 142.5q-78 -111 -78 -283zM317 1167q0 -94 70 -162t272 -163q72 107 72 233q0 123 -59.5 197t-165.5 74q-89 0 -139 -49.5t-50 -129.5z" />
<glyph unicode="9" horiz-adv-x="1120" d="M47 950q0 207 143 340t357 133q244 0 379 -141.5t135 -396.5q0 -274 -195.5 -500t-599.5 -416l-30 47q119 72 207 148t145 152.5t91.5 163.5t48 173t13.5 189q0 251 -53.5 379.5t-157.5 128.5q-97 0 -135.5 -84.5t-38.5 -276.5q0 -190 57 -284.5t158 -94.5q3 0 10.5 1 t10.5 1l8 -49q-48 -20 -115 -20q-197 0 -317.5 107t-120.5 300z" />
<glyph unicode=":" horiz-adv-x="512" d="M70 172q0 76 55 131t131 55t131 -55t55 -131t-55 -131t-131 -55t-131 55t-55 131zM70 825q0 77 55 132t131 55t131 -55t55 -132t-55 -131.5t-131 -54.5t-131 54.5t-55 131.5z" />
<glyph unicode=";" horiz-adv-x="512" d="M51 -291q67 58 120 141.5t60 151.5q-84 56 -122.5 105t-38.5 108q0 58 42 100.5t111 42.5q88 0 150.5 -64.5t62.5 -170.5q0 -81 -54.5 -168.5t-131.5 -155.5t-172 -127zM66 825q0 77 55 132t131 55t131 -55t55 -132t-55 -131.5t-131 -54.5t-131 54.5t-55 131.5z" />
<glyph unicode="&#x3c;" horiz-adv-x="921" d="M68 666v86l806 358v-115l-667 -286l667 -287v-115z" />
<glyph unicode="=" horiz-adv-x="921" d="M88 475v107h746v-107h-746zM88 836v106h746v-106h-746z" />
<glyph unicode="&#x3e;" horiz-adv-x="921" d="M47 307v115l668 287l-668 286v115l807 -358v-86z" />
<glyph unicode="?" horiz-adv-x="774" d="M70 1266q0 149 200 149q114 0 220 -56.5t174.5 -159.5t68.5 -224q0 -110 -56.5 -172.5t-201.5 -122.5q-79 -32 -114 -55.5t-46.5 -49.5t-11.5 -75v-43l-61 -11q-84 217 -84 285q0 78 40.5 118.5t172.5 96.5q118 49 159 88.5t41 85.5q0 42 -27.5 84.5t-74.5 69.5 q-68 -68 -137 -112t-121 -44q-62 0 -101.5 45t-39.5 103zM117 166q0 74 53.5 127t126.5 53t126.5 -53t53.5 -127t-53.5 -127t-126.5 -53t-126.5 53t-53.5 127z" />
<glyph unicode="@" horiz-adv-x="1925" d="M90 479q0 191 70.5 366t191 302.5t289.5 203.5t356 76q180 0 335 -58.5t266 -162.5t174 -253.5t63 -325.5q0 -268 -125 -422t-330 -154q-219 0 -321 137q-72 -72 -144 -110.5t-159 -38.5q-132 0 -211.5 87.5t-79.5 238.5q0 158 75.5 296.5t201.5 220t268 81.5 q168 0 286 -70l97 88h45l-117 -610q-23 -118 18.5 -183t137.5 -65q123 0 214 141.5t91 360.5q0 227 -99.5 399t-278.5 264t-411 92q-237 0 -432.5 -120.5t-306.5 -326.5t-111 -452q0 -254 99.5 -452.5t287 -311t435.5 -112.5q186 0 330 38.5t292 120.5l23 -36 q-152 -86 -305.5 -128t-343.5 -42q-257 0 -456 118t-307 327t-108 476zM731 449q0 -135 49 -204t131 -69q71 0 136 72l79 414q11 64 11 94q0 151 -138 151q-122 0 -195 -129.5t-73 -328.5z" />
<glyph unicode="A" horiz-adv-x="1521" d="M-31 -2v41l25 6q72 19 129 87.5t110 199.5l400 1005l182 93h68l444 -1164q37 -100 79.5 -151.5t111.5 -67.5l34 -8v-41q-15 0 -161.5 2t-186.5 2q-42 0 -205.5 -2t-177.5 -2v41l51 8q71 12 99 36.5t28 68.5q0 46 -30 131l-74 204h-492l-51 -143q-45 -119 -45 -184 q0 -44 25.5 -73t91.5 -40l47 -8v-41q-14 0 -107 2t-135 2q-41 0 -142.5 -2t-117.5 -2zM436 575h428l-213 599z" />
<glyph unicode="B" horiz-adv-x="1306" d="M25 -2v41l67 14q32 7 51.5 20t34 35.5t21 65.5t9.5 99t3 147v561q0 91 -3 147t-9.5 99t-21 65.5t-34 35.5t-51.5 20l-67 14v41q16 0 168 -2t194 -2q35 0 164.5 1t177.5 1q218 0 347.5 -79t129.5 -228q0 -103 -63 -175.5t-180 -127.5q307 -124 307 -392 q0 -176 -150 -288.5t-399 -112.5q-36 0 -182 2t-183 2q-41 0 -178 -2t-153 -2zM547 246q0 -105 50.5 -146t135.5 -41q203 0 203 277q0 341 -344 356l-45 2v-448zM547 758l71 2q122 3 187 80t65 215q0 284 -241 284q-55 0 -82 -4v-577z" />
<glyph unicode="C" horiz-adv-x="1443" d="M68 698q0 140 45 259.5t121 203t177 142t213 86.5t228 28q244 0 434 -94l51 -387h-51l-59 106q-84 151 -176.5 226t-216.5 75q-174 0 -282 -156t-108 -452q0 -333 110.5 -505.5t299.5 -172.5q126 0 212 68t183 233l60 103h51l-45 -373q-85 -47 -212 -75.5t-261 -28.5 q-170 0 -311.5 46t-244.5 134t-160.5 224.5t-57.5 309.5z" />
<glyph unicode="D" horiz-adv-x="1597" d="M25 -2v41l67 14q32 7 51.5 20t34 35.5t21 65.5t9.5 99t3 147v561q0 91 -3 147t-9.5 99t-21 65.5t-34 35.5t-51.5 20l-67 14v41q15 0 124 -2t150 -2q39 0 185 2t194 2q257 0 448.5 -83.5t297.5 -244t106 -379.5q0 -166 -59 -299t-164 -220.5t-249 -134t-315 -46.5 q-110 0 -220 3t-144 3q-41 0 -190 -2t-164 -2zM547 315q0 -141 46 -195t169 -54q183 0 287 155.5t104 458.5q0 323 -124.5 486t-385.5 163q-50 0 -96 -4v-1010z" />
<glyph unicode="E" horiz-adv-x="1257" d="M25 -2v41l67 14q32 7 51.5 20t34 35.5t21 65.5t9.5 99t3 147v561q0 91 -3 147t-9.5 99t-21 65.5t-34 35.5t-51.5 20l-67 14v41q17 0 179 -2t202 -2q42 0 295.5 1t267.5 1h164l63 -346h-45l-72 94q-70 93 -147.5 133.5t-200.5 40.5h-18q-77 0 -166 -14v-541l108 4 q89 3 142 13t83 34t41 52.5t17 80.5l2 19h49q0 -19 -2 -111t-2 -133q0 -42 2 -140.5t2 -115.5h-49l-2 18q-6 53 -16 82t-39 54.5t-83 37t-145 15.5l-108 4v-356q0 -84 7 -130t31 -75.5t62.5 -38t108.5 -8.5h26q120 0 195.5 41t163.5 155l57 74h45l-65 -344h-213 q-63 0 -305.5 1t-274.5 1q-40 0 -191.5 -2t-168.5 -2z" />
<glyph unicode="F" horiz-adv-x="1189" d="M25 -2v41l67 14q32 7 51.5 20t34 35.5t21 65.5t9.5 99t3 147v561q0 91 -3 147t-9.5 99t-21 65.5t-34 35.5t-51.5 20l-67 14v41q17 0 179 -2t202 -2q41 0 289 1t263 1h164l64 -346h-45l-72 94q-70 93 -147.5 133.5t-200.5 40.5h-8q-77 0 -166 -14v-551l98 4q89 3 142 13 t83 34t41 52.5t17 80.5l2 19h49q0 -19 -2 -111t-2 -133q0 -42 2 -140.5t2 -115.5h-49l-2 18q-6 53 -16 82t-39 54.5t-83 37t-145 15.5l-98 4v-250q0 -85 1.5 -134.5t8 -93t14.5 -64t28 -38t41.5 -24.5t59.5 -15l68 -14v-41q-15 0 -181.5 2t-207.5 2t-189.5 -2t-164.5 -2z " />
<glyph unicode="G" horiz-adv-x="1529" d="M68 698q0 140 45 259.5t121 203t177 142t213 86.5t228 28q244 0 434 -94l51 -383h-51l-59 102q-89 152 -179 226.5t-214 74.5q-175 0 -282.5 -157.5t-107.5 -450.5q0 -333 110.5 -505.5t299.5 -172.5q122 0 170.5 46.5t48.5 125.5v35q0 102 -11 151.5t-38.5 73.5 t-87.5 37l-68 15v41q16 0 156.5 -2t181.5 -2t166 2t144 2v-41l-58 -13q-73 -17 -96 -62t-23 -151v-20q0 -98 13 -125.5t80 -52.5v-41q-97 -40 -269 -66t-340 -26q-161 0 -298 46t-239 133.5t-160 225t-58 309.5z" />
<glyph unicode="H" horiz-adv-x="1658" d="M25 -2v41l67 14q32 7 51.5 20t34 35.5t21 65.5t9.5 99t3 147v561q0 91 -3 147t-9.5 99t-21 65.5t-34 35.5t-51.5 20l-67 14v41q16 0 164.5 -2t189.5 -2t199.5 2t173.5 2v-41l-68 -14q-29 -6 -47 -13t-34.5 -17t-25 -29.5t-15.5 -42t-10 -64t-4 -86t-1 -117.5v-225h565 v225q0 73 -1 117.5t-4 86t-10 64t-15.5 42t-25 29.5t-34.5 17t-47 13l-68 14v41q15 0 173.5 -2t199.5 -2t189.5 2t164.5 2v-41l-67 -14q-32 -7 -51.5 -20t-34 -35.5t-21 -65.5t-9.5 -99t-3 -147v-561q0 -91 3 -147t9.5 -99t21 -65.5t34 -35.5t51.5 -20l67 -14v-41 q-16 0 -164.5 2t-189.5 2t-199.5 -2t-173.5 -2v41l68 14q29 6 47 13t34.5 17t25 29.5t15.5 42t10 64t4 86t1 117.5v244h-565v-244q0 -73 1 -117.5t4 -86t10 -64t15.5 -42t25 -29.5t34.5 -17t47 -13l68 -14v-41q-15 0 -173.5 2t-199.5 2t-189.5 -2t-164.5 -2z" />
<glyph unicode="I" horiz-adv-x="794" d="M25 -2v41l67 14q29 6 47 13t34.5 17t25 29.5t15.5 42t10 64t4 86t1 117.5v557q0 73 -1 117.5t-4 86t-10 64t-15.5 42t-25 29.5t-34.5 17t-47 13l-67 14v41q15 0 173 -2t199 -2t199.5 2t173.5 2v-41l-68 -14q-29 -6 -47 -13t-34.5 -17t-25 -29.5t-15.5 -42t-10 -64t-4 -86 t-1 -117.5v-557q0 -73 1 -117.5t4 -86t10 -64t15.5 -42t25 -29.5t34.5 -17t47 -13l68 -14v-41q-15 0 -173.5 2t-199.5 2t-199 -2t-173 -2z" />
<glyph unicode="J" horiz-adv-x="765" d="M-51 -324q112 52 169 106t77 120.5t20 177.5v899q0 73 -1 117.5t-4 86t-10 64t-15.5 42t-25 29.5t-34.5 17t-47 13l-68 14v41q15 0 173.5 -2t199.5 -2t199.5 2t173.5 2v-41l-68 -14q-29 -6 -47 -13t-34.5 -17t-25 -29.5t-15.5 -42t-10 -64t-4 -86t-1 -117.5v-778 q0 -122 -27 -204t-98.5 -148.5t-178 -115t-284.5 -102.5z" />
<glyph unicode="K" horiz-adv-x="1566" d="M25 -2v41l67 14q32 7 51.5 20t34 35.5t21 65.5t9.5 99t3 147v561q0 91 -3 147t-9.5 99t-21 65.5t-34 35.5t-51.5 20l-67 14v41q16 0 164.5 -2t189.5 -2t199.5 2t173.5 2v-41l-68 -14q-29 -6 -47 -13t-34.5 -17t-25 -29.5t-15.5 -42t-10 -64t-4 -86t-1 -117.5v-231 q48 8 86.5 29t93.5 75l287 281q86 86 86 137q0 65 -88 82l-54 10v41q160 -4 285 -4q163 0 285 4v-41l-31 -6q-151 -30 -283 -156l-358 -342l516 -680q52 -68 87 -94.5t87 -38.5l27 -6v-41q-160 4 -350 4q-195 0 -355 -4v41l37 6q84 14 84 70q0 42 -53 112l-272 369 q-36 50 -61.5 70.5t-55.5 25.5v-270q0 -73 1 -117.5t4 -86t10 -64t15.5 -42t25 -29.5t34.5 -17t47 -13l68 -14v-41q-15 0 -173.5 2t-199.5 2t-189.5 -2t-164.5 -2z" />
<glyph unicode="L" horiz-adv-x="1210" d="M25 -2v41l67 14q32 7 51.5 20t34 35.5t21 65.5t9.5 99t3 147v561q0 91 -3 147t-9.5 99t-21 65.5t-34 35.5t-51.5 20l-67 14v41q16 0 164.5 -2t189.5 -2t207.5 2t181.5 2v-41l-68 -14q-38 -8 -59.5 -15t-41.5 -24.5t-28 -38t-14.5 -64t-8 -93t-1.5 -134.5v-653 q0 -84 7 -130t31 -75.5t62.5 -38t108.5 -8.5h18q105 0 173 43.5t143 158.5l75 115h49l-81 -391h-224q-64 0 -259.5 1t-227.5 1q-41 0 -209.5 -2t-187.5 -2z" />
<glyph unicode="M" horiz-adv-x="1918" d="M10 -2v41l19 4q71 16 106 50t53.5 107t28.5 224l37 545q5 71 5 126q0 60 -6 101q-11 78 -40.5 108.5t-91.5 43.5l-68 14v41q18 0 116 -2t138 -2q195 0 250 4l412 -971l413 971q78 -4 179 -4q205 0 307 4v-41l-70 -14q-32 -7 -51.5 -15t-35.5 -26.5t-23.5 -42t-11.5 -67.5 q-4 -39 -4 -85v-11q0 -52 5 -134l29 -578q7 -142 21 -208.5t41 -93.5t85 -38l56 -10v-41q-16 0 -161.5 2t-186.5 2q-43 0 -198.5 -2t-170.5 -2v39l82 16q35 7 54.5 17.5t35 32.5t19 57.5t5.5 92.5q1 15 1 32q0 47 -5 106l-34 686l-469 -1085h-50l-477 1085l-26 -651 q0 -74 -2 -128q0 -8 -1 -16q-1 -44 7 -78q8 -40 18 -67t32 -45.5t48 -29t66 -19.5l18 -4v-41q-15 0 -116 2t-142 2t-134 -2t-112 -2z" />
<glyph unicode="N" horiz-adv-x="1560" d="M10 1362v41q86 -4 226 -4q166 0 251 6l773 -895l-7 465q-2 153 -17.5 225.5t-52.5 106t-118 51.5l-18 4v41q15 0 116 -2t142 -2t133.5 2t111.5 2v-41l-18 -4q-70 -16 -103.5 -50.5t-48 -108t-16.5 -222.5l-16 -977l-56 -16l-958 1114l8 -672q2 -153 17.5 -225.5 t52.5 -106t118 -51.5l19 -4v-41q-15 0 -116 2t-142 2t-134 -2t-112 -2v41l18 4q43 10 69 24t46 38t30.5 67.5t15.5 101.5t7 150l15 778q-66 73 -107.5 102.5t-109.5 51.5z" />
<glyph unicode="O" horiz-adv-x="1617" d="M68 702q0 332 200 526.5t541 194.5q217 0 384 -86.5t262 -252t95 -386.5q0 -332 -200 -526.5t-541 -194.5q-217 0 -384 86.5t-262 252t-95 386.5zM444 760q0 -324 107 -518.5t295 -194.5q328 0 328 594q0 324 -107 518.5t-295 194.5q-328 0 -328 -594z" />
<glyph unicode="P" horiz-adv-x="1245" d="M25 -2v41l67 14q32 7 51.5 20t34 35.5t21 65.5t9.5 99t3 147v561q0 91 -3 147t-9.5 99t-21 65.5t-34 35.5t-51.5 20l-67 14v41q16 0 170.5 -2t195.5 -2q35 0 141.5 1t153.5 1q250 0 395.5 -101t145.5 -290q0 -183 -138.5 -288t-412.5 -144l-10 36q118 49 168.5 132.5 t50.5 250.5q0 165 -60.5 247.5t-171.5 82.5q-52 0 -106 -10v-895q0 -85 1.5 -134.5t8 -93t14.5 -64t28 -38t41.5 -24.5t59.5 -15l68 -14v-41q-15 0 -181.5 2t-207.5 2t-189.5 -2t-164.5 -2z" />
<glyph unicode="Q" horiz-adv-x="1617" d="M68 702q0 332 200 526.5t541 194.5q217 0 384 -86.5t262 -252t95 -386.5q0 -239 -106.5 -409.5t-300.5 -249.5q149 -161 251.5 -243t169 -106t152.5 -24q66 0 125.5 18t138.5 58l23 -41q-102 -60 -192 -88.5t-195 -28.5q-118 0 -222 26.5t-273.5 116t-413.5 257.5 q-289 30 -464 221t-175 497zM444 760q0 -324 107 -518.5t295 -194.5q328 0 328 594q0 324 -107 518.5t-295 194.5q-328 0 -328 -594z" />
<glyph unicode="R" horiz-adv-x="1400" d="M25 -2v41l67 14q32 7 51.5 20t34 35.5t21 65.5t9.5 99t3 147v561q0 91 -3 147t-9.5 99t-21 65.5t-34 35.5t-51.5 20l-67 14v41q16 0 170.5 -2t195.5 -2q35 0 147.5 1t159.5 1q249 0 395 -89t146 -263q0 -124 -87 -218.5t-232 -146.5l323 -463q75 -108 113.5 -140.5 t101.5 -39.5l6 -39q-88 -12 -219 -12q-124 0 -206.5 45.5t-147.5 142.5l-303 451q-17 0 -41 4v-211q0 -73 1 -117.5t4 -86t10 -64t15.5 -42t25 -29.5t34.5 -17t47 -13l68 -14v-41q-15 0 -173.5 2t-199.5 2t-189.5 -2t-164.5 -2zM547 690q28 -4 65 -4q128 0 206.5 81 t78.5 257q0 148 -56.5 229.5t-174.5 81.5q-61 0 -119 -8v-637z" />
<glyph unicode="S" horiz-adv-x="1067" d="M29 387h51l49 -88q69 -123 155 -182.5t216 -59.5t205 65t75 167q0 70 -26 116t-95 86.5t-196 79.5q-222 67 -316 164t-94 266q0 174 142 294t362 120q121 0 192.5 -12.5t155.5 -44.5l53 -352h-53l-47 92q-65 126 -142.5 187t-185.5 61q-110 0 -171.5 -61t-61.5 -155 q0 -100 58 -155.5t210 -102.5q256 -79 357.5 -176t101.5 -270q0 -126 -74.5 -227.5t-199.5 -157t-275 -55.5q-222 0 -395 65z" />
<glyph unicode="T" horiz-adv-x="1462" d="M0 995l33 447h63q30 -22 70 -31t162 -14t387 -4q281 0 409 4.5t170 13.5t72 31h64l-70 -447h-47l-35 123q-29 101 -82 143t-176 48l-146 6v-893q0 -85 1.5 -134.5t8 -93t15 -64t28 -38t41 -24.5t60.5 -15l68 -14v-41q-15 0 -181.5 2t-207.5 2t-208 -2t-182 -2v41l68 14 q39 8 60.5 15t41 24.5t28 38t15 64t8 93t1.5 134.5v893l-115 -4q-68 -2 -117 -15t-84.5 -39t-59.5 -58t-50 -81l-64 -123h-49z" />
<glyph unicode="U" horiz-adv-x="1515" d="M10 1362v41q16 0 159.5 -2t184.5 -2t199.5 2t173.5 2v-41l-68 -14q-29 -6 -47 -13t-34.5 -17t-25 -29.5t-15.5 -42t-10 -64t-4 -86t-1 -117.5v-485q0 -404 352 -404q172 0 263 110q88 106 88 299v13l-6 463q-2 152 -18 225t-53 106.5t-118 51.5l-18 4v41q15 0 116 -2 t142 -2t128.5 2t106.5 2v-41l-8 -2q-44 -11 -70.5 -26t-46.5 -38.5t-29.5 -68t-14.5 -101t-7 -149.5l-8 -467q-5 -253 -145.5 -393t-425.5 -140q-564 0 -564 558v456q0 143 -9.5 213.5t-33.5 103t-75 42.5z" />
<glyph unicode="V" horiz-adv-x="1495" d="M-31 1362v41q16 0 150.5 -2t175.5 -2q42 0 220 2t192 2v-41l-41 -8q-75 -14 -104.5 -38.5t-29.5 -62.5q0 -51 37 -143l301 -748l260 672q56 141 56 201q0 43 -21.5 72t-83.5 43l-55 12v41q15 0 105 -2t131 -2q42 0 145 2t119 2v-41l-33 -8q-69 -17 -121 -80t-110 -201 l-459 -1081l-103 -23l-491 1145q-48 112 -92 168t-105 70z" />
<glyph unicode="W" horiz-adv-x="2103" d="M-27 1360v43q16 0 158.5 -2t183.5 -2t189 2t164 2v-41l-43 -8q-119 -23 -119 -105q0 -32 24 -116l238 -766l250 616l-72 193q-32 85 -66 126.5t-87 53.5l-29 6v41q15 0 146.5 -2t174.5 -2q41 0 193.5 2t167.5 2v-41l-35 -8q-83 -20 -115 -42.5t-32 -60.5q0 -55 28 -141 l254 -743l226 702q32 103 32 166q0 90 -137 119l-39 8v41q16 0 108.5 -2t133.5 -2q42 0 143 2t117 2v-41l-16 -4q-87 -22 -130 -78t-98 -205l-385 -1083l-102 -23l-338 899l-359 -876l-102 -23l-403 1135q-42 121 -84.5 178.5t-100.5 69.5z" />
<glyph unicode="X" horiz-adv-x="1527" d="M-6 -2v41l26 6q153 36 283 209l311 414l-323 487q-59 92 -111.5 138t-116.5 61l-34 8v41q14 0 159 -2t187 -2q43 0 209.5 2t181.5 2v-41l-41 -8q-42 -8 -67 -25t-25 -41q0 -32 16 -69.5t58 -102.5l155 -252l164 240q74 112 74 168q0 61 -94 80l-48 10v41q15 0 133.5 -2 t159.5 -2q43 0 138 2t110 2v-41l-26 -6q-153 -36 -283 -209l-275 -365l357 -536q59 -92 111 -138t116 -61l35 -8v-41q-14 0 -159 2t-187 2q-43 0 -215 -2t-187 -2v41l41 8q53 11 78 26.5t25 39.5q0 32 -16 69.5t-58 102.5l-190 303l-199 -291q-74 -112 -74 -168 q0 -61 94 -80l48 -10v-41q-15 0 -133.5 2t-159.5 2q-43 0 -138 -2t-110 -2z" />
<glyph unicode="Y" horiz-adv-x="1519" d="M-33 1362v41q15 0 161 -2t187 -2q40 0 225 2t199 2v-41l-43 -8q-110 -20 -110 -84q0 -37 45 -117l266 -475l227 434q47 90 47 150q0 33 -27 56.5t-77 33.5l-49 10v41q15 0 131.5 -2t159.5 -2q41 0 134.5 2t108.5 2v-41l-34 -8q-52 -12 -88.5 -31t-70 -55.5t-58.5 -74.5 t-66 -110l-289 -503v-158q0 -85 1.5 -134.5t8 -93t15 -64t28 -38t41 -24.5t60.5 -15l67 -14v-41q-15 0 -181.5 2t-207.5 2t-207.5 -2t-181.5 -2v41l68 14q38 8 59.5 15t41.5 24.5t28 38t14.5 64t8 93t1.5 134.5v131l-379 614q-54 84 -102.5 125.5t-120.5 59.5z" />
<glyph unicode="Z" horiz-adv-x="1302" d="M20 35l846 1284l-260 -8q-135 -4 -212 -28t-122.5 -70t-95.5 -140l-53 -100h-53l75 469h62q31 -21 65 -29.5t146.5 -14t349.5 -5.5h465l20 -35l-845 -1284l254 8q161 5 258 29.5t160.5 76.5t115.5 148l55 102h56l-115 -438h-1151z" />
<glyph unicode="[" horiz-adv-x="706" d="M109 -184v1710h585v-41l-125 -21q-93 -15 -124 -56.5t-31 -154.5v-1165q0 -113 31 -154.5t124 -56.5l125 -20v-41h-585z" />
<glyph unicode="\" horiz-adv-x="880" d="M20 1391l76 39l764 -1420l-76 -39z" />
<glyph unicode="]" horiz-adv-x="706" d="M12 -143l125 20q93 15 124.5 56.5t31.5 154.5v1165q0 113 -31.5 154.5t-124.5 56.5l-125 21v41h586v-1710h-586v41z" />
<glyph unicode="^" horiz-adv-x="819" d="M86 924l268 493h111l268 -493l-45 -35l-278 231l-279 -231z" />
<glyph unicode="_" horiz-adv-x="1024" d="M-4 -176h1032v-62h-1032v62z" />
<glyph unicode="`" horiz-adv-x="1024" d="M332 1358q0 48 34 83.5t87 35.5q61 0 102 -38t90 -143l90 -194l-35 -31l-188 96q-96 48 -138 91.5t-42 99.5z" />
<glyph unicode="a" horiz-adv-x="1019" d="M27 221q0 112 67 171t246 116q90 29 233 61v125q0 121 -41 167t-116 46q-29 0 -47 -6q-27 -164 -64 -225.5t-100 -61.5q-52 0 -88.5 34.5t-36.5 90.5q0 28 20.5 63t61.5 71.5t96 66.5t132 49t161 19q183 0 263.5 -70.5t80.5 -220.5v-570q0 -39 18 -59t50 -20q23 0 41 2 l10 -43q-93 -35 -215 -35q-82 0 -140 35.5t-81 101.5q-73 -74 -142 -109.5t-162 -35.5q-96 0 -171.5 63.5t-75.5 173.5zM311 297q0 -62 48.5 -97.5t123.5 -35.5q56 0 90 10v336q-83 -30 -135 -55q-66 -34 -96.5 -70t-30.5 -88z" />
<glyph unicode="b" horiz-adv-x="1171" d="M-10 1370v33l407 84l37 -25v-594q72 72 135 106t150 34q175 0 287 -126t112 -333q0 -265 -154 -412t-413 -147q-166 0 -318 55l-88 -72h-32v1180q0 86 -17 124t-67 69zM434 330q0 -134 47 -200.5t131 -66.5q191 0 191 326q0 211 -77 330t-202 119q-44 0 -90 -19v-489z " />
<glyph unicode="c" horiz-adv-x="991" d="M45 457q0 154 71.5 282.5t195.5 202.5t272 74q153 0 248.5 -53t95.5 -140q0 -73 -46.5 -117t-111.5 -44q-80 0 -119 58.5t-65 219.5q-2 0 -10 1t-11 1q-99 0 -157 -85t-58 -247q0 -215 92.5 -331.5t251.5 -116.5q64 0 113.5 12.5t110.5 44.5l24 -35q-96 -102 -197.5 -152 t-236.5 -50q-202 0 -332.5 130.5t-130.5 344.5z" />
<glyph unicode="d" horiz-adv-x="1183" d="M53 449q0 265 154.5 412t413.5 147q55 0 116 -11v136q0 86 -23 131t-81 82l-39 24v33l428 84l37 -25v-1145q0 -115 8.5 -169t26 -73.5t57.5 -29.5l25 -6v-41q-15 0 -183 -1t-217 -1l-39 133q-72 -72 -134.5 -105.5t-149.5 -33.5q-175 0 -287.5 126t-112.5 333zM369 608 q0 -211 77 -329.5t201 -118.5q47 0 90 18v490q0 134 -47 200t-131 66q-190 0 -190 -326z" />
<glyph unicode="e" horiz-adv-x="1032" d="M45 465q0 122 44.5 227t118 175t167.5 109.5t192 39.5q211 0 313 -117.5t105 -335.5h-649q10 -187 109 -294t253 -107q134 0 244 80l27 -33q-101 -118 -210 -172.5t-249 -54.5q-129 0 -233 54.5t-168 165.5t-64 263zM334 641h332q-4 158 -43.5 229.5t-116.5 71.5 q-78 0 -123 -77t-49 -224z" />
<glyph unicode="f" horiz-adv-x="716" d="M-10 877v59l153 65v7q0 92 42.5 181.5t113.5 157t170 109t205 41.5q110 0 181 -41t71 -96q0 -67 -34 -116.5t-85 -49.5q-55 0 -114 40.5t-150 143.5q-45 -43 -61.5 -110t-16.5 -170v-111h237v-110h-237v-558q0 -60 1.5 -96.5t8 -67t14.5 -46.5t26.5 -29t38 -19.5 t54.5 -15.5l25 -6v-41q-19 0 -154.5 1t-183.5 1t-153.5 -1t-121.5 -1v41l37 8q36 7 53 28t25 75.5t8 166.5v560h-153z" />
<glyph unicode="g" horiz-adv-x="1075" d="M-4 -199q0 122 166 232q-42 22 -71.5 56t-29.5 69q0 60 42.5 112t144.5 111q-102 36 -157.5 111t-55.5 172q0 105 65.5 186t166 121.5t214.5 40.5q216 0 326 -107l256 101v-175h-199q33 -59 33 -135q0 -105 -65.5 -186t-166 -121.5t-214.5 -40.5q-73 0 -150 17 q-27 -27 -27 -58q0 -20 16 -31.5t58 -15.5q329 -29 365 -31q295 -23 295 -235q0 -120 -80 -219t-218.5 -155t-306.5 -56q-191 0 -299 61.5t-108 175.5zM236 -80q0 -129 84.5 -199.5t232.5 -70.5q121 0 198.5 56.5t77.5 131.5q0 43 -17.5 69t-72.5 46t-159 31q-31 3 -154 12 t-182 14q-8 -39 -8 -90zM317 698q0 -146 36 -219t118 -73q143 0 143 256q0 146 -35.5 219t-117.5 73q-144 0 -144 -256z" />
<glyph unicode="h" horiz-adv-x="1191" d="M8 -2v41l37 8q36 7 53 28t25 75.5t8 166.5v836q0 86 -17 124t-67 69l-39 24v33l408 84l37 -25v-604q181 150 344 150q133 0 201.5 -77t68.5 -229v-385q0 -115 8.5 -169t26 -73.5t57.5 -29.5l25 -6v-41q-15 0 -123.5 1t-157.5 1q-46 0 -150 -1t-124 -1v41l24 6 q39 9 57.5 29.5t26.5 66.5t8 138v354q0 196 -159 196q-65 0 -133 -22v-528q0 -92 8 -138t26.5 -66.5t57.5 -29.5l24 -6v-41q-19 0 -124.5 1t-153.5 1t-157.5 -1t-125.5 -1z" />
<glyph unicode="i" horiz-adv-x="612" d="M29 -2v41l37 8q36 7 53 28t25 75.5t8 166.5v355q0 86 -17 123.5t-67 68.5l-39 25v33l407 84l37 -25v-664q0 -112 8 -166.5t25 -75.5t53 -28l37 -8v-41q-16 0 -121 1t-153 1t-162.5 -1t-130.5 -1zM106 1276q0 72 53.5 120t135.5 48q81 0 134.5 -48t53.5 -120t-53.5 -120 t-134.5 -48q-82 0 -135.5 48t-53.5 120z" />
<glyph unicode="j" horiz-adv-x="581" d="M-49 -377q78 42 115 78.5t55 98.5t18 171v701q0 86 -17 123.5t-67 68.5l-39 25v33l408 84l37 -25v-858q0 -126 -24 -210t-85.5 -147t-147 -104.5t-229.5 -87.5zM94 1276q0 72 53.5 120t135.5 48q81 0 134.5 -48t53.5 -120t-53.5 -120t-134.5 -48q-82 0 -135.5 48 t-53.5 120z" />
<glyph unicode="k" horiz-adv-x="1155" d="M8 -2v41l37 8q36 7 53 28t25 75.5t8 166.5v836q0 86 -17 124t-67 69l-39 24v33l408 84l37 -25v-936l188 201q69 73 89 104.5t20 55.5q0 39 -74 59l-31 8v41q17 0 112.5 -1t143.5 -1t118 1t89 1v-41l-21 -4q-69 -13 -140.5 -55.5t-170.5 -138.5l-94 -92l283 -449 q58 -92 92 -125t82 -45l24 -6v-41q-21 0 -100.5 1t-116.5 1q-172 0 -211 -2q-27 74 -104 203l-166 272h-12v-194q0 -92 8 -138t26.5 -66.5t57.5 -29.5l24 -6v-41q-19 0 -124.5 1t-153.5 1t-157.5 -1t-125.5 -1z" />
<glyph unicode="l" horiz-adv-x="600" d="M16 -2v41l37 8q36 7 53 28t25 75.5t8 166.5v836q0 86 -17 124t-67 69l-39 24v33l408 84l37 -25v-1145q0 -112 8 -166.5t25 -75.5t53 -28l37 -8v-41q-16 0 -121.5 1t-153.5 1t-162.5 -1t-130.5 -1z" />
<glyph unicode="m" horiz-adv-x="1802" d="M20 -2v41l37 8q36 7 53 28t25 75.5t8 166.5v361q0 86 -17 123.5t-67 68.5l-39 25v33l408 84l37 -25v-129q181 150 344 150q195 0 244 -166q188 166 362 166q262 0 262 -306v-385q0 -115 8.5 -169t26 -73.5t57.5 -29.5l25 -6v-41q-15 0 -123.5 1t-157.5 1q-46 0 -150 -1 t-124 -1v41l25 6q39 9 57.5 29.5t26.5 66.5t8 138v354q0 100 -37 148t-115 48q-73 0 -141 -26q8 -41 8 -101v-385q0 -115 8.5 -169t26 -73.5t57.5 -29.5l25 -6v-41q-15 0 -123.5 1t-157.5 1q-46 0 -150 -1t-124 -1v41l24 6q57 14 75 57.5t18 176.5v354q0 100 -37 148 t-115 48q-65 0 -133 -22v-528q0 -92 8 -138t26.5 -66.5t57.5 -29.5l25 -6v-41q-19 0 -129 1t-158 1t-153.5 -1t-121.5 -1z" />
<glyph unicode="n" horiz-adv-x="1204" d="M20 -2v41l37 8q36 7 53 28t25 75.5t8 166.5v361q0 86 -17 123.5t-67 68.5l-39 25v33l408 84l37 -25v-129q181 150 344 150q133 0 201.5 -77t68.5 -229v-385q0 -115 8.5 -169t26 -73.5t57.5 -29.5l25 -6v-41q-15 0 -123.5 1t-157.5 1q-46 0 -150 -1t-124 -1v41l25 6 q39 9 57.5 29.5t26.5 66.5t8 138v354q0 196 -160 196q-65 0 -133 -22v-528q0 -92 8 -138t26.5 -66.5t57.5 -29.5l25 -6v-41q-19 0 -125 1t-154 1t-157.5 -1t-125.5 -1z" />
<glyph unicode="o" horiz-adv-x="1155" d="M45 504q0 141 63.5 256.5t187 185.5t284.5 70q245 0 387.5 -137.5t142.5 -384.5q0 -141 -63.5 -256.5t-187 -185.5t-284.5 -70q-245 0 -387.5 137.5t-142.5 384.5zM389 584q0 -529 209 -529q89 0 128.5 80t39.5 279q0 528 -209 528q-89 0 -128.5 -79.5t-39.5 -278.5z" />
<glyph unicode="p" horiz-adv-x="1189" d="M-16 -387l36 8q29 6 46.5 17.5t33.5 39.5t23.5 80t7.5 133v787q0 86 -17 123.5t-67 68.5l-39 25v33l408 84l37 -25v-119q72 72 134.5 106t149.5 34q175 0 287.5 -126t112.5 -333q0 -265 -154.5 -412t-413.5 -147q-61 0 -116 10v-109q0 -79 11.5 -132.5t34 -81t44 -39 t51.5 -17.5l37 -8v-41q-28 0 -154.5 1t-171.5 1q-48 0 -173 -1t-148 -1v41zM453 330q0 -134 47 -200.5t131 -66.5q190 0 190 326q0 211 -77 330t-201 119q-44 0 -90 -19v-489z" />
<glyph unicode="q" horiz-adv-x="1171" d="M53 449q0 265 154.5 412t413.5 147q163 0 317 -56l88 72h33v-1133q0 -106 14.5 -165t36 -78t59.5 -27l37 -8v-41q-23 0 -148 1t-173 1q-45 0 -171.5 -1t-154.5 -1v41l37 8q30 6 51.5 17.5t44 39t34 81t11.5 132.5v238q-72 -72 -134.5 -105.5t-149.5 -33.5 q-175 0 -287.5 126t-112.5 333zM369 608q0 -211 77 -329.5t201 -118.5q47 0 90 18v490q0 134 -47 200t-131 66q-190 0 -190 -326z" />
<glyph unicode="r" horiz-adv-x="897" d="M20 -2v41l37 8q36 7 53 28t25 75.5t8 166.5v361q0 86 -17 123.5t-67 68.5l-39 25v33l408 84l37 -25v-203q98 141 155.5 183.5t131.5 42.5q61 0 97 -34t36 -99q0 -95 -28 -141t-71 -46q-61 0 -245 47q-45 -14 -76 -28v-390q0 -60 1.5 -96.5t8 -67t14.5 -46.5t26.5 -29 t38 -19.5t54.5 -15.5l25 -6v-41q-19 0 -154.5 1t-183.5 1t-153.5 -1t-121.5 -1z" />
<glyph unicode="s" horiz-adv-x="870" d="M59 57v262h113q26 -124 96.5 -193t171.5 -69q74 0 117 37.5t43 98.5q0 63 -42 99t-167 73q-184 56 -254.5 129t-70.5 200q0 129 107.5 223.5t275.5 94.5q86 0 175.5 -18.5t143.5 -49.5v-250h-115q-51 246 -223 246q-61 0 -99 -36t-38 -93q0 -69 41 -103.5t168 -72.5 q183 -56 253 -128.5t70 -193.5q0 -102 -56.5 -177.5t-146.5 -112.5t-200 -37q-201 0 -363 71z" />
<glyph unicode="t" horiz-adv-x="737" d="M-14 877v59l168 72l188 309h111v-330h241v-110h-241v-637q0 -119 108 -119q62 0 127 41l33 -45q-141 -131 -309 -131q-141 0 -211 62.5t-70 207.5v621h-145z" />
<glyph unicode="u" horiz-adv-x="1189" d="M6 889v33l408 84l37 -25v-616q0 -197 159 -197q65 0 133 22v461q0 86 -23 131t-81 82l-39 25v33l428 84l37 -25v-664q0 -115 8.5 -169t26 -73.5t57.5 -29.5l25 -6v-41q-15 0 -183 -1t-217 -1l-39 143q-179 -149 -344 -149q-133 0 -201.5 77t-68.5 228v377q0 86 -17 123.5 t-67 68.5z" />
<glyph unicode="v" horiz-adv-x="1159" d="M-20 946v41q20 0 141.5 -1t169.5 -1t171 1t140 1v-41l-29 -6q-79 -16 -79 -68q0 -53 22 -108l178 -451l140 369q45 113 45 172q0 62 -91 84l-32 8v41q19 0 95.5 -1t123.5 -1q48 0 117 1t88 1v-41l-27 -6q-58 -13 -96.5 -61.5t-100.5 -184.5l-317 -702l-92 -23l-338 723 q-67 142 -102.5 186.5t-102.5 61.5z" />
<glyph unicode="w" horiz-adv-x="1683" d="M-20 946v41q20 0 139.5 -1t167.5 -1t151.5 1t120.5 1v-41l-24 -6q-33 -7 -50.5 -24.5t-17.5 -38.5q0 -52 16 -95l168 -475l166 348l-51 125q-36 84 -62.5 117t-68.5 43l-23 6v41q20 0 123.5 -1t151.5 -1t166 1t135 1v-41l-29 -6q-80 -16 -80 -68t19 -108l143 -420 l121 338q39 113 39 172q0 63 -88 84l-33 8v41q19 0 95.5 -1t123.5 -1q48 0 117 1t88 1v-41l-27 -6q-59 -14 -99.5 -63.5t-96.5 -182.5l-289 -702l-92 -23l-238 576l-272 -553l-94 -23l-301 723q-59 142 -92 186.5t-99 61.5z" />
<glyph unicode="x" horiz-adv-x="1167" d="M-2 -2v41l10 2q68 12 130 61t155 160l156 184l-207 299q-80 118 -118 154.5t-93 46.5l-21 4v41q19 0 144 -1t172 -1q49 0 165 1t134 1v-41l-29 -6q-64 -13 -64 -57q0 -46 48 -121l84 -135l84 117q59 81 59 124q2 31 -15.5 46.5t-72.5 27.5l-21 4v41q19 0 111 -1t139 -1 q48 0 118.5 1t90.5 1v-41l-10 -2q-68 -12 -130 -61t-155 -160l-141 -168l217 -315q81 -119 118 -155t93 -46l20 -4v-41q-19 0 -141.5 1t-169.5 1q-49 0 -167 -1t-136 -1v41l29 6q63 13 63 57q0 47 -47 121l-96 154l-96 -135q-60 -83 -60 -125q-2 -31 15.5 -46.5t72.5 -27.5 l21 -4v-41q-19 0 -111 1t-139 1q-48 0 -118.5 -1t-90.5 -1z" />
<glyph unicode="y" horiz-adv-x="1159" d="M-20 946v41q20 0 141.5 -1t169.5 -1t171 1t140 1v-41l-29 -6q-79 -16 -79 -68q0 -53 22 -108l178 -451l140 369q45 113 45 172q0 62 -91 84l-32 8v41q19 0 95.5 -1t123.5 -1q48 0 117 1t88 1v-41l-27 -6q-58 -13 -96.5 -61.5t-100.5 -184.5l-385 -850 q-65 -143 -134.5 -207.5t-155.5 -64.5q-56 0 -89.5 43.5t-33.5 99.5q0 67 73.5 99t231.5 32q39 53 82 138l-336 708q-71 146 -105 188.5t-100 59.5z" />
<glyph unicode="z" horiz-adv-x="1044" d="M20 39l603 876l-117 -4q-132 -5 -194.5 -40t-133.5 -148l-41 -66h-63l57 361h49q28 -22 97.5 -27.5t314.5 -5.5h383l29 -39l-603 -876l131 4q84 2 135.5 10t98.5 29.5t82 58.5t74 100l32 54h64l-70 -326h-899z" />
<glyph unicode="{" horiz-adv-x="860" d="M39 639v66h27q131 0 194.5 41.5t63.5 111.5q0 60 -32 170.5t-32 167.5q0 80 49.5 137t171 106t336.5 95l12 -41q-112 -39 -166.5 -71t-73 -65.5t-18.5 -88.5q0 -50 32 -163.5t32 -174.5q0 -105 -77.5 -166t-278.5 -92q201 -31 278.5 -92t77.5 -166q0 -62 -32 -175.5 t-32 -162.5q0 -55 18.5 -88.5t73.5 -66t166 -71.5l-12 -40q-215 46 -336.5 94.5t-171 105.5t-49.5 137q0 57 32 167.5t32 170.5q0 70 -64 112t-194 42h-27z" />
<glyph unicode="|" horiz-adv-x="368" d="M143 -451v2048h82v-2048h-82z" />
<glyph unicode="}" horiz-adv-x="860" d="M31 -150q111 39 166 71.5t73.5 66t18.5 88.5q0 49 -32 162.5t-32 175.5q0 105 78 166t279 92q-201 31 -279 92t-78 166q0 61 32 174.5t32 163.5q0 55 -18.5 88.5t-73 65.5t-166.5 71l12 41q215 -46 336.5 -95t171 -106t49.5 -137q0 -57 -31.5 -167.5t-31.5 -170.5 q0 -70 63.5 -111.5t194.5 -41.5h26v-66h-26q-130 0 -194 -42t-64 -112q0 -60 31.5 -170.5t31.5 -167.5q0 -80 -49.5 -137t-171 -105.5t-336.5 -94.5z" />
<glyph unicode="~" horiz-adv-x="778" d="M33 432q49 157 96 216t131 59q44 0 152 -18.5t149 -18.5q45 0 75 18.5t60 67.5l49 -23q-48 -156 -95.5 -215t-131.5 -59q-43 0 -151.5 18.5t-149.5 18.5q-45 0 -75 -18.5t-60 -67.5z" />
<glyph unicode="&#xa1;" horiz-adv-x="589" d="M115 1235q0 73 53.5 126.5t126.5 53.5t126.5 -53.5t53.5 -126.5t-53.5 -126.5t-126.5 -53.5t-126.5 53.5t-53.5 126.5zM125 299l139 651h62l139 -651q36 -172 -3.5 -243.5t-166.5 -71.5t-166.5 71.5t-3.5 243.5z" />
<glyph unicode="&#xa2;" horiz-adv-x="1003" d="M49 469q0 219 137 376t342 179l15 205l65 -4l-14 -197q153 -1 245.5 -55t92.5 -135q0 -68 -43 -109t-103 -41q-75 0 -111 56t-61 210q-16 4 -24 4l-53 -751q68 -39 161 -39q113 0 226 61l22 -32q-94 -101 -193.5 -151.5t-230.5 -51.5l-14 -191l-66 4l13 189 q-180 19 -293 147t-113 326zM348 623q0 -251 125 -373l51 704q-82 -18 -129 -102t-47 -229z" />
<glyph unicode="&#xa3;" horiz-adv-x="1064" d="M14 35q152 75 224.5 165t72.5 212q0 103 -55 245h-209v78h178q-29 68 -44.5 108.5t-29.5 98.5t-14 107q0 156 135.5 261t362.5 105q170 0 276.5 -68.5t106.5 -160.5q0 -65 -35.5 -101t-93.5 -36q-84 0 -144 66.5t-98 221.5q-20 4 -39 4q-85 0 -132.5 -50.5t-47.5 -137.5 q0 -61 20.5 -129t56 -154t50.5 -135h305v-78h-285q11 -64 11 -104q0 -47 -13.5 -90.5t-32 -76.5t-50.5 -68t-57.5 -57.5t-63.5 -53.5l252 12q84 4 131 10.5t93 24.5t79 48t75 83l21 27h45l-133 -412h-905z" />
<glyph unicode="&#xa4;" d="M47 680v41q320 18 485 141q-47 118 -165 242l28 26q121 -115 240 -167q122 160 143 481h41q21 -315 144 -481q117 54 239 167l29 -26q-118 -124 -168 -242q164 -120 487 -141v-41q-318 -18 -487 -141q49 -113 168 -238l-29 -31q-127 118 -241 166q-121 -167 -142 -479 h-41q-21 320 -141 481q-112 -47 -242 -168l-28 31q116 125 165 238q-161 120 -485 141z" />
<glyph unicode="&#xa5;" horiz-adv-x="1392" d="M-20 1362v41q13 0 169 -2t203 -2q40 0 188 2t165 2v-41l-78 -14q-95 -16 -95 -74q0 -44 33 -111l242 -493l190 411q50 109 50 168q0 45 -28.5 68.5t-90.5 36.5l-37 8v41q15 0 126 -2t152 -2q43 0 137.5 2t106.5 2v-41l-35 -8q-80 -19 -130 -60.5t-93 -124.5l-242 -479 h308v-74h-344l-25 -47v-118h369v-74h-369q1 -86 5 -135.5t11.5 -86.5t27 -55t43 -28t67.5 -19l67 -14v-41q-15 0 -173.5 2t-199.5 2t-199 -2t-173 -2v41l67 14q44 9 67.5 19t43 28t27 55t11.5 86.5t5 135.5h-365v74h365v114l-27 51h-338v74h297l-260 486q-44 83 -91 121.5 t-118 56.5z" />
<glyph unicode="&#xa6;" d="M47 680v41q320 18 485 141q-47 118 -165 242l28 26q121 -115 240 -167q122 160 143 481h41q21 -315 144 -481q117 54 239 167l29 -26q-118 -124 -168 -242q164 -120 487 -141v-41q-318 -18 -487 -141q49 -113 168 -238l-29 -31q-127 118 -241 166q-121 -167 -142 -479 h-41q-21 320 -141 481q-112 -47 -242 -168l-28 31q116 125 165 238q-161 120 -485 141z" />
<glyph unicode="&#xa7;" horiz-adv-x="1044" d="M53 745q0 168 86.5 322.5t229.5 249t299 94.5q100 0 151 -35.5t51 -97.5q0 -51 -33.5 -84t-84.5 -33q-52 0 -120.5 34.5t-137.5 96.5q-139 -49 -232 -176q381 3 555 -110.5t174 -350.5q0 -126 -51.5 -248t-135.5 -213t-197 -147.5t-230 -56.5q-100 0 -151.5 35.5 t-51.5 97.5q0 51 34 84t85 33q52 0 120.5 -34.5t137.5 -96.5q138 48 231 176q-382 -3 -555.5 110t-173.5 350zM170 844q0 -175 167.5 -248.5t534.5 -67.5q2 8 2 29q0 175 -167.5 248t-534.5 67q-2 -8 -2 -28z" />
<glyph unicode="&#xa8;" horiz-adv-x="1024" d="M162 1229q0 65 44.5 109t110.5 44t111 -44t45 -109q0 -66 -45 -111t-111 -45t-110.5 45t-44.5 111zM555 1229q0 65 45 109t111 44t110.5 -44t44.5 -109q0 -66 -44.5 -111t-110.5 -45t-111 45t-45 111z" />
<glyph unicode="&#xa9;" horiz-adv-x="1638" d="M92 700q0 151 56.5 286t153 231.5t231.5 153t286 56.5t286 -56.5t231.5 -153t153 -231.5t56.5 -286t-56.5 -286t-153 -231.5t-231.5 -153t-286 -56.5t-286 56.5t-231.5 153t-153 231.5t-56.5 286zM145 700q0 -189 88 -345t243 -245.5t343 -89.5t343 89.5t243 245.5 t88 345t-88 345t-243 245.5t-343 89.5t-343 -89.5t-243 -245.5t-88 -345zM395 707q0 106 41.5 191t110 137.5t151.5 80t172 27.5q151 0 267 -58l34 -243h-47l-39 67q-98 176 -221 176q-105 0 -166 -92t-61 -264q0 -195 63 -297t172 -102q71 0 121.5 41t106.5 137l37 63h47 l-31 -233q-52 -29 -130 -48.5t-159 -19.5q-212 0 -340.5 113.5t-128.5 323.5z" />
<glyph unicode="&#xaa;" horiz-adv-x="696" d="M84 985q0 58 36.5 92t133.5 64q103 29 127 35v65q0 65 -23 90t-63 25q-13 0 -25 -4q-15 -88 -35 -121t-55 -33q-27 0 -46 19t-19 49q0 44 72.5 93.5t181.5 49.5q98 0 141 -38t43 -118v-307q0 -45 37 -45q12 0 22 2l6 -22q-51 -21 -116 -21q-94 0 -119 76 q-39 -41 -76.5 -60.5t-87.5 -19.5q-52 0 -93.5 35t-41.5 94zM86 688v74h535v-74h-535zM240 1026q0 -35 24 -54.5t66 -19.5q27 0 51 9v178q-46 -14 -80 -29q-35 -17 -48 -35.5t-13 -48.5z" />
<glyph unicode="&#xab;" horiz-adv-x="1024" d="M29 500l501 512l43 -25l-237 -487l237 -488l-43 -24zM434 500l502 512l43 -25l-238 -487l238 -488l-43 -24z" />
<glyph unicode="&#xac;" d="M47 680v41q320 18 485 141q-47 118 -165 242l28 26q121 -115 240 -167q122 160 143 481h41q21 -315 144 -481q117 54 239 167l29 -26q-118 -124 -168 -242q164 -120 487 -141v-41q-318 -18 -487 -141q49 -113 168 -238l-29 -31q-127 118 -241 166q-121 -167 -142 -479 h-41q-21 320 -141 481q-112 -47 -242 -168l-28 31q116 125 165 238q-161 120 -485 141z" />
<glyph unicode="&#xad;" horiz-adv-x="696" d="M51 451v262h594v-262h-594z" />
<glyph unicode="&#xae;" horiz-adv-x="696" d="M66 1130q0 120 81 201.5t201 81.5t201.5 -81.5t81.5 -201.5t-81.5 -201t-201.5 -81t-201 81t-81 201zM100 1130q0 -108 70.5 -180.5t177.5 -72.5t177.5 72.5t70.5 180.5t-70.5 181t-177.5 73t-177.5 -73t-70.5 -181zM199 979v22l20 7q12 3 16.5 12.5t4.5 34.5v159 q0 52 -21 58l-20 6v22q8 0 38.5 -1t38.5 -1t37.5 1t38.5 1q58 0 91.5 -21.5t33.5 -61.5q0 -54 -65 -84l65 -93q29 -36 49 -39v-18q-23 -4 -55 -4q-50 0 -80 41l-63 100h-2v-63q0 -27 4 -35.5t18 -13.5l21 -7v-22q-7 0 -41.5 1t-42.5 1t-43 -1t-43 -1zM326 1143h8q55 0 55 69 q0 60 -43 60h-20v-129z" />
<glyph unicode="&#xaf;" horiz-adv-x="1024" d="M188 1122v205h648v-205h-648z" />
<glyph unicode="&#xb0;" horiz-adv-x="634" d="M76 1171q0 103 70 172.5t173 69.5t171.5 -69.5t68.5 -172.5q0 -102 -70.5 -171.5t-173.5 -69.5t-171 69t-68 172zM154 1171q0 -75 45.5 -124.5t117.5 -49.5q73 0 118.5 49.5t45.5 124.5t-46 125t-118 50t-117.5 -50t-45.5 -125z" />
<glyph unicode="&#xb1;" horiz-adv-x="1832" d="M-10 877v59l153 65l2 15q12 82 55.5 160.5t111 141t162.5 100.5t200 38q166 0 289 -70q147 111 325 111q164 0 279 -63l90 53l37 -25v-1145q0 -112 8 -166.5t25 -75.5t53 -28l37 -8v-41q-16 0 -121.5 1t-153.5 1t-159.5 -1t-127.5 -1v41l25 6q39 9 57.5 29.5t26.5 66.5 t8 138v598h-293v-598q0 -92 8 -138t26.5 -66.5t57.5 -29.5l25 -6v-41q-19 0 -129 1t-158 1t-153 -1t-121 -1v41l37 8q36 7 53 28t25 75.5t8 166.5v560h-293v-598q0 -92 8 -138t26.5 -66.5t57.5 -29.5l25 -6v-41q-19 0 -129 1t-158 1t-153.5 -1t-121.5 -1v41l37 8q36 7 53 28 t25 75.5t8 166.5v560h-153zM465 987h293v21q0 94 41 178q-68 168 -183 168q-47 0 -78.5 -24t-46.5 -69.5t-20.5 -92.5t-5.5 -111v-70zM1079 987h293v191q0 217 -141 217q-47 0 -78.5 -24t-47 -69.5t-21 -93t-5.5 -110.5v-111z" />
<glyph unicode="&#xb2;" d="M47 680v41q320 18 485 141q-47 118 -165 242l28 26q121 -115 240 -167q122 160 143 481h41q21 -315 144 -481q117 54 239 167l29 -26q-118 -124 -168 -242q164 -120 487 -141v-41q-318 -18 -487 -141q49 -113 168 -238l-29 -31q-127 118 -241 166q-121 -167 -142 -479 h-41q-21 320 -141 481q-112 -47 -242 -168l-28 31q116 125 165 238q-161 120 -485 141z" />
<glyph unicode="&#xb3;" d="M47 680v41q320 18 485 141q-47 118 -165 242l28 26q121 -115 240 -167q122 160 143 481h41q21 -315 144 -481q117 54 239 167l29 -26q-118 -124 -168 -242q164 -120 487 -141v-41q-318 -18 -487 -141q49 -113 168 -238l-29 -31q-127 118 -241 166q-121 -167 -142 -479 h-41q-21 320 -141 481q-112 -47 -242 -168l-28 31q116 125 165 238q-161 120 -485 141z" />
<glyph unicode="&#xb4;" horiz-adv-x="1024" d="M289 1102l90 194q49 105 90 143t102 38q53 0 87 -35.5t34 -83.5q0 -56 -42 -99.5t-138 -91.5l-188 -96z" />
<glyph unicode="&#xb5;" d="M47 680v41q320 18 485 141q-47 118 -165 242l28 26q121 -115 240 -167q122 160 143 481h41q21 -315 144 -481q117 54 239 167l29 -26q-118 -124 -168 -242q164 -120 487 -141v-41q-318 -18 -487 -141q49 -113 168 -238l-29 -31q-127 118 -241 166q-121 -167 -142 -479 h-41q-21 320 -141 481q-112 -47 -242 -168l-28 31q116 125 165 238q-161 120 -485 141z" />
<glyph unicode="&#xb6;" horiz-adv-x="1105" d="M57 1006q0 98 37 175t101.5 124.5t147.5 71.5t179 24h549v-66h-182v-1335h-64v1335h-209v-1165q0 -89 -49 -136.5t-123 -47.5q-86 0 -157 75l47 45q55 -61 112 -61q47 0 78 30.5t31 90.5v452h-57q-122 0 -221 44t-159.5 133.5t-60.5 210.5z" />
<glyph unicode="&#xb7;" horiz-adv-x="512" d="M70 582q0 76 55 131t131 55t131 -55t55 -131q0 -77 -55 -132t-131 -55t-131 55t-55 132z" />
<glyph unicode="&#xb8;" horiz-adv-x="1024" d="M328 -283q0 25 17 45.5t42 20.5q56 0 127 -80q59 21 59 68q0 27 -30 43t-105 20l-18 21l100 145h62l-43 -61q95 -6 140.5 -33t45.5 -78q0 -69 -89.5 -121.5t-193.5 -52.5q-114 0 -114 63z" />
<glyph unicode="&#xb9;" d="M47 680v41q320 18 485 141q-47 118 -165 242l28 26q121 -115 240 -167q122 160 143 481h41q21 -315 144 -481q117 54 239 167l29 -26q-118 -124 -168 -242q164 -120 487 -141v-41q-318 -18 -487 -141q49 -113 168 -238l-29 -31q-127 118 -241 166q-121 -167 -142 -479 h-41q-21 320 -141 481q-112 -47 -242 -168l-28 31q116 125 165 238q-161 120 -485 141z" />
<glyph unicode="&#xba;" horiz-adv-x="696" d="M61 1133q0 116 79 196t210 80t208 -75t77 -208q0 -118 -79 -197t-210 -79q-132 0 -208.5 74.5t-76.5 208.5zM82 688v74h532v-74h-532zM246 1176q0 -287 112 -287q49 0 71 43.5t22 150.5q0 285 -113 285q-49 0 -70.5 -43t-21.5 -149z" />
<glyph unicode="&#xbb;" horiz-adv-x="1024" d="M45 12l238 488l-238 487l43 25l502 -512l-502 -512zM451 12l237 488l-237 487l43 25l501 -512l-501 -512z" />
<glyph unicode="&#xbc;" d="M47 680v41q320 18 485 141q-47 118 -165 242l28 26q121 -115 240 -167q122 160 143 481h41q21 -315 144 -481q117 54 239 167l29 -26q-118 -124 -168 -242q164 -120 487 -141v-41q-318 -18 -487 -141q49 -113 168 -238l-29 -31q-127 118 -241 166q-121 -167 -142 -479 h-41q-21 320 -141 481q-112 -47 -242 -168l-28 31q116 125 165 238q-161 120 -485 141z" />
<glyph unicode="&#xbd;" d="M47 680v41q320 18 485 141q-47 118 -165 242l28 26q121 -115 240 -167q122 160 143 481h41q21 -315 144 -481q117 54 239 167l29 -26q-118 -124 -168 -242q164 -120 487 -141v-41q-318 -18 -487 -141q49 -113 168 -238l-29 -31q-127 118 -241 166q-121 -167 -142 -479 h-41q-21 320 -141 481q-112 -47 -242 -168l-28 31q116 125 165 238q-161 120 -485 141z" />
<glyph unicode="&#xbe;" d="M47 680v41q320 18 485 141q-47 118 -165 242l28 26q121 -115 240 -167q122 160 143 481h41q21 -315 144 -481q117 54 239 167l29 -26q-118 -124 -168 -242q164 -120 487 -141v-41q-318 -18 -487 -141q49 -113 168 -238l-29 -31q-127 118 -241 166q-121 -167 -142 -479 h-41q-21 320 -141 481q-112 -47 -242 -168l-28 31q116 125 165 238q-161 120 -485 141z" />
<glyph unicode="&#xbf;" horiz-adv-x="774" d="M41 426q0 110 56.5 172.5t201.5 122.5q79 32 114 55.5t46.5 49.5t11.5 75v43l61 10q84 -217 84 -284q0 -78 -40.5 -118.5t-172.5 -96.5q-118 -49 -159 -88.5t-41 -85.5q0 -42 27.5 -84.5t74.5 -69.5q68 68 137 112t121 44q62 0 102 -45t40 -103q0 -149 -201 -149 q-114 0 -220 56.5t-174.5 159.5t-68.5 224zM297 1235q0 73 53.5 126.5t126.5 53.5t126.5 -53.5t53.5 -126.5t-53.5 -126.5t-126.5 -53.5t-126.5 53.5t-53.5 126.5z" />
<glyph unicode="&#xc0;" horiz-adv-x="1521" d="M-31 -2v41l25 6q72 19 129 87.5t110 199.5l400 1005l182 93h68l444 -1164q37 -100 79.5 -151.5t111.5 -67.5l34 -8v-41q-15 0 -161.5 2t-186.5 2q-42 0 -205.5 -2t-177.5 -2v41l51 8q71 12 99 36.5t28 68.5q0 46 -30 131l-74 204h-492l-51 -143q-45 -119 -45 -184 q0 -44 25.5 -73t91.5 -40l47 -8v-41q-14 0 -107 2t-135 2q-41 0 -142.5 -2t-117.5 -2zM436 575h428l-213 599zM459 1767q0 48 34 83.5t87 35.5q61 0 102 -38t90 -142l90 -195l-35 -30l-188 96q-96 49 -138 91.5t-42 98.5z" />
<glyph unicode="&#xc1;" horiz-adv-x="1521" d="M-31 -2v41l25 6q72 19 129 87.5t110 199.5l400 1005l182 93h68l444 -1164q37 -100 79.5 -151.5t111.5 -67.5l34 -8v-41q-15 0 -161.5 2t-186.5 2q-42 0 -205.5 -2t-177.5 -2v41l51 8q71 12 99 36.5t28 68.5q0 46 -30 131l-74 204h-492l-51 -143q-45 -119 -45 -184 q0 -44 25.5 -73t91.5 -40l47 -8v-41q-14 0 -107 2t-135 2q-41 0 -142.5 -2t-117.5 -2zM436 575h428l-213 599zM678 1491l90 195q49 104 90.5 142t102.5 38q53 0 86.5 -35.5t33.5 -83.5q0 -56 -42 -99.5t-138 -91.5l-188 -96z" />
<glyph unicode="&#xc2;" horiz-adv-x="1521" d="M-31 -2v41l25 6q72 19 129 87.5t110 199.5l400 1005l182 93h68l444 -1164q37 -100 79.5 -151.5t111.5 -67.5l34 -8v-41q-15 0 -161.5 2t-186.5 2q-42 0 -205.5 -2t-177.5 -2v41l51 8q71 12 99 36.5t28 68.5q0 46 -30 131l-74 204h-492l-51 -143q-45 -119 -45 -184 q0 -44 25.5 -73t91.5 -40l47 -8v-41q-14 0 -107 2t-135 2q-41 0 -142.5 -2t-117.5 -2zM436 575h428l-213 599zM449 1452l247 354h148l248 -354l-35 -33l-287 160l-287 -160z" />
<glyph unicode="&#xc3;" horiz-adv-x="1521" d="M-31 -2v41l25 6q72 19 129 87.5t110 199.5l400 1005l182 93h68l444 -1164q37 -100 79.5 -151.5t111.5 -67.5l34 -8v-41q-15 0 -161.5 2t-186.5 2q-42 0 -205.5 -2t-177.5 -2v41l51 8q71 12 99 36.5t28 68.5q0 46 -30 131l-74 204h-492l-51 -143q-45 -119 -45 -184 q0 -44 25.5 -73t91.5 -40l47 -8v-41q-14 0 -107 2t-135 2q-41 0 -142.5 -2t-117.5 -2zM424 1473q48 156 95.5 215t131.5 59q43 0 152 -18.5t149 -18.5q45 0 75 18.5t60 67.5l50 -22q-48 -156 -96 -215.5t-132 -59.5q-43 0 -152 18.5t-149 18.5q-45 0 -75 -18.5t-60 -67.5z M436 575h428l-213 599z" />
<glyph unicode="&#xc4;" horiz-adv-x="1521" d="M-31 -2v41l25 6q72 19 129 87.5t110 199.5l400 1005l182 93h68l444 -1164q37 -100 79.5 -151.5t111.5 -67.5l34 -8v-41q-15 0 -161.5 2t-186.5 2q-42 0 -205.5 -2t-177.5 -2v41l51 8q71 12 99 36.5t28 68.5q0 46 -30 131l-74 204h-492l-51 -143q-45 -119 -45 -184 q0 -44 25.5 -73t91.5 -40l47 -8v-41q-14 0 -107 2t-135 2q-41 0 -142.5 -2t-117.5 -2zM420 1618q0 65 44.5 109.5t110.5 44.5t111 -44.5t45 -109.5q0 -66 -45 -111t-111 -45t-110.5 45t-44.5 111zM436 575h428l-213 599zM813 1618q0 65 45 109.5t111 44.5t110.5 -44.5 t44.5 -109.5q0 -66 -44.5 -111t-110.5 -45t-111 45t-45 111z" />
<glyph unicode="&#xc5;" horiz-adv-x="1521" d="M-31 -2v41l25 6q72 19 129 87.5t110 199.5l400 1005l182 93h68l444 -1164q37 -100 79.5 -151.5t111.5 -67.5l34 -8v-41q-15 0 -161.5 2t-186.5 2q-42 0 -205.5 -2t-177.5 -2v41l51 8q71 12 99 36.5t28 68.5q0 46 -30 131l-74 204h-492l-51 -143q-45 -119 -45 -184 q0 -44 25.5 -73t91.5 -40l47 -8v-41q-14 0 -107 2t-135 2q-41 0 -142.5 -2t-117.5 -2zM436 575h428l-213 599zM590 1642q0 71 50 120.5t122 49.5t122 -49.5t50 -120.5q0 -72 -50 -122t-122 -50t-122 50t-50 122zM664 1640q0 -43 29 -74.5t69 -31.5t69 31.5t29 74.5t-28.5 76 t-69.5 33t-69.5 -33t-28.5 -76z" />
<glyph unicode="&#xc6;" horiz-adv-x="2019" d="M-39 -2v41l25 6q78 21 149 89t148 198l575 973q-57 29 -121 43l-67 14v41q17 0 237 -2t260 -2q42 0 296 1t268 1h163l64 -346h-45l-72 94q-70 93 -147.5 133.5t-200.5 40.5h-18q-77 0 -166 -14v-541l108 4q89 3 142 13t83 34t41 52.5t17 80.5l2 19h49q0 -19 -2 -111 t-2 -133q0 -42 2 -140.5t2 -115.5h-49l-2 18q-6 53 -16 82t-39 54.5t-83 37t-145 15.5l-108 4v-356q0 -84 7 -130t31 -75.5t62.5 -38t108.5 -8.5h26q120 0 195.5 41t163.5 155l57 74h45l-66 -344h-213q-63 0 -305 1t-274 1q-40 0 -192 -2t-169 -2v41l68 14q32 7 51.5 20 t34 35.5t21 65.5t9.5 99t3 147v67h-477l-82 -145q-82 -146 -82 -205q0 -38 24.5 -59.5t75.5 -30.5l45 -8v-41q-14 0 -113 2t-141 2q-41 0 -143.5 -2t-118.5 -2zM545 575h428v728h-25z" />
<glyph unicode="&#xc7;" horiz-adv-x="1443" d="M68 698q0 140 45 259.5t121 203t177 142t213 86.5t228 28q244 0 434 -94l51 -387h-51l-59 106q-84 151 -176.5 226t-216.5 75q-174 0 -282 -156t-108 -452q0 -333 110.5 -505.5t299.5 -172.5q126 0 212 68t183 233l60 103h51l-45 -373q-85 -47 -212 -75.5t-261 -28.5 l-31 -45q95 -6 140.5 -33t45.5 -78q0 -69 -89 -121.5t-193 -52.5q-115 0 -115 63q0 25 17 45.5t42 20.5q56 0 127 -80q60 22 60 68q0 27 -30 43t-105 20l-19 21l90 131q-159 8 -289 57t-225 137t-147.5 220t-52.5 298z" />
<glyph unicode="&#xc8;" horiz-adv-x="1257" d="M25 -2v41l67 14q32 7 51.5 20t34 35.5t21 65.5t9.5 99t3 147v561q0 91 -3 147t-9.5 99t-21 65.5t-34 35.5t-51.5 20l-67 14v41q17 0 179 -2t202 -2q42 0 295.5 1t267.5 1h164l63 -346h-45l-72 94q-70 93 -147.5 133.5t-200.5 40.5h-18q-77 0 -166 -14v-541l108 4 q89 3 142 13t83 34t41 52.5t17 80.5l2 19h49q0 -19 -2 -111t-2 -133q0 -42 2 -140.5t2 -115.5h-49l-2 18q-6 53 -16 82t-39 54.5t-83 37t-145 15.5l-108 4v-356q0 -84 7 -130t31 -75.5t62.5 -38t108.5 -8.5h26q120 0 195.5 41t163.5 155l57 74h45l-65 -344h-213 q-63 0 -305.5 1t-274.5 1q-40 0 -191.5 -2t-168.5 -2zM383 1747q0 48 34 83.5t87 35.5q61 0 102 -38t90 -142l90 -195l-34 -31l-189 96q-96 48 -138 91.5t-42 99.5z" />
<glyph unicode="&#xc9;" horiz-adv-x="1257" d="M25 -2v41l67 14q32 7 51.5 20t34 35.5t21 65.5t9.5 99t3 147v561q0 91 -3 147t-9.5 99t-21 65.5t-34 35.5t-51.5 20l-67 14v41q17 0 179 -2t202 -2q42 0 295.5 1t267.5 1h164l63 -346h-45l-72 94q-70 93 -147.5 133.5t-200.5 40.5h-18q-77 0 -166 -14v-541l108 4 q89 3 142 13t83 34t41 52.5t17 80.5l2 19h49q0 -19 -2 -111t-2 -133q0 -42 2 -140.5t2 -115.5h-49l-2 18q-6 53 -16 82t-39 54.5t-83 37t-145 15.5l-108 4v-356q0 -84 7 -130t31 -75.5t62.5 -38t108.5 -8.5h26q120 0 195.5 41t163.5 155l57 74h45l-65 -344h-213 q-63 0 -305.5 1t-274.5 1q-40 0 -191.5 -2t-168.5 -2zM541 1491l90 195q49 104 90 142t102 38q53 0 87 -35.5t34 -83.5q0 -56 -42 -99.5t-138 -91.5l-189 -96z" />
<glyph unicode="&#xca;" horiz-adv-x="1257" d="M25 -2v41l67 14q32 7 51.5 20t34 35.5t21 65.5t9.5 99t3 147v561q0 91 -3 147t-9.5 99t-21 65.5t-34 35.5t-51.5 20l-67 14v41q17 0 179 -2t202 -2q42 0 295.5 1t267.5 1h164l63 -346h-45l-72 94q-70 93 -147.5 133.5t-200.5 40.5h-18q-77 0 -166 -14v-541l108 4 q89 3 142 13t83 34t41 52.5t17 80.5l2 19h49q0 -19 -2 -111t-2 -133q0 -42 2 -140.5t2 -115.5h-49l-2 18q-6 53 -16 82t-39 54.5t-83 37t-145 15.5l-108 4v-356q0 -84 7 -130t31 -75.5t62.5 -38t108.5 -8.5h26q120 0 195.5 41t163.5 155l57 74h45l-65 -344h-213 q-63 0 -305.5 1t-274.5 1q-40 0 -191.5 -2t-168.5 -2zM324 1483l247 354h148l248 -354l-35 -33l-287 160l-287 -160z" />
<glyph unicode="&#xcb;" horiz-adv-x="1257" d="M25 -2v41l67 14q32 7 51.5 20t34 35.5t21 65.5t9.5 99t3 147v561q0 91 -3 147t-9.5 99t-21 65.5t-34 35.5t-51.5 20l-67 14v41q17 0 179 -2t202 -2q42 0 295.5 1t267.5 1h164l63 -346h-45l-72 94q-70 93 -147.5 133.5t-200.5 40.5h-18q-77 0 -166 -14v-541l108 4 q89 3 142 13t83 34t41 52.5t17 80.5l2 19h49q0 -19 -2 -111t-2 -133q0 -42 2 -140.5t2 -115.5h-49l-2 18q-6 53 -16 82t-39 54.5t-83 37t-145 15.5l-108 4v-356q0 -84 7 -130t31 -75.5t62.5 -38t108.5 -8.5h26q120 0 195.5 41t163.5 155l57 74h45l-65 -344h-213 q-63 0 -305.5 1t-274.5 1q-40 0 -191.5 -2t-168.5 -2zM287 1618q0 65 44.5 109.5t110.5 44.5t111 -44.5t45 -109.5q0 -66 -45 -111t-111 -45t-110.5 45t-44.5 111zM680 1618q0 65 45 109.5t111 44.5t110.5 -44.5t44.5 -109.5q0 -66 -44.5 -111t-110.5 -45t-111 45t-45 111z " />
<glyph unicode="&#xcc;" horiz-adv-x="794" d="M25 -2v41l67 14q29 6 47 13t34.5 17t25 29.5t15.5 42t10 64t4 86t1 117.5v557q0 73 -1 117.5t-4 86t-10 64t-15.5 42t-25 29.5t-34.5 17t-47 13l-67 14v41q15 0 173 -2t199 -2t199.5 2t173.5 2v-41l-68 -14q-29 -6 -47 -13t-34.5 -17t-25 -29.5t-15.5 -42t-10 -64t-4 -86 t-1 -117.5v-557q0 -73 1 -117.5t4 -86t10 -64t15.5 -42t25 -29.5t34.5 -17t47 -13l68 -14v-41q-15 0 -173.5 2t-199.5 2t-199 -2t-173 -2zM98 1747q0 48 34 83.5t87 35.5q61 0 102.5 -38t90.5 -142l90 -195l-35 -31l-188 96q-96 49 -138.5 92t-42.5 99z" />
<glyph unicode="&#xcd;" horiz-adv-x="794" d="M25 -2v41l67 14q29 6 47 13t34.5 17t25 29.5t15.5 42t10 64t4 86t1 117.5v557q0 73 -1 117.5t-4 86t-10 64t-15.5 42t-25 29.5t-34.5 17t-47 13l-67 14v41q15 0 173 -2t199 -2t199.5 2t173.5 2v-41l-68 -14q-29 -6 -47 -13t-34.5 -17t-25 -29.5t-15.5 -42t-10 -64t-4 -86 t-1 -117.5v-557q0 -73 1 -117.5t4 -86t10 -64t15.5 -42t25 -29.5t34.5 -17t47 -13l68 -14v-41q-15 0 -173.5 2t-199.5 2t-199 -2t-173 -2zM293 1491l90 195q49 104 90 142t102 38q53 0 87 -35.5t34 -83.5q0 -56 -42 -99.5t-138 -91.5l-188 -96z" />
<glyph unicode="&#xce;" horiz-adv-x="794" d="M25 -2v41l67 14q29 6 47 13t34.5 17t25 29.5t15.5 42t10 64t4 86t1 117.5v557q0 73 -1 117.5t-4 86t-10 64t-15.5 42t-25 29.5t-34.5 17t-47 13l-67 14v41q15 0 173 -2t199 -2t199.5 2t173.5 2v-41l-68 -14q-29 -6 -47 -13t-34.5 -17t-25 -29.5t-15.5 -42t-10 -64t-4 -86 t-1 -117.5v-557q0 -73 1 -117.5t4 -86t10 -64t15.5 -42t25 -29.5t34.5 -17t47 -13l68 -14v-41q-15 0 -173.5 2t-199.5 2t-199 -2t-173 -2zM76 1483l248 354h147l248 -354l-35 -33l-287 160l-286 -160z" />
<glyph unicode="&#xcf;" horiz-adv-x="794" d="M25 -2v41l67 14q29 6 47 13t34.5 17t25 29.5t15.5 42t10 64t4 86t1 117.5v557q0 73 -1 117.5t-4 86t-10 64t-15.5 42t-25 29.5t-34.5 17t-47 13l-67 14v41q15 0 173 -2t199 -2t199.5 2t173.5 2v-41l-68 -14q-29 -6 -47 -13t-34.5 -17t-25 -29.5t-15.5 -42t-10 -64t-4 -86 t-1 -117.5v-557q0 -73 1 -117.5t4 -86t10 -64t15.5 -42t25 -29.5t34.5 -17t47 -13l68 -14v-41q-15 0 -173.5 2t-199.5 2t-199 -2t-173 -2zM47 1618q0 65 45 109.5t111 44.5t110.5 -44.5t44.5 -109.5q0 -66 -44.5 -111t-110.5 -45t-111 45t-45 111zM440 1618q0 65 45 109.5 t111 44.5t111 -44.5t45 -109.5q0 -66 -45 -111t-111 -45t-111 45t-45 111z" />
<glyph unicode="&#xd0;" horiz-adv-x="1628" d="M45 666v88h197v227q0 91 -3 147t-9.5 99t-21 65.5t-34 35.5t-51.5 20l-68 14v41q15 0 124.5 -2t150.5 -2q38 0 184.5 2t194.5 2q257 0 448.5 -83.5t297.5 -244t106 -379.5q0 -166 -59 -299t-164 -220.5t-249 -134t-315 -46.5q-110 0 -220 3t-144 3q-41 0 -190.5 -2 t-164.5 -2v41l68 14q32 7 51.5 20t34 35.5t21 65.5t9.5 99t3 147v246h-197zM573 315q0 -140 48 -194.5t172 -54.5q183 0 287 155.5t104 458.5q0 323 -124.5 486t-385.5 163q-55 0 -101 -4v-571h328v-88h-328v-351z" />
<glyph unicode="&#xd1;" horiz-adv-x="1560" d="M10 1362v41q86 -4 226 -4q166 0 251 6l773 -895l-7 465q-2 153 -17.5 225.5t-52.5 106t-118 51.5l-18 4v41q15 0 116 -2t142 -2t133.5 2t111.5 2v-41l-18 -4q-70 -16 -103.5 -50.5t-48 -108t-16.5 -222.5l-16 -977l-56 -16l-958 1114l8 -672q2 -153 17.5 -225.5 t52.5 -106t118 -51.5l19 -4v-41q-15 0 -116 2t-142 2t-134 -2t-112 -2v41l18 4q43 10 69 24t46 38t30.5 67.5t15.5 101.5t7 150l15 778q-66 73 -107.5 102.5t-109.5 51.5zM483 1473q48 156 96 215t132 59q43 0 152 -18.5t149 -18.5q45 0 75 18.5t60 67.5l49 -22 q-49 -157 -96 -216t-131 -59q-44 0 -152.5 18.5t-148.5 18.5q-45 0 -75.5 -18.5t-60.5 -67.5z" />
<glyph unicode="&#xd2;" horiz-adv-x="1617" d="M68 702q0 332 200 526.5t541 194.5q217 0 384 -86.5t262 -252t95 -386.5q0 -332 -200 -526.5t-541 -194.5q-217 0 -384 86.5t-262 252t-95 386.5zM444 760q0 -324 107 -518.5t295 -194.5q328 0 328 594q0 324 -107 518.5t-295 194.5q-328 0 -328 -594zM539 1757 q0 48 33.5 83.5t86.5 35.5q61 0 102.5 -38t90.5 -142l90 -195l-35 -31l-188 97q-96 49 -138 91.5t-42 98.5z" />
<glyph unicode="&#xd3;" horiz-adv-x="1617" d="M68 702q0 332 200 526.5t541 194.5q217 0 384 -86.5t262 -252t95 -386.5q0 -332 -200 -526.5t-541 -194.5q-217 0 -384 86.5t-262 252t-95 386.5zM444 760q0 -324 107 -518.5t295 -194.5q328 0 328 594q0 324 -107 518.5t-295 194.5q-328 0 -328 -594zM666 1501l90 195 q49 104 90 142t102 38q53 0 87 -35.5t34 -83.5q0 -56 -42 -98.5t-138 -91.5l-189 -97z" />
<glyph unicode="&#xd4;" horiz-adv-x="1617" d="M68 702q0 332 200 526.5t541 194.5q217 0 384 -86.5t262 -252t95 -386.5q0 -332 -200 -526.5t-541 -194.5q-217 0 -384 86.5t-262 252t-95 386.5zM444 760q0 -324 107 -518.5t295 -194.5q328 0 328 594q0 324 -107 518.5t-295 194.5q-328 0 -328 -594zM483 1483l248 354 h148l247 -354l-34 -33l-287 160l-287 -160z" />
<glyph unicode="&#xd5;" horiz-adv-x="1617" d="M68 702q0 332 200 526.5t541 194.5q217 0 384 -86.5t262 -252t95 -386.5q0 -332 -200 -526.5t-541 -194.5q-217 0 -384 86.5t-262 252t-95 386.5zM444 760q0 -324 107 -518.5t295 -194.5q328 0 328 594q0 324 -107 518.5t-295 194.5q-328 0 -328 -594zM455 1473 q48 156 95.5 215t131.5 59q44 0 152 -18.5t149 -18.5q45 0 75 18.5t60 67.5l49 -22q-49 -157 -96 -216t-131 -59q-43 0 -151.5 18.5t-149.5 18.5q-45 0 -75 -18.5t-60 -67.5z" />
<glyph unicode="&#xd6;" horiz-adv-x="1617" d="M68 702q0 332 200 526.5t541 194.5q217 0 384 -86.5t262 -252t95 -386.5q0 -332 -200 -526.5t-541 -194.5q-217 0 -384 86.5t-262 252t-95 386.5zM444 760q0 -324 107 -518.5t295 -194.5q328 0 328 594q0 324 -107 518.5t-295 194.5q-328 0 -328 -594zM455 1618 q0 65 44.5 109.5t110.5 44.5t111 -44.5t45 -109.5q0 -66 -45 -111t-111 -45t-110.5 45t-44.5 111zM848 1618q0 65 45 109.5t111 44.5t110.5 -44.5t44.5 -109.5q0 -66 -44.5 -111t-110.5 -45t-111 45t-45 111z" />
<glyph unicode="&#xd7;" d="M47 680v41q320 18 485 141q-47 118 -165 242l28 26q121 -115 240 -167q122 160 143 481h41q21 -315 144 -481q117 54 239 167l29 -26q-118 -124 -168 -242q164 -120 487 -141v-41q-318 -18 -487 -141q49 -113 168 -238l-29 -31q-127 118 -241 166q-121 -167 -142 -479 h-41q-21 320 -141 481q-112 -47 -242 -168l-28 31q116 125 165 238q-161 120 -485 141z" />
<glyph unicode="&#xd8;" horiz-adv-x="1617" d="M68 702q0 332 200 526.5t541 194.5q289 0 485 -151l166 184l64 -55l-166 -187q192 -195 192 -516q0 -332 -200 -526.5t-541 -194.5q-288 0 -485 152l-166 -184l-64 55l166 184q-192 198 -192 518zM438 760q0 -203 45 -361l621 686q-52 129 -136.5 199t-195.5 70 q-334 0 -334 -594zM512 315q53 -129 138 -198.5t196 -69.5q334 0 334 594q0 202 -45 360z" />
<glyph unicode="&#xd9;" horiz-adv-x="1515" d="M10 1362v41q16 0 159.5 -2t184.5 -2t199.5 2t173.5 2v-41l-68 -14q-29 -6 -47 -13t-34.5 -17t-25 -29.5t-15.5 -42t-10 -64t-4 -86t-1 -117.5v-485q0 -404 352 -404q172 0 263 109.5t88 312.5l-6 463q-2 152 -18 225t-53 106.5t-118 51.5l-18 4v41q15 0 116 -2t142 -2 t128.5 2t106.5 2v-41l-8 -2q-44 -11 -70.5 -26t-46.5 -38.5t-29.5 -68t-14.5 -101t-7 -149.5l-8 -467q-5 -253 -145.5 -393t-425.5 -140q-564 0 -564 558v456q0 143 -9.5 213.5t-33.5 103t-75 42.5zM530 1737q0 48 33.5 83t87.5 35q61 0 102.5 -38t90.5 -142l90 -194 l-35 -31l-188 96q-96 49 -138.5 92t-42.5 99z" />
<glyph unicode="&#xda;" horiz-adv-x="1515" d="M10 1362v41q16 0 159.5 -2t184.5 -2t199.5 2t173.5 2v-41l-68 -14q-29 -6 -47 -13t-34.5 -17t-25 -29.5t-15.5 -42t-10 -64t-4 -86t-1 -117.5v-485q0 -404 352 -404q172 0 263 109.5t88 312.5l-6 463q-2 152 -18 225t-53 106.5t-118 51.5l-18 4v41q15 0 116 -2t142 -2 t128.5 2t106.5 2v-41l-8 -2q-44 -11 -70.5 -26t-46.5 -38.5t-29.5 -68t-14.5 -101t-7 -149.5l-8 -467q-5 -253 -145.5 -393t-425.5 -140q-564 0 -564 558v456q0 143 -9.5 213.5t-33.5 103t-75 42.5zM756 1481l90 194q49 104 90 142t102 38q54 0 87.5 -35t33.5 -83 q0 -56 -42 -99.5t-138 -91.5l-188 -96z" />
<glyph unicode="&#xdb;" horiz-adv-x="1515" d="M10 1362v41q16 0 159.5 -2t184.5 -2t199.5 2t173.5 2v-41l-68 -14q-29 -6 -47 -13t-34.5 -17t-25 -29.5t-15.5 -42t-10 -64t-4 -86t-1 -117.5v-485q0 -404 352 -404q172 0 263 109.5t88 312.5l-6 463q-2 152 -18 225t-53 106.5t-118 51.5l-18 4v41q15 0 116 -2t142 -2 t128.5 2t106.5 2v-41l-8 -2q-44 -11 -70.5 -26t-46.5 -38.5t-29.5 -68t-14.5 -101t-7 -149.5l-8 -467q-5 -253 -145.5 -393t-425.5 -140q-564 0 -564 558v456q0 143 -9.5 213.5t-33.5 103t-75 42.5zM520 1483l248 354h147l248 -354l-35 -33l-286 160l-287 -160z" />
<glyph unicode="&#xdc;" horiz-adv-x="1515" d="M10 1362v41q16 0 159.5 -2t184.5 -2t199.5 2t173.5 2v-41l-68 -14q-29 -6 -47 -13t-34.5 -17t-25 -29.5t-15.5 -42t-10 -64t-4 -86t-1 -117.5v-485q0 -404 352 -404q172 0 263 109.5t88 312.5l-6 463q-2 152 -18 225t-53 106.5t-118 51.5l-18 4v41q15 0 116 -2t142 -2 t128.5 2t106.5 2v-41l-8 -2q-44 -11 -70.5 -26t-46.5 -38.5t-29.5 -68t-14.5 -101t-7 -149.5l-8 -467q-5 -253 -145.5 -393t-425.5 -140q-564 0 -564 558v456q0 143 -9.5 213.5t-33.5 103t-75 42.5zM492 1618q0 65 44.5 109.5t110.5 44.5t111 -44.5t45 -109.5 q0 -66 -45 -111t-111 -45t-110.5 45t-44.5 111zM885 1618q0 65 44.5 109.5t110.5 44.5t111 -44.5t45 -109.5q0 -66 -45 -111t-111 -45t-110.5 45t-44.5 111z" />
<glyph unicode="&#xdd;" horiz-adv-x="1519" d="M-33 1362v41q15 0 161 -2t187 -2q40 0 225 2t199 2v-41l-43 -8q-110 -20 -110 -84q0 -37 45 -117l266 -475l227 434q47 90 47 150q0 33 -27 56.5t-77 33.5l-49 10v41q15 0 131.5 -2t159.5 -2q41 0 134.5 2t108.5 2v-41l-34 -8q-52 -12 -88.5 -31t-70 -55.5t-58.5 -74.5 t-66 -110l-289 -503v-158q0 -85 1.5 -134.5t8 -93t15 -64t28 -38t41 -24.5t60.5 -15l67 -14v-41q-15 0 -181.5 2t-207.5 2t-207.5 -2t-181.5 -2v41l68 14q38 8 59.5 15t41.5 24.5t28 38t14.5 64t8 93t1.5 134.5v131l-379 614q-54 84 -102.5 125.5t-120.5 59.5zM786 1481 l91 194q49 104 90 142t102 38q54 0 87.5 -35t33.5 -83q0 -56 -42 -99.5t-138 -91.5l-189 -96z" />
<glyph unicode="&#xde;" horiz-adv-x="1265" d="M25 -2v41l67 14q32 7 51.5 20t34 35.5t21 65.5t9.5 99t3 147v561q0 91 -3 147t-9.5 99t-21 65.5t-34 35.5t-51.5 20l-67 14v41q16 0 164.5 -2t189.5 -2t207.5 2t181.5 2v-41l-68 -14q-66 -14 -94.5 -33.5t-42.5 -69t-16 -153.5q24 0 61.5 1t57.5 1q169 0 292.5 -35.5 t196 -113.5t72.5 -193q0 -169 -143.5 -265t-407.5 -135l-10 37q120 47 169.5 120.5t49.5 221.5q0 149 -64.5 219t-179.5 70q-40 0 -94 -10v-588q0 -85 1.5 -134.5t8 -93t14.5 -64t28 -38t41.5 -24.5t59.5 -15l68 -14v-41q-15 0 -181.5 2t-207.5 2t-189.5 -2t-164.5 -2z" />
<glyph unicode="&#xdf;" horiz-adv-x="1337" d="M-10 877v59l153 65v7q0 94 42 182t115.5 156.5t184 109.5t238.5 41q178 0 272.5 -60t94.5 -169q0 -73 -35 -131t-146 -162q-77 -72 -101 -101.5t-24 -58.5q0 -27 37 -50t162 -75q181 -74 252.5 -152t71.5 -196q0 -156 -113.5 -256t-275.5 -100q-73 0 -160 20.5t-156 50.5 v242h113q33 -134 80.5 -188t140.5 -54q62 0 103.5 40.5t41.5 109.5q0 67 -50 113t-175 98q-146 60 -199 112.5t-53 120.5q0 50 16.5 89t65.5 116q50 77 74 152t24 168q0 56 -6.5 96.5t-22 72.5t-44.5 48t-72 16q-88 0 -131 -78.5t-43 -212.5v-1118q-72 0 -254 -1t-191 -1v41 l37 8q36 7 53 28t25 75.5t8 166.5v560h-153z" />
<glyph unicode="&#xe0;" horiz-adv-x="1019" d="M27 221q0 112 67 171t246 116q90 29 233 61v125q0 121 -41 167t-116 46q-29 0 -47 -6q-27 -164 -64 -225.5t-100 -61.5q-52 0 -88.5 34.5t-36.5 90.5q0 28 20.5 63t61.5 71.5t96 66.5t132 49t161 19q183 0 263.5 -70.5t80.5 -220.5v-570q0 -39 18 -59t50 -20q23 0 41 2 l10 -43q-93 -35 -215 -35q-82 0 -140 35.5t-81 101.5q-73 -74 -142 -109.5t-162 -35.5q-96 0 -171.5 63.5t-75.5 173.5zM246 1358q0 48 34 83.5t87 35.5q61 0 102 -38t90 -143l90 -194l-35 -31l-188 96q-96 48 -138 91.5t-42 99.5zM311 297q0 -62 48.5 -97.5t123.5 -35.5 q56 0 90 10v336q-83 -30 -135 -55q-66 -34 -96.5 -70t-30.5 -88z" />
<glyph unicode="&#xe1;" horiz-adv-x="1019" d="M27 221q0 112 67 171t246 116q90 29 233 61v125q0 121 -41 167t-116 46q-29 0 -47 -6q-27 -164 -64 -225.5t-100 -61.5q-52 0 -88.5 34.5t-36.5 90.5q0 28 20.5 63t61.5 71.5t96 66.5t132 49t161 19q183 0 263.5 -70.5t80.5 -220.5v-570q0 -39 18 -59t50 -20q23 0 41 2 l10 -43q-93 -35 -215 -35q-82 0 -140 35.5t-81 101.5q-73 -74 -142 -109.5t-162 -35.5q-96 0 -171.5 63.5t-75.5 173.5zM311 297q0 -62 48.5 -97.5t123.5 -35.5q56 0 90 10v336q-83 -30 -135 -55q-66 -34 -96.5 -70t-30.5 -88zM346 1102l90 194q49 104 90.5 142.5 t102.5 38.5q53 0 87 -35.5t34 -83.5q0 -56 -42.5 -99t-138.5 -92l-188 -96z" />
<glyph unicode="&#xe2;" horiz-adv-x="1019" d="M27 221q0 112 67 171t246 116q90 29 233 61v125q0 121 -41 167t-116 46q-29 0 -47 -6q-27 -164 -64 -225.5t-100 -61.5q-52 0 -88.5 34.5t-36.5 90.5q0 28 20.5 63t61.5 71.5t96 66.5t132 49t161 19q183 0 263.5 -70.5t80.5 -220.5v-570q0 -39 18 -59t50 -20q23 0 41 2 l10 -43q-93 -35 -215 -35q-82 0 -140 35.5t-81 101.5q-73 -74 -142 -109.5t-162 -35.5q-96 0 -171.5 63.5t-75.5 173.5zM184 1087l248 355h148l247 -355l-34 -32l-287 159l-287 -159zM311 297q0 -62 48.5 -97.5t123.5 -35.5q56 0 90 10v336q-83 -30 -135 -55 q-66 -34 -96.5 -70t-30.5 -88z" />
<glyph unicode="&#xe3;" horiz-adv-x="1019" d="M27 221q0 112 67 171t246 116q90 29 233 61v125q0 121 -41 167t-116 46q-29 0 -47 -6q-27 -164 -64 -225.5t-100 -61.5q-52 0 -88.5 34.5t-36.5 90.5q0 28 20.5 63t61.5 71.5t96 66.5t132 49t161 19q183 0 263.5 -70.5t80.5 -220.5v-570q0 -39 18 -59t50 -20q23 0 41 2 l10 -43q-93 -35 -215 -35q-82 0 -140 35.5t-81 101.5q-73 -74 -142 -109.5t-162 -35.5q-96 0 -171.5 63.5t-75.5 173.5zM168 1094q48 156 95.5 215t131.5 59q43 0 152 -18.5t149 -18.5q45 0 75 18.5t60 67.5l50 -22q-48 -156 -96 -215.5t-132 -59.5q-43 0 -151.5 18.5 t-149.5 18.5q-45 0 -75 -18.5t-60 -67.5zM311 297q0 -62 48.5 -97.5t123.5 -35.5q56 0 90 10v336q-83 -30 -135 -55q-66 -34 -96.5 -70t-30.5 -88z" />
<glyph unicode="&#xe4;" horiz-adv-x="1019" d="M27 221q0 112 67 171t246 116q90 29 233 61v125q0 121 -41 167t-116 46q-29 0 -47 -6q-27 -164 -64 -225.5t-100 -61.5q-52 0 -88.5 34.5t-36.5 90.5q0 28 20.5 63t61.5 71.5t96 66.5t132 49t161 19q183 0 263.5 -70.5t80.5 -220.5v-570q0 -39 18 -59t50 -20q23 0 41 2 l10 -43q-93 -35 -215 -35q-82 0 -140 35.5t-81 101.5q-73 -74 -142 -109.5t-162 -35.5q-96 0 -171.5 63.5t-75.5 173.5zM156 1229q0 65 44.5 109t110.5 44t111 -44t45 -109q0 -66 -45 -111t-111 -45t-110.5 45t-44.5 111zM311 297q0 -62 48.5 -97.5t123.5 -35.5q56 0 90 10 v336q-83 -30 -135 -55q-66 -34 -96.5 -70t-30.5 -88zM549 1229q0 65 45 109t111 44t110.5 -44t44.5 -109q0 -66 -44.5 -111t-110.5 -45t-111 45t-45 111z" />
<glyph unicode="&#xe5;" horiz-adv-x="1019" d="M27 221q0 112 67 171t246 116q90 29 233 61v125q0 121 -41 167t-116 46q-29 0 -47 -6q-27 -164 -64 -225.5t-100 -61.5q-52 0 -88.5 34.5t-36.5 90.5q0 28 20.5 63t61.5 71.5t96 66.5t132 49t161 19q183 0 263.5 -70.5t80.5 -220.5v-570q0 -39 18 -59t50 -20q23 0 41 2 l10 -43q-93 -35 -215 -35q-82 0 -140 35.5t-81 101.5q-73 -74 -142 -109.5t-162 -35.5q-96 0 -171.5 63.5t-75.5 173.5zM311 297q0 -62 48.5 -97.5t123.5 -35.5q56 0 90 10v336q-83 -30 -135 -55q-66 -34 -96.5 -70t-30.5 -88zM346 1249q0 71 50 120.5t122 49.5t122 -49.5 t50 -120.5q0 -72 -50 -122t-122 -50t-122 50t-50 122zM420 1247q0 -43 29 -74.5t69 -31.5t69 31.5t29 74.5t-28.5 76t-69.5 33t-69.5 -33t-28.5 -76z" />
<glyph unicode="&#xe6;" horiz-adv-x="1519" d="M27 221q0 112 67 171t246 116q95 30 213 57v129q0 124 -33 168.5t-104 44.5q-29 0 -47 -6q-27 -164 -64 -225.5t-100 -61.5q-52 0 -88.5 34.5t-36.5 90.5q0 36 33.5 81t90.5 87.5t147 71.5t190 29q90 0 144 -26.5t97 -80.5q64 57 128 86t155 29q205 0 305 -117.5 t103 -335.5h-629q10 -187 109 -294t253 -107q114 0 224 80l26 -33q-102 -119 -203.5 -173t-234.5 -54q-114 0 -209.5 43t-159.5 127q-97 -91 -175.5 -129.5t-178.5 -38.5q-115 0 -191.5 62.5t-76.5 174.5zM311 297q0 -63 49.5 -98t131.5 -35q62 0 126 33q-65 114 -65 268v37 q-64 -21 -115 -47q-66 -34 -96.5 -70t-30.5 -88zM842 641h311q-4 159 -40 230t-109 71t-115.5 -77t-46.5 -224z" />
<glyph unicode="&#xe7;" horiz-adv-x="991" d="M45 457q0 154 71.5 282.5t195.5 202.5t272 74q153 0 248.5 -53t95.5 -140q0 -73 -46.5 -117t-111.5 -44q-80 0 -119 58.5t-65 219.5q-2 0 -10 1t-11 1q-99 0 -157 -85t-58 -247q0 -215 92.5 -331.5t251.5 -116.5q64 0 113.5 12.5t110.5 44.5l24 -35 q-94 -100 -192.5 -149.5t-229.5 -52.5l-31 -43q187 -12 187 -111q0 -69 -89.5 -121.5t-193.5 -52.5q-114 0 -114 63q0 25 17 45.5t42 20.5q56 0 127 -80q59 21 59 68q0 27 -30 43t-105 20l-18 21l88 129q-183 15 -298.5 144t-115.5 329z" />
<glyph unicode="&#xe8;" horiz-adv-x="1032" d="M45 465q0 122 44.5 227t118 175t167.5 109.5t192 39.5q211 0 313 -117.5t105 -335.5h-649q10 -187 109 -294t253 -107q134 0 244 80l27 -33q-101 -118 -210 -172.5t-249 -54.5q-129 0 -233 54.5t-168 165.5t-64 263zM291 1358q0 48 34 83.5t87 35.5q61 0 102 -38t90 -143 l90 -194l-35 -31l-188 96q-96 48 -138 91.5t-42 99.5zM334 641h332q-4 158 -43.5 229.5t-116.5 71.5q-78 0 -123 -77t-49 -224z" />
<glyph unicode="&#xe9;" horiz-adv-x="1032" d="M45 465q0 122 44.5 227t118 175t167.5 109.5t192 39.5q211 0 313 -117.5t105 -335.5h-649q10 -187 109 -294t253 -107q134 0 244 80l27 -33q-101 -118 -210 -172.5t-249 -54.5q-129 0 -233 54.5t-168 165.5t-64 263zM334 641h332q-4 158 -43.5 229.5t-116.5 71.5 q-78 0 -123 -77t-49 -224zM391 1102l90 194q49 104 90.5 142.5t102.5 38.5q53 0 87 -35.5t34 -83.5q0 -56 -42.5 -99t-138.5 -92l-188 -96z" />
<glyph unicode="&#xea;" horiz-adv-x="1032" d="M45 465q0 122 44.5 227t118 175t167.5 109.5t192 39.5q211 0 313 -117.5t105 -335.5h-649q10 -187 109 -294t253 -107q134 0 244 80l27 -33q-101 -118 -210 -172.5t-249 -54.5q-129 0 -233 54.5t-168 165.5t-64 263zM221 1087l248 355h147l248 -355l-35 -32l-286 159 l-287 -159zM334 641h332q-4 158 -43.5 229.5t-116.5 71.5q-78 0 -123 -77t-49 -224z" />
<glyph unicode="&#xeb;" horiz-adv-x="1032" d="M45 465q0 122 44.5 227t118 175t167.5 109.5t192 39.5q211 0 313 -117.5t105 -335.5h-649q10 -187 109 -294t253 -107q134 0 244 80l27 -33q-101 -118 -210 -172.5t-249 -54.5q-129 0 -233 54.5t-168 165.5t-64 263zM182 1239q0 65 45 109.5t111 44.5t111 -44.5 t45 -109.5q0 -66 -45 -111t-111 -45t-111 45t-45 111zM334 641h332q-4 158 -43.5 229.5t-116.5 71.5q-78 0 -123 -77t-49 -224zM575 1239q0 65 45 109.5t111 44.5t111 -44.5t45 -109.5q0 -66 -45 -111t-111 -45t-111 45t-45 111z" />
<glyph unicode="&#xec;" horiz-adv-x="612" d="M-12 1358q0 48 34 83.5t87 35.5q61 0 102 -38t90 -143l90 -194l-35 -31l-188 96q-96 48 -138 91.5t-42 99.5zM29 -2v41l37 8q36 7 53 28t25 75.5t8 166.5v355q0 86 -17 123.5t-67 68.5l-39 25v33l407 84l37 -25v-664q0 -112 8 -166.5t25 -75.5t53 -28l37 -8v-41 q-16 0 -121 1t-153 1t-162.5 -1t-130.5 -1z" />
<glyph unicode="&#xed;" horiz-adv-x="612" d="M29 -2v41l37 8q36 7 53 28t25 75.5t8 166.5v355q0 86 -17 123.5t-67 68.5l-39 25v33l407 84l37 -25v-664q0 -112 8 -166.5t25 -75.5t53 -28l37 -8v-41q-16 0 -121 1t-153 1t-162.5 -1t-130.5 -1zM197 1102l90 194q49 105 90 143t102 38q53 0 87 -35.5t34 -83.5 q0 -56 -42 -99.5t-138 -91.5l-189 -96z" />
<glyph unicode="&#xee;" horiz-adv-x="612" d="M-16 1094l247 354h148l248 -354l-35 -33l-287 160l-287 -160zM29 -2v41l37 8q36 7 53 28t25 75.5t8 166.5v355q0 86 -17 123.5t-67 68.5l-39 25v33l407 84l37 -25v-664q0 -112 8 -166.5t25 -75.5t53 -28l37 -8v-41q-16 0 -121 1t-153 1t-162.5 -1t-130.5 -1z" />
<glyph unicode="&#xef;" horiz-adv-x="612" d="M-45 1229q0 65 45 109t111 44t110.5 -44t44.5 -109q0 -66 -44.5 -111t-110.5 -45t-111 45t-45 111zM29 -2v41l37 8q36 7 53 28t25 75.5t8 166.5v355q0 86 -17 123.5t-67 68.5l-39 25v33l407 84l37 -25v-664q0 -112 8 -166.5t25 -75.5t53 -28l37 -8v-41q-16 0 -121 1 t-153 1t-162.5 -1t-130.5 -1zM348 1229q0 65 45 109t111 44t110.5 -44t44.5 -109q0 -66 -44.5 -111t-110.5 -45t-111 45t-45 111z" />
<glyph unicode="&#xf0;" horiz-adv-x="1155" d="M45 504q0 136 62 249.5t165.5 177.5t223.5 64q93 0 150 -20.5t110 -63.5q-31 170 -154 322l-145 -141l-54 51l150 145q-83 86 -182 148l35 51q117 -59 219 -129l133 129l53 -51l-125 -121q424 -316 424 -764q0 -265 -143 -417t-392 -152q-245 0 -387.5 137.5 t-142.5 384.5zM389 584q0 -529 209 -529q89 0 128.5 80t39.5 279q0 508 -213 508q-88 0 -126 -78.5t-38 -259.5z" />
<glyph unicode="&#xf1;" horiz-adv-x="1204" d="M20 -2v41l37 8q36 7 53 28t25 75.5t8 166.5v361q0 86 -17 123.5t-67 68.5l-39 25v33l408 84l37 -25v-129q181 150 344 150q133 0 201.5 -77t68.5 -229v-385q0 -115 8.5 -169t26 -73.5t57.5 -29.5l25 -6v-41q-15 0 -123.5 1t-157.5 1q-46 0 -150 -1t-124 -1v41l25 6 q39 9 57.5 29.5t26.5 66.5t8 138v354q0 196 -160 196q-65 0 -133 -22v-528q0 -92 8 -138t26.5 -66.5t57.5 -29.5l25 -6v-41q-19 0 -125 1t-154 1t-157.5 -1t-125.5 -1zM276 1094q48 156 96 215t132 59q44 0 152.5 -18.5t148.5 -18.5q45 0 75 18.5t60 67.5l49 -22 q-49 -157 -96 -216t-131 -59q-44 0 -152 18.5t-149 18.5q-45 0 -75 -18.5t-60 -67.5z" />
<glyph unicode="&#xf2;" horiz-adv-x="1155" d="M45 504q0 141 63.5 256.5t187 185.5t284.5 70q245 0 387.5 -137.5t142.5 -384.5q0 -141 -63.5 -256.5t-187 -185.5t-284.5 -70q-245 0 -387.5 137.5t-142.5 384.5zM313 1358q0 48 34 83.5t87 35.5q61 0 102.5 -38.5t90.5 -142.5l90 -194l-35 -31l-188 96 q-96 49 -138.5 92t-42.5 99zM389 584q0 -529 209 -529q89 0 128.5 80t39.5 279q0 528 -209 528q-89 0 -128.5 -79.5t-39.5 -278.5z" />
<glyph unicode="&#xf3;" horiz-adv-x="1155" d="M45 504q0 141 63.5 256.5t187 185.5t284.5 70q245 0 387.5 -137.5t142.5 -384.5q0 -141 -63.5 -256.5t-187 -185.5t-284.5 -70q-245 0 -387.5 137.5t-142.5 384.5zM389 584q0 -529 209 -529q89 0 128.5 80t39.5 279q0 528 -209 528q-89 0 -128.5 -79.5t-39.5 -278.5z M444 1102l91 194q49 105 90 143t102 38q53 0 87 -35.5t34 -83.5q0 -56 -42 -99.5t-138 -91.5l-189 -96z" />
<glyph unicode="&#xf4;" horiz-adv-x="1155" d="M45 504q0 141 63.5 256.5t187 185.5t284.5 70q245 0 387.5 -137.5t142.5 -384.5q0 -141 -63.5 -256.5t-187 -185.5t-284.5 -70q-245 0 -387.5 137.5t-142.5 384.5zM254 1087l248 355h147l248 -355l-35 -32l-287 159l-286 -159zM389 584q0 -529 209 -529q89 0 128.5 80 t39.5 279q0 528 -209 528q-89 0 -128.5 -79.5t-39.5 -278.5z" />
<glyph unicode="&#xf5;" horiz-adv-x="1155" d="M45 504q0 141 63.5 256.5t187 185.5t284.5 70q245 0 387.5 -137.5t142.5 -384.5q0 -141 -63.5 -256.5t-187 -185.5t-284.5 -70q-245 0 -387.5 137.5t-142.5 384.5zM225 1094q48 156 96 215t132 59q43 0 152 -18.5t149 -18.5q45 0 75 18.5t60 67.5l49 -22 q-49 -157 -96 -216t-131 -59q-43 0 -152 18.5t-149 18.5q-45 0 -75.5 -18.5t-60.5 -67.5zM389 584q0 -529 209 -529q89 0 128.5 80t39.5 279q0 528 -209 528q-89 0 -128.5 -79.5t-39.5 -278.5z" />
<glyph unicode="&#xf6;" horiz-adv-x="1155" d="M45 504q0 141 63.5 256.5t187 185.5t284.5 70q245 0 387.5 -137.5t142.5 -384.5q0 -141 -63.5 -256.5t-187 -185.5t-284.5 -70q-245 0 -387.5 137.5t-142.5 384.5zM225 1239q0 65 45 109.5t111 44.5t111 -44.5t45 -109.5q0 -66 -45 -111t-111 -45t-111 45t-45 111z M389 584q0 -529 209 -529q89 0 128.5 80t39.5 279q0 528 -209 528q-89 0 -128.5 -79.5t-39.5 -278.5zM618 1239q0 65 45 109.5t111 44.5t111 -44.5t45 -109.5q0 -66 -45 -111t-111 -45t-111 45t-45 111z" />
<glyph unicode="&#xf7;" horiz-adv-x="921" d="M61 655v107h799v-107h-799zM338 367q0 51 36 86.5t87 35.5t87 -35.5t36 -86.5t-36 -87t-87 -36t-87 36t-36 87zM338 1051q0 51 36 87t87 36t87 -36t36 -87t-36 -87t-87 -36t-87 36t-36 87z" />
<glyph unicode="&#xf8;" horiz-adv-x="1155" d="M45 504q0 141 63.5 256.5t187 185.5t284.5 70q197 0 333 -94l115 127l55 -48l-112 -127q139 -139 139 -380q0 -141 -63.5 -256.5t-187 -185.5t-284.5 -70q-197 0 -333 94l-115 -127l-55 47l112 125q-139 142 -139 383zM383 584q0 -130 16 -242l338 401q-52 199 -180 199 q-90 0 -132 -80.5t-42 -277.5zM418 254q52 -199 180 -199q90 0 132 80.5t42 278.5q0 129 -16 241z" />
<glyph unicode="&#xf9;" horiz-adv-x="1189" d="M6 889v33l408 84l37 -25v-616q0 -197 159 -197q65 0 133 22v461q0 86 -23 131t-81 82l-39 25v33l428 84l37 -25v-664q0 -115 8.5 -169t26 -73.5t57.5 -29.5l25 -6v-41q-15 0 -183 -1t-217 -1l-39 143q-179 -149 -344 -149q-133 0 -201.5 77t-68.5 228v377q0 86 -17 123.5 t-67 68.5zM264 1358q0 48 34 83.5t87 35.5q61 0 102.5 -38.5t90.5 -142.5l90 -194l-35 -31l-189 96q-96 48 -138 91.5t-42 99.5z" />
<glyph unicode="&#xfa;" horiz-adv-x="1189" d="M6 889v33l408 84l37 -25v-616q0 -197 159 -197q65 0 133 22v461q0 86 -23 131t-81 82l-39 25v33l428 84l37 -25v-664q0 -115 8.5 -169t26 -73.5t57.5 -29.5l25 -6v-41q-15 0 -183 -1t-217 -1l-39 143q-179 -149 -344 -149q-133 0 -201.5 77t-68.5 228v377q0 86 -17 123.5 t-67 68.5zM498 1102l90 194q49 105 90 143t102 38q53 0 87 -35.5t34 -83.5q0 -56 -42 -99.5t-138 -91.5l-189 -96z" />
<glyph unicode="&#xfb;" horiz-adv-x="1189" d="M6 889v33l408 84l37 -25v-616q0 -197 159 -197q65 0 133 22v461q0 86 -23 131t-81 82l-39 25v33l428 84l37 -25v-664q0 -115 8.5 -169t26 -73.5t57.5 -29.5l25 -6v-41q-15 0 -183 -1t-217 -1l-39 143q-179 -149 -344 -149q-133 0 -201.5 77t-68.5 228v377q0 86 -17 123.5 t-67 68.5zM266 1094l248 354h148l247 -354l-35 -33l-286 160l-287 -160z" />
<glyph unicode="&#xfc;" horiz-adv-x="1189" d="M6 889v33l408 84l37 -25v-616q0 -197 159 -197q65 0 133 22v461q0 86 -23 131t-81 82l-39 25v33l428 84l37 -25v-664q0 -115 8.5 -169t26 -73.5t57.5 -29.5l25 -6v-41q-15 0 -183 -1t-217 -1l-39 143q-179 -149 -344 -149q-133 0 -201.5 77t-68.5 228v377q0 86 -17 123.5 t-67 68.5zM238 1229q0 65 44.5 109t110.5 44t111 -44t45 -109q0 -66 -45 -111t-111 -45t-110.5 45t-44.5 111zM631 1229q0 65 44.5 109t110.5 44t111 -44t45 -109q0 -66 -45 -111t-111 -45t-110.5 45t-44.5 111z" />
<glyph unicode="&#xfd;" horiz-adv-x="1159" d="M-20 946v41q20 0 141.5 -1t169.5 -1t171 1t140 1v-41l-29 -6q-79 -16 -79 -68q0 -53 22 -108l178 -451l140 369q45 113 45 172q0 62 -91 84l-32 8v41q19 0 95.5 -1t123.5 -1q48 0 117 1t88 1v-41l-27 -6q-58 -13 -96.5 -61.5t-100.5 -184.5l-385 -850 q-65 -143 -134.5 -207.5t-155.5 -64.5q-56 0 -89.5 43.5t-33.5 99.5q0 67 73.5 99t231.5 32q39 53 82 138l-336 708q-71 146 -105 188.5t-100 59.5zM547 1102l90 194q49 105 90 143t102 38q53 0 87 -35.5t34 -83.5q0 -56 -42 -99.5t-138 -91.5l-188 -96z" />
<glyph unicode="&#xfe;" horiz-adv-x="1171" d="M-35 -387l37 8q29 6 46.5 17.5t33.5 39.5t23.5 80t7.5 133v1262q0 86 -17 124t-67 69l-39 24v33l407 84l37 -25v-594q72 72 135 106t150 34q175 0 287 -126t112 -333q0 -265 -154 -412t-413 -147q-62 0 -117 10v-109q0 -79 11.5 -132.5t34 -81t44 -39t51.5 -17.5l37 -8 v-41q-28 0 -154 1t-171 1q-48 0 -173.5 -1t-148.5 -1v41zM434 330q0 -134 47 -200.5t131 -66.5q191 0 191 326q0 211 -77 330t-202 119q-44 0 -90 -19v-489z" />
<glyph unicode="&#xff;" horiz-adv-x="1159" d="M-20 946v41q20 0 141.5 -1t169.5 -1t171 1t140 1v-41l-29 -6q-79 -16 -79 -68q0 -53 22 -108l178 -451l140 369q45 113 45 172q0 62 -91 84l-32 8v41q19 0 95.5 -1t123.5 -1q48 0 117 1t88 1v-41l-27 -6q-58 -13 -96.5 -61.5t-100.5 -184.5l-385 -850 q-65 -143 -134.5 -207.5t-155.5 -64.5q-56 0 -89.5 43.5t-33.5 99.5q0 67 73.5 99t231.5 32q39 53 82 138l-336 708q-71 146 -105 188.5t-100 59.5zM303 1229q0 65 45 109t111 44t110.5 -44t44.5 -109q0 -66 -44.5 -111t-110.5 -45t-111 45t-45 111zM696 1229q0 65 45 109 t111 44t111 -44t45 -109q0 -66 -45 -111t-111 -45t-111 45t-45 111z" />
<glyph unicode="&#x152;" horiz-adv-x="2097" d="M68 705q0 220 102 380t278.5 240t405.5 80q109 0 231 -3t160 -3q42 0 295.5 1t267.5 1h164l64 -346h-45l-72 94q-70 93 -147.5 133.5t-200.5 40.5h-19q-77 0 -166 -14v-541l109 4q89 3 142 13t83 34t41 52.5t17 80.5l2 19h49q0 -19 -2 -111t-2 -133q0 -42 2 -140.5 t2 -115.5h-49l-2 18q-6 53 -16 82t-39 54.5t-83 37t-145 15.5l-109 4v-356q0 -84 7 -130t31 -75.5t62.5 -38t108.5 -8.5h27q120 0 195 41t163 155l58 74h45l-66 -344h-213q-63 0 -269 1t-237 1q-38 0 -184 -2t-194 -2q-257 0 -448.5 83.5t-297.5 244t-106 379.5zM444 721 q0 -323 124.5 -486t385.5 -163q51 0 97 4v1009q0 141 -46 195.5t-169 54.5q-183 0 -287.5 -155.5t-104.5 -458.5z" />
<glyph unicode="&#x153;" horiz-adv-x="1712" d="M45 504q0 105 36.5 198t102.5 163t167 110.5t222 40.5q117 0 200 -37t155 -109q136 146 329 146q205 0 305 -117.5t103 -335.5h-629q10 -187 109.5 -294t253.5 -107q59 0 110.5 18t112.5 62l27 -33q-102 -119 -204 -173t-235 -54q-183 0 -309 129q-72 -61 -149.5 -95 t-190.5 -34q-244 0 -380 137t-136 385zM389 584q0 -171 18 -285t62 -179t115 -65q88 0 124.5 79t36.5 280q0 260 -45 394t-149 134q-88 0 -125 -78.5t-37 -279.5zM1034 641h312q-4 159 -40.5 230t-109.5 71q-72 0 -115 -74.5t-47 -226.5z" />
<glyph unicode="&#x178;" horiz-adv-x="1519" d="M-33 1362v41q15 0 161 -2t187 -2q40 0 225 2t199 2v-41l-43 -8q-110 -20 -110 -84q0 -37 45 -117l266 -475l227 434q47 90 47 150q0 33 -27 56.5t-77 33.5l-49 10v41q15 0 131.5 -2t159.5 -2q41 0 134.5 2t108.5 2v-41l-34 -8q-52 -12 -88.5 -31t-70 -55.5t-58.5 -74.5 t-66 -110l-289 -503v-158q0 -85 1.5 -134.5t8 -93t15 -64t28 -38t41 -24.5t60.5 -15l67 -14v-41q-15 0 -181.5 2t-207.5 2t-207.5 -2t-181.5 -2v41l68 14q38 8 59.5 15t41.5 24.5t28 38t14.5 64t8 93t1.5 134.5v131l-379 614q-54 84 -102.5 125.5t-120.5 59.5zM487 1618 q0 65 45 109.5t111 44.5t111 -44.5t45 -109.5q0 -66 -45 -111t-111 -45t-111 45t-45 111zM881 1618q0 65 44.5 109.5t110.5 44.5t111 -44.5t45 -109.5q0 -66 -45 -111t-111 -45t-110.5 45t-44.5 111z" />
<glyph unicode="&#x2c6;" horiz-adv-x="1024" d="M190 1094l248 354h148l248 -354l-35 -33l-287 160l-287 -160z" />
<glyph unicode="&#x2dc;" horiz-adv-x="1024" d="M156 1094q48 156 95.5 215t131.5 59q43 0 152 -18.5t149 -18.5q45 0 75 18.5t60 67.5l49 -22q-49 -157 -96 -216t-131 -59q-43 0 -152 18.5t-149 18.5q-45 0 -75 -18.5t-60 -67.5z" />
<glyph unicode="&#x2000;" horiz-adv-x="943" />
<glyph unicode="&#x2001;" horiz-adv-x="1886" />
<glyph unicode="&#x2002;" horiz-adv-x="943" />
<glyph unicode="&#x2003;" horiz-adv-x="1886" />
<glyph unicode="&#x2004;" horiz-adv-x="628" />
<glyph unicode="&#x2005;" horiz-adv-x="471" />
<glyph unicode="&#x2006;" horiz-adv-x="314" />
<glyph unicode="&#x2007;" horiz-adv-x="314" />
<glyph unicode="&#x2008;" horiz-adv-x="235" />
<glyph unicode="&#x2009;" horiz-adv-x="377" />
<glyph unicode="&#x200a;" horiz-adv-x="104" />
<glyph unicode="&#x2010;" horiz-adv-x="696" d="M51 451v262h594v-262h-594z" />
<glyph unicode="&#x2011;" horiz-adv-x="696" d="M51 451v262h594v-262h-594z" />
<glyph unicode="&#x2012;" horiz-adv-x="696" d="M51 451v262h594v-262h-594z" />
<glyph unicode="&#x2013;" horiz-adv-x="1024" d="M51 496v168h922v-168h-922z" />
<glyph unicode="&#x2014;" horiz-adv-x="2048" d="M51 500v159h1946v-159h-1946z" />
<glyph unicode="&#x2018;" horiz-adv-x="512" d="M53 973q0 110 88.5 228.5t225.5 221.5l32 -34q-63 -64 -109.5 -152t-47.5 -154q88 -47 131 -94t43 -106q0 -63 -44.5 -103.5t-113.5 -40.5q-85 0 -145 65t-60 169z" />
<glyph unicode="&#x2019;" horiz-adv-x="512" d="M86 1270q0 63 44.5 103t113.5 40q85 0 145 -64.5t60 -168.5q0 -110 -88.5 -229t-225.5 -222l-33 35q63 65 110 152t48 153q-87 46 -130.5 94t-43.5 107z" />
<glyph unicode="&#x201a;" horiz-adv-x="512" d="M68 215q0 63 44 103t113 40q85 0 145 -64.5t60 -168.5q0 -110 -88.5 -229t-224.5 -222l-33 35q63 65 110 152t48 153q-87 46 -130.5 94t-43.5 107z" />
<glyph unicode="&#x201c;" horiz-adv-x="962" d="M53 973q0 110 88.5 228.5t225.5 221.5l32 -34q-63 -64 -109.5 -152t-47.5 -154q88 -47 131 -94t43 -106q0 -63 -44.5 -103.5t-113.5 -40.5q-85 0 -145 65t-60 169zM504 973q0 110 88 228.5t225 221.5l33 -34q-63 -65 -110 -152.5t-48 -153.5q88 -47 131 -94t43 -106 q0 -63 -44 -103.5t-113 -40.5q-85 0 -145 65t-60 169z" />
<glyph unicode="&#x201d;" horiz-adv-x="962" d="M86 1270q0 63 44.5 103t113.5 40q85 0 145 -64.5t60 -168.5q0 -110 -88.5 -229t-225.5 -222l-33 35q63 65 110 152t48 153q-87 46 -130.5 94t-43.5 107zM537 1270q0 63 44 103t113 40q85 0 145 -64.5t60 -168.5q0 -110 -88.5 -229t-224.5 -222l-33 35q63 65 110 152 t48 153q-87 46 -130.5 94t-43.5 107z" />
<glyph unicode="&#x201e;" horiz-adv-x="962" d="M68 215q0 63 44 103t113 40q85 0 145 -64.5t60 -168.5q0 -110 -88.5 -229t-224.5 -222l-33 35q63 65 110 152t48 153q-87 46 -130.5 94t-43.5 107zM518 215q0 63 44.5 103t113.5 40q85 0 145 -64.5t60 -168.5q0 -110 -88.5 -229t-225.5 -222l-32 35q63 64 109.5 151.5 t47.5 153.5q-87 46 -130.5 94t-43.5 107z" />
<glyph unicode="&#x2022;" horiz-adv-x="983" d="M123 692q0 152 108.5 260.5t260.5 108.5t260 -108.5t108 -260.5t-108 -260t-260 -108t-260.5 108t-108.5 260z" />
<glyph unicode="&#x2026;" horiz-adv-x="1519" d="M70 166q0 74 53 127t127 53t127 -53t53 -127t-53 -127t-127 -53t-127 53t-53 127zM580 166q0 74 53 127t127 53t127 -53t53 -127t-53 -127t-127 -53t-127 53t-53 127zM1090 166q0 74 53 127t127 53t127 -53t53 -127t-53 -127t-127 -53t-127 53t-53 127z" />
<glyph unicode="&#x202f;" horiz-adv-x="377" />
<glyph unicode="&#x2039;" horiz-adv-x="618" d="M29 500l501 512l43 -25l-237 -487l237 -488l-43 -24z" />
<glyph unicode="&#x203a;" horiz-adv-x="618" d="M45 12l238 488l-238 487l43 25l502 -512l-502 -512z" />
<glyph unicode="&#x205f;" horiz-adv-x="471" />
<glyph unicode="&#x2122;" horiz-adv-x="1392" d="M55 1235l13 180h34q14 -11 52 -14.5t176 -3.5q145 0 184 3.5t53 14.5h37l-29 -180h-30l-17 51q-8 33 -27 48t-59 16l-47 2v-322q0 -81 7.5 -100.5t43.5 -26.5l31 -8v-29h-151h-152v29l31 8q35 9 43 28.5t8 98.5v322h-35q-45 -1 -67.5 -17t-38.5 -51l-27 -49h-33zM625 866 v29l14 4q35 7 46 31t17 100l13 203q6 76 -2.5 100.5t-40.5 30.5l-31 8v29h102h99l145 -344l148 344h71h123v-29l-33 -8q-30 -6 -36 -28t-3 -103l13 -215q3 -71 11 -92t36 -25l26 -6v-29h-137h-143v29l37 8q27 6 32.5 25.5t2.5 91.5l-13 217l-159 -375h-31l-166 373l-6 -203 q-4 -76 6 -100t49 -33l12 -4v-29h-102h-100z" />
<glyph unicode="&#x25fc;" horiz-adv-x="993" d="M0 0v993h993v-993h-993z" />
<glyph unicode="&#xfb01;" horiz-adv-x="1218" d="M-10 877v59l153 65v7q0 131 79 244.5t211 179t282 65.5t242 -57.5t92 -130.5q0 -59 -53.5 -113.5t-114.5 -54.5q-70 0 -119 57t-94 197h-9q-194 0 -194 -324v-84h487l90 19l37 -25v-664q0 -112 8 -166.5t25 -75.5t53 -28l37 -8v-41q-16 0 -119 1t-151 1t-161.5 -1 t-129.5 -1v41l25 6q39 9 57.5 29.5t26.5 66.5t8 138v421q0 95 -36.5 136t-123.5 41h-133v-598q0 -92 8 -138t26.5 -66.5t57.5 -29.5l25 -6v-41q-19 0 -129 1t-158 1t-153.5 -1t-121.5 -1v41l37 8q36 7 53 28t25 75.5t8 166.5v560h-153z" />
<glyph unicode="&#xfb02;" horiz-adv-x="1218" d="M-10 877v59l153 65v7q0 92 42.5 181.5t113.5 157t170 109t205 41.5q163 0 278 -63l90 53l37 -25v-1145q0 -112 8 -166.5t25 -75.5t53 -28l37 -8v-41q-16 0 -121 1t-153 1t-159.5 -1t-127.5 -1v41l25 6q39 9 57.5 29.5t26.5 66.5t8 138v598h-293v-598q0 -92 8 -138 t26.5 -66.5t57.5 -29.5l25 -6v-41q-19 0 -129 1t-158 1t-153.5 -1t-121.5 -1v41l37 8q36 7 53 28t25 75.5t8 166.5v560h-153zM465 987h293v191q0 101 -34.5 159t-107.5 58q-47 0 -78.5 -24t-46.5 -69.5t-20.5 -92.5t-5.5 -111v-111z" />
</font>
</defs>
</svg>
