<?xml version="1.0" standalone="no"?>
<!DOCTYPE svg PUBLIC "-//W3C//DTD SVG 1.1//EN" "http://www.w3.org/Graphics/SVG/1.1/DTD/svg11.dtd" >
<svg xmlns="http://www.w3.org/2000/svg">
<metadata></metadata>
<defs>
<font id="poynterosdisplayroman" horiz-adv-x="1597" >
<font-face units-per-em="2048" ascent="1638" descent="-410" />
<missing-glyph horiz-adv-x="512" />
<glyph horiz-adv-x="0" />
<glyph horiz-adv-x="682" />
<glyph unicode=" "  horiz-adv-x="512" />
<glyph unicode="&#x09;" horiz-adv-x="512" />
<glyph unicode="&#xa0;" horiz-adv-x="512" />
<glyph unicode="!" horiz-adv-x="491" d="M135 100q0 46 32 78.5t79 32.5t78.5 -32.5t31.5 -78.5t-31.5 -78t-78.5 -32t-79 32t-32 78zM152 1315q-4 59 17 79.5t77 20.5t77 -20.5t17 -79.5l-82 -957h-25z" />
<glyph unicode="&#x22;" horiz-adv-x="768" d="M131 1300q-11 56 7 83.5t77 27.5t77 -27.5t7 -83.5l-74 -368h-20zM469 1300q-11 56 7 83.5t77 27.5t77 -27.5t7 -83.5l-74 -368h-20z" />
<glyph unicode="#" horiz-adv-x="1116" d="M72 373v139h221l53 377h-227v139h246l53 379h39l-54 -379h402l53 379h39l-53 -379h200v-139h-221l-53 -377h227v-139h-245l-54 -379h-39l54 379h-402l-53 -379h-39l53 379h-200zM330 512h403l53 377h-403z" />
<glyph unicode="$" horiz-adv-x="962" d="M61 336h25l23 -60q47 -126 118 -182t185 -61l41 602q-185 57 -273 150t-88 245q0 166 118.5 267t293.5 106l10 156l39 -5l-10 -151q155 -5 274 -68l23 -270h-25l-22 59q-42 113 -102 174t-150 68l-39 -567q209 -62 297 -156.5t88 -247.5q0 -91 -37 -166.5t-99 -124 t-140 -76.5t-162 -30l-15 -213l-39 4l15 209q-192 3 -326 68zM215 1096q0 -113 55.5 -177t192.5 -108l39 557q-140 -3 -213.5 -80t-73.5 -192zM451 33q137 5 225 84.5t88 212.5q0 118 -60.5 181.5t-214.5 111.5z" />
<glyph unicode="%" horiz-adv-x="1556" d="M80 1001q0 182 89 300t228 118q128 0 212.5 -106t84.5 -293q0 -182 -89 -300t-228 -118q-128 0 -212.5 106t-84.5 293zM213 1028q0 -174 46.5 -283.5t137.5 -109.5q164 0 164 358q0 174 -46.5 283.5t-137.5 109.5q-164 0 -164 -358zM317 10l887 1401l35 -20l-887 -1401z M862 381q0 182 89.5 300t228.5 118q128 0 212.5 -106.5t84.5 -293.5q0 -182 -89.5 -299.5t-228.5 -117.5q-128 0 -212.5 106t-84.5 293zM995 408q0 -174 47 -284t138 -110q163 0 163 359q0 174 -46.5 283.5t-137.5 109.5q-164 0 -164 -358z" />
<glyph unicode="&#x26;" horiz-adv-x="1566" d="M74 395q0 154 85 272t279 224q-184 106 -184 264q0 112 86 192t223 80q120 0 191 -57t71 -149q0 -78 -53.5 -141t-157.5 -124q116 -67 233.5 -198t213.5 -299q196 317 196 409q0 55 -90 66l-55 6v23q19 0 88 -1t119 -1t108.5 1t79.5 1v-23l-37 -6q-108 -15 -176 -141 q-95 -171 -215 -367q40 -70 56 -107q51 -108 92 -157t90.5 -66.5t140.5 -17.5q70 0 101 2l2 -19q-185 -79 -295 -79q-86 0 -134 50t-116 191l-31 62q-120 -167 -236.5 -239.5t-265.5 -72.5q-104 0 -196.5 51.5t-152.5 150t-60 220.5zM209 457q0 -158 103 -268.5t259 -110.5 q125 0 215 54.5t183 184.5q-102 192 -219.5 331t-282.5 229q-140 -85 -199 -183.5t-59 -236.5zM350 1231q0 -82 46 -132.5t190 -127.5q69 45 98 95.5t29 119.5q0 97 -54.5 154t-140.5 57q-72 0 -120 -48.5t-48 -117.5z" />
<glyph unicode="'" horiz-adv-x="430" d="M131 1300q-11 56 7 83.5t77 27.5t77 -27.5t7 -83.5l-74 -368h-20z" />
<glyph unicode="(" horiz-adv-x="737" d="M129 672q0 271 132.5 488.5t385.5 371.5l17 -21q-194 -137 -283.5 -334t-89.5 -503q0 -307 89.5 -505t283.5 -335l-17 -20q-253 154 -385.5 370.5t-132.5 487.5z" />
<glyph unicode=")" horiz-adv-x="737" d="M74 -166q193 137 282.5 334.5t89.5 503.5q0 308 -89.5 505t-282.5 334l16 21q253 -154 385.5 -370.5t132.5 -487.5t-132.5 -488.5t-385.5 -371.5z" />
<glyph unicode="*" horiz-adv-x="708" d="M98 993l195 137l-195 138l8 14l216 -102l24 237h16l25 -237l215 102l8 -14l-194 -138l194 -137l-8 -14l-215 102l-25 -237h-16l-24 237l-216 -102z" />
<glyph unicode="+" horiz-adv-x="921" d="M61 688v41h377v377h45v-377h377v-41h-377v-377h-45v377h-377z" />
<glyph unicode="," horiz-adv-x="430" d="M90 -250q75 53 114.5 116t39.5 124q-86 39 -118 71t-32 74q0 33 22.5 55.5t57.5 22.5q61 0 104.5 -48t43.5 -124q0 -88 -59.5 -168.5t-162.5 -140.5z" />
<glyph unicode="-" horiz-adv-x="675" d="M76 532v70h524v-70h-524z" />
<glyph unicode="." horiz-adv-x="430" d="M104 100q0 46 32 78.5t79 32.5t79 -32.5t32 -78.5t-32 -78t-79 -32t-79 32t-32 78z" />
<glyph unicode="/" horiz-adv-x="860" d="M37 -6l747 1433l39 -18l-747 -1434z" />
<glyph unicode="0" horiz-adv-x="1146" d="M94 700q0 207 56.5 371t166.5 260t256 96q120 0 213 -56t150.5 -155t87 -229.5t29.5 -286.5q0 -207 -57 -371t-167 -260t-256 -96q-120 0 -213 56t-150 155t-86.5 229.5t-29.5 286.5zM274 741q0 -735 318 -735q280 0 280 653q0 736 -317 736q-281 0 -281 -654z" />
<glyph unicode="1" horiz-adv-x="647" d="M29 -2v22l80 11q66 8 96.5 29.5t43.5 73t13 159.5v780q0 156 -33 203t-145 47h-55v25q197 12 372 69l19 -12v-1112q0 -107 13 -159.5t41.5 -73t88.5 -29.5l70 -11v-22q-15 0 -131 2t-160 2t-171 -2t-142 -2z" />
<glyph unicode="2" horiz-adv-x="983" d="M35 20l379 422q173 194 241 320.5t68 265.5q0 125 -76 203t-209 78q-108 0 -188 -59.5t-168 -188.5l-25 14q89 173 200 262.5t259 89.5q157 0 253.5 -92.5t96.5 -253.5q0 -53 -8.5 -100t-31.5 -95.5t-45 -86.5t-68 -94t-80.5 -94.5t-100.5 -110.5l-346 -375h326 q116 0 177.5 14t103.5 51t88 117l39 68h20l-123 -375h-768z" />
<glyph unicode="3" horiz-adv-x="909" d="M45 92q0 38 25 60t61 22q56 0 103 -33t104 -108q151 13 259 117t108 264q0 138 -81 209t-223 71q-92 0 -192 -47l-21 35q144 79 235.5 141t140 116t66 98t17.5 98q0 85 -58 136.5t-165 51.5q-96 0 -177 -41.5t-169 -122.5l-21 23q205 248 451 248q132 0 209.5 -65 t77.5 -179q0 -97 -75 -185.5t-239 -189.5q163 -9 253.5 -88t90.5 -217q0 -99 -37 -186t-97.5 -149t-137.5 -107t-157 -67t-156 -22q-93 0 -144 32t-51 85z" />
<glyph unicode="4" horiz-adv-x="1064" d="M20 424l732 987h73v-940h226v-68h-226v-413h-149v413h-641zM111 471h565v762z" />
<glyph unicode="5" horiz-adv-x="864" d="M43 84q0 39 26.5 61.5t73.5 22.5q51 0 96.5 -29t112.5 -96q153 38 248.5 150.5t95.5 267.5q0 185 -146.5 276.5t-467.5 124.5l-16 19l237 520h356q76 0 118 10t73 41h16l-63 -192h-518l-115 -252q317 -38 467.5 -147.5t150.5 -328.5q0 -123 -53 -230.5t-136 -177 t-183.5 -109.5t-198.5 -40q-88 0 -131 32t-43 77z" />
<glyph unicode="6" horiz-adv-x="1054" d="M82 510q0 147 42.5 276t133 247.5t240 221.5t354.5 187l14 -31q-110 -51 -198 -106t-151 -110t-108.5 -118t-73.5 -123t-44.5 -131t-22.5 -136t-6 -144q0 -264 81 -400.5t226 -136.5q127 0 190.5 103.5t63.5 289.5q0 66 -8.5 123t-29 107.5t-51.5 86t-79 56.5t-110 21 q-57 0 -119 -15l-8 27q101 33 182 33q182 0 287.5 -108t105.5 -290q0 -198 -131.5 -332.5t-318.5 -134.5q-95 0 -178.5 36.5t-146.5 103.5t-99.5 169.5t-36.5 227.5z" />
<glyph unicode="7" horiz-adv-x="942" d="M27 1087l116 355h13q14 -13 25.5 -19t28.5 -12t59 -7t90.5 -2t150.5 -1h393l12 -19l-290 -581q-261 -520 -373 -787q-6 -14 -16 -24t-19 -10q-24 0 -42.5 10.5t-18.5 27.5t16 43q152 239 412 762l225 453h-457q-123 0 -172.5 -22.5t-93.5 -98.5l-39 -68h-20z" />
<glyph unicode="8" horiz-adv-x="1019" d="M70 307q0 136 76.5 229t244.5 175q-280 122 -280 376q0 142 116 241t297 99q164 0 274.5 -89t110.5 -218q0 -216 -288 -352q173 -76 251 -174.5t78 -241.5q0 -111 -61.5 -198.5t-164.5 -134t-226 -46.5q-111 0 -207.5 39t-158.5 116.5t-62 178.5zM229 332 q0 -154 81.5 -240t221.5 -86q129 0 209 82.5t80 218.5q0 127 -82.5 209t-310.5 180q-111 -68 -155 -151t-44 -213zM233 1135q0 -114 76.5 -188.5t274.5 -162.5q90 56 133 126t43 184q0 141 -69.5 221t-203.5 80q-116 0 -185 -74t-69 -186z" />
<glyph unicode="9" horiz-adv-x="1054" d="M61 961q0 130 61 237.5t164 168t226 60.5q95 0 178.5 -36t146.5 -103t99.5 -169.5t36.5 -227.5q0 -147 -42.5 -276t-133 -247.5t-240 -221.5t-354.5 -187l-15 31q110 51 198 106t151 110.5t109 118t74 122.5t44.5 131t22.5 136t6 144q0 264 -81.5 400.5t-226.5 136.5 q-127 0 -190.5 -104t-63.5 -290q0 -84 14.5 -152t45.5 -123.5t87 -86.5t132 -31q57 0 119 15l8 -27q-101 -33 -182 -33q-182 0 -288 108t-106 290z" />
<glyph unicode=":" horiz-adv-x="430" d="M104 100q0 46 32 78.5t79 32.5t79 -32.5t32 -78.5t-32 -78t-79 -32t-79 32t-32 78zM104 860q0 46 32 78.5t79 32.5t79 -32.5t32 -78.5t-32 -78t-79 -32t-79 32t-32 78z" />
<glyph unicode=";" horiz-adv-x="430" d="M94 -250q75 53 114.5 116t39.5 124q-86 39 -118 71t-32 74q0 33 22.5 55.5t57.5 22.5q61 0 104.5 -48t43.5 -124q0 -88 -59.5 -168.5t-162.5 -140.5zM94 860q0 46 32 78.5t79 32.5t78.5 -32.5t31.5 -78.5t-31.5 -78t-78.5 -32t-79 32t-32 78z" />
<glyph unicode="&#x3c;" horiz-adv-x="921" d="M68 696v25l806 385v-43l-747 -354l747 -355v-43z" />
<glyph unicode="=" horiz-adv-x="921" d="M88 508v41h746v-41h-746zM88 868v41h746v-41h-746z" />
<glyph unicode="&#x3e;" horiz-adv-x="921" d="M47 311v43l748 355l-748 354v43l807 -385v-25z" />
<glyph unicode="?" horiz-adv-x="716" d="M111 1333q0 38 29 60t87 22q52 0 110 -19.5t115 -59t102.5 -93t74 -128t28.5 -157.5q0 -112 -58 -175t-177 -97q-101 -29 -129.5 -51t-28.5 -72q0 -102 8 -201l-26 -4q-33 198 -33 338q0 57 29 84t114 47q122 30 172 76t50 123q0 97 -53 178t-138 127q-34 -34 -80 -57 t-86 -23q-50 0 -80 24t-30 58zM164 100q0 46 31.5 78.5t78.5 32.5t79 -32.5t32 -78.5t-32 -78t-79 -32t-78.5 32t-31.5 78z" />
<glyph unicode="@" horiz-adv-x="1925" d="M90 479q0 191 70.5 366t191 302.5t289.5 203.5t356 76q180 0 335 -58.5t266 -162.5t174 -253.5t63 -325.5q0 -162 -54 -294t-150 -207t-214 -75q-125 0 -199 54.5t-98 136.5q-176 -203 -334 -203q-126 0 -197 79t-71 228q0 121 45.5 237t116 198t158 132t170.5 50 q158 0 260 -70l102 86h16l-120 -623q-27 -138 13.5 -205t158.5 -67q68 0 132 38.5t114 107t80 171.5t30 224q0 231 -101 406t-282.5 268.5t-417.5 93.5q-240 0 -438.5 -122.5t-311 -331.5t-112.5 -458q0 -193 59 -357t165.5 -281.5t263.5 -184t346 -66.5q188 0 333.5 39.5 t294.5 122.5l17 -26q-152 -86 -305.5 -128t-343.5 -42q-257 0 -456 118t-307 327t-108 476zM672 414q0 -142 50 -215.5t136 -73.5q63 0 119 34.5t133 119.5l59 307q13 80 13 135q0 95 -45.5 151t-132.5 56q-148 0 -240 -144t-92 -370z" />
<glyph unicode="A" horiz-adv-x="1449" d="M-20 -2v22l40 7q62 9 108 56t85 146l438 1102l105 107h18l477 -1237q32 -84 69.5 -123t90.5 -47l59 -8v-25q-16 0 -111.5 2t-139.5 2t-170 -2t-142 -2v22l76 9q102 11 102 92q0 50 -26 123l-121 317h-535l-90 -231q-39 -103 -39 -178q0 -53 28 -85t81 -38l72 -9v-22 q-16 0 -106 2t-134 2t-131.5 -2t-103.5 -2zM422 610h498l-246 647z" />
<glyph unicode="B" horiz-adv-x="1220" d="M45 -2v22l76 11q51 7 75.5 30t35 75.5t10.5 156.5v815q0 104 -10.5 156.5t-35 75.5t-75.5 30l-76 10v23q18 0 144 -2t169 -2q37 0 131 1t144 1q213 0 337 -82.5t124 -233.5q0 -110 -67.5 -181t-201.5 -128q156 -41 245 -133t89 -242q0 -180 -151.5 -291.5t-393.5 -111.5 q-36 0 -141.5 2t-144.5 2q-43 0 -154 -2t-129 -2zM406 295q0 -112 21.5 -167t71.5 -76t152 -21q150 0 239 85.5t89 233.5q0 175 -110 265t-296 92l-167 2v-414zM406 745l141 3q182 3 273 74.5t91 228.5q0 145 -81.5 231t-231.5 86q-104 0 -192 -20v-603z" />
<glyph unicode="C" horiz-adv-x="1433" d="M90 700q0 131 41.5 247.5t113.5 203t165 149.5t198.5 95t212.5 32q152 0 254.5 -25t196.5 -73l49 -293h-25l-26 58q-66 141 -175 220t-284 79q-242 0 -386 -180t-144 -494q0 -328 157 -519.5t412 -191.5q168 0 271 71.5t175 227.5l27 58h25l-50 -287q-195 -105 -469 -105 q-156 0 -291.5 50.5t-235 142.5t-156 230t-56.5 304z" />
<glyph unicode="D" horiz-adv-x="1462" d="M45 -2v22l76 11q51 7 75.5 30t35 75.5t10.5 156.5v815q0 104 -10.5 156.5t-35 75.5t-75.5 30l-76 10v23q17 0 124 -2t150 -2q41 0 112 2t120 2q185 0 339.5 -45t268.5 -131t178 -221t64 -306q0 -172 -59.5 -308.5t-163.5 -221.5t-239 -129.5t-292 -44.5q-116 0 -198.5 3 t-118.5 3q-43 0 -155.5 -2t-129.5 -2zM406 293q0 -57 4.5 -95t16.5 -69t31 -48.5t51.5 -29.5t73.5 -16t101 -4q116 0 210.5 38t166 114.5t110.5 202.5t39 292q0 333 -180.5 511.5t-486.5 178.5q-87 0 -137 -18v-1057z" />
<glyph unicode="E" horiz-adv-x="1175" d="M45 -2v22l76 11q51 7 75.5 30t35 75.5t10.5 156.5v815q0 104 -10.5 156.5t-35 75.5t-75.5 30l-76 10v23q18 0 186 -2t211 -2q44 0 220 1t192 1h172l59 -258h-24l-37 61q-61 102 -123.5 132t-208.5 30h-57q-145 0 -229 -25v-593l192 4q153 3 204.5 30t61.5 115l10 84h29 q0 -16 -2 -112t-2 -140q0 -43 2 -133.5t2 -108.5h-29l-8 58q-13 96 -63 125t-205 32l-192 5v-412q0 -86 8 -133.5t33.5 -78t66.5 -39.5t115 -9h123q102 0 154.5 11.5t91.5 44t83 104.5l39 63h25l-60 -258h-223q-67 0 -227 1t-193 1q-43 0 -211 -2t-186 -2z" />
<glyph unicode="F" horiz-adv-x="1091" d="M45 -2v22l76 11q51 7 75.5 30t35 75.5t10.5 156.5v815q0 104 -10.5 156.5t-35 75.5t-75.5 30l-76 10v23q18 0 186 -2t211 -2q44 0 211 1t183 1h172l59 -258h-25l-36 61q-61 102 -123.5 132t-208.5 30h-39q-145 0 -229 -25v-600l167 4q153 3 205 30.5t62 115.5l10 84h29 q0 -16 -2.5 -112t-2.5 -140q0 -43 2.5 -133.5t2.5 -108.5h-29l-8 58q-13 96 -63.5 125t-205.5 32l-167 4v-407q0 -108 13 -159.5t43.5 -73t96.5 -29.5l80 -11v-22q-16 0 -138.5 2t-166.5 2q-43 0 -157 -2t-132 -2z" />
<glyph unicode="G" horiz-adv-x="1515" d="M90 711q0 154 61 289t164.5 228t241.5 146t289 53q256 0 436 -98l45 -268h-24l-31 59q-70 134 -181 203.5t-276 69.5q-169 0 -291 -86t-182.5 -234.5t-60.5 -343.5q0 -350 156 -535.5t448 -185.5q151 0 211.5 55t60.5 189v29q0 144 -28.5 195t-118.5 61l-86 10v22 q17 0 140.5 -2t166.5 -2t140.5 2t115.5 2v-22l-64 -8q-73 -10 -95.5 -58.5t-22.5 -179.5v-27q0 -92 19.5 -125t80.5 -57v-14q-244 -105 -539 -105q-222 0 -396.5 86t-277 255t-102.5 397z" />
<glyph unicode="H" horiz-adv-x="1576" d="M45 -2v22l76 11q51 7 75.5 30t35 75.5t10.5 156.5v815q0 104 -10.5 156.5t-35 75.5t-75.5 30l-76 10v23q18 0 127 -2t152 -2q44 0 166.5 2t138.5 2v-23l-94 -12q-54 -7 -80.5 -30t-37.5 -75t-11 -155v-377h765v377q0 103 -11 155t-37.5 75t-80.5 30l-94 12v23 q16 0 138.5 -2t166.5 -2q43 0 152 2t127 2v-23l-76 -10q-51 -7 -75.5 -30t-35 -75.5t-10.5 -156.5v-815q0 -104 10.5 -156.5t35 -75.5t75.5 -30l76 -11v-22q-18 0 -127 2t-152 2q-44 0 -166.5 -2t-138.5 -2v22l94 13q54 7 80.5 30t37.5 75t11 155v389h-765v-389 q0 -103 11 -155t37.5 -75t80.5 -30l94 -13v-22q-16 0 -138.5 2t-166.5 2q-43 0 -152 -2t-127 -2z" />
<glyph unicode="I" horiz-adv-x="679" d="M25 -2v22l79 11q50 6 77.5 17.5t46 41t24.5 75.5t6 128v815q0 82 -6 128t-24.5 75.5t-46 41t-77.5 17.5l-79 10v23q15 0 143 -2t172 -2t172 2t143 2v-23l-80 -10q-66 -8 -96.5 -29.5t-43.5 -73t-13 -159.5v-815q0 -108 13 -159.5t43.5 -73t96.5 -29.5l80 -11v-22 q-15 0 -143 2t-172 2t-172 -2t-143 -2z" />
<glyph unicode="J" horiz-adv-x="659" d="M-41 -354q178 85 233.5 158.5t55.5 226.5v1077q0 82 -6 128t-24.5 75.5t-46 41t-77.5 17.5l-80 10v23q15 0 143.5 -2t172.5 -2t172 2t143 2v-23l-80 -10q-66 -8 -96.5 -29.5t-43.5 -73t-13 -159.5v-1006q0 -129 -40 -209.5t-130.5 -140.5t-272.5 -131z" />
<glyph unicode="K" horiz-adv-x="1417" d="M45 -2v22l76 11q51 7 75.5 30t35 75.5t10.5 156.5v815q0 104 -10.5 156.5t-35 75.5t-75.5 30l-76 10v23q18 0 127 -2t152 -2q44 0 166.5 2t138.5 2v-23l-94 -12q-54 -7 -80.5 -30t-37.5 -75t-11 -155v-352q58 9 95.5 28.5t92.5 67.5l266 235q90 80 125 124t35 81 q0 38 -23.5 56t-72.5 24l-70 8v23q164 -4 297 -4q107 0 233 4v-23l-38 -6q-108 -15 -259 -149l-481 -422l578 -627q74 -80 116.5 -109.5t90.5 -35.5l57 -8v-25q-172 4 -297 4q-156 0 -328 -4v22l80 11q60 7 81.5 25.5t21.5 52.5q0 33 -84 124l-379 418q-35 38 -64 55t-73 21 v-434q0 -103 11 -155t37.5 -75t80.5 -30l94 -13v-22q-16 0 -138.5 2t-166.5 2q-43 0 -152 -2t-127 -2z" />
<glyph unicode="L" horiz-adv-x="1138" d="M45 -2v22l76 11q51 7 75.5 30t35 75.5t10.5 156.5v815q0 104 -10.5 156.5t-35 75.5t-75.5 30l-76 10v23q18 0 132 -2t157 -2q44 0 166.5 2t138.5 2v-23l-80 -10q-66 -8 -96.5 -29.5t-43.5 -73t-13 -159.5v-813q0 -86 8 -133.5t33.5 -78t66.5 -39.5t115 -9h106 q148 0 210.5 32t121.5 142l43 80h25l-70 -289h-221q-67 0 -218 1t-184 1q-43 0 -211 -2t-186 -2z" />
<glyph unicode="M" horiz-adv-x="1839" d="M29 -2v22l28 5q48 6 76.5 18.5t50 41t31.5 76t14 124.5l43 819q1 17 1 33q-1 93 -31 145q-36 62 -109 80l-80 18v23q19 0 85 -2t108 -2q86 0 145 4l537 -1182l532 1182q82 -4 150 -4q70 0 176 4v-23l-74 -10q-77 -10 -110 -70q-28 -50 -28 -160q0 -20 1 -42l37 -836 q6 -129 34.5 -176.5t98.5 -56.5l65 -9v-22q-18 0 -126.5 2t-151.5 2q-44 0 -166.5 -2t-138.5 -2v22l92 13q79 11 106 59q24 41 24 140q0 15 -1 30l-39 885l-530 -1159h-19l-538 1159l-33 -864v-26q1 -43 5 -75q6 -42 19 -69t36.5 -44.5t49 -26t62.5 -13.5l57 -9v-22 q-16 0 -114 2t-142 2q-43 0 -129 -2t-104 -2z" />
<glyph unicode="N" horiz-adv-x="1568" d="M18 1380v23q90 -4 175 -4q77 0 165 6l949 -1131l-7 844q-1 74 -10.5 121t-31.5 74.5t-50 40t-75 18.5l-58 8v23q16 0 112 -2t140 -2q43 0 129.5 2t104.5 2v-23l-29 -4q-48 -7 -76.5 -18.5t-51 -39.5t-32 -76.5t-10.5 -125.5l-6 -1134h-21l-1020 1210l7 -909 q1 -74 10.5 -121t31.5 -74.5t50 -40t75 -18.5l58 -9v-22q-16 0 -112 2t-140 2q-43 0 -129.5 -2t-104.5 -2v22l29 5q48 6 76.5 18.5t51 40.5t32 76.5t10.5 124.5l6 966q-92 101 -213 123z" />
<glyph unicode="O" horiz-adv-x="1564" d="M94 700q0 164 55.5 302.5t149.5 230.5t219 143t264 51q201 0 356.5 -86.5t243.5 -252.5t88 -388q0 -164 -55.5 -302.5t-149.5 -230.5t-219 -143t-264 -51q-201 0 -356.5 86.5t-243.5 252.5t-88 388zM285 760q0 -222 60.5 -391t181 -265t286.5 -96q218 0 342.5 167.5 t124.5 465.5q0 222 -60.5 391t-181 265t-286.5 96q-218 0 -342.5 -167.5t-124.5 -465.5z" />
<glyph unicode="P" horiz-adv-x="1153" d="M45 -2v22l76 11q51 7 75.5 30t35 75.5t10.5 156.5v815q0 104 -10.5 156.5t-35 75.5t-75.5 30l-76 10v23q18 0 132 -2t157 -2q37 0 133.5 1t146.5 1q228 0 369 -100.5t141 -292.5q0 -186 -143 -295.5t-383 -128.5l-4 24q176 29 260 116.5t84 270.5q0 185 -98.5 279 t-264.5 94q-98 0 -169 -22v-1053q0 -108 13 -159.5t43.5 -73t96.5 -29.5l80 -11v-22q-16 0 -138.5 2t-166.5 2q-43 0 -157 -2t-132 -2z" />
<glyph unicode="Q" horiz-adv-x="1564" d="M94 700q0 164 55.5 302.5t149.5 230.5t219 143t264 51q201 0 356.5 -86.5t243.5 -252.5t88 -388q0 -251 -121.5 -431t-320.5 -253q270 -230 408 -309.5t270 -79.5q78 0 139.5 19.5t157.5 66.5l12 -22q-110 -64 -197.5 -92.5t-189.5 -28.5q-154 0 -343 88t-503 315 q-201 0 -356.5 86.5t-243.5 252.5t-88 388zM285 760q0 -222 60.5 -391t181 -265t286.5 -96q218 0 342.5 167.5t124.5 465.5q0 222 -60.5 391t-181 265t-286.5 96q-218 0 -342.5 -167.5t-124.5 -465.5z" />
<glyph unicode="R" horiz-adv-x="1343" d="M45 -2v22l76 11q51 7 75.5 30t35 75.5t10.5 156.5v815q0 104 -10.5 156.5t-35 75.5t-75.5 30l-76 10v23q18 0 132 -2t157 -2q37 0 149 1t162 1q217 0 347 -96.5t130 -262.5q0 -126 -101 -222t-253 -140l301 -438q93 -138 157 -180q55 -36 140 -36q14 0 29 1l4 -25 q-79 -12 -135 -12q-127 0 -216.5 57.5t-166.5 173.5l-291 428q-110 0 -184 6v-362q0 -103 11 -155t37.5 -75t80.5 -30l94 -13v-22q-16 0 -138.5 2t-166.5 2q-43 0 -152 -2t-127 -2zM406 694q57 -8 165 -8q179 0 272 81t93 263q0 338 -320 338q-108 0 -210 -27v-647z" />
<glyph unicode="S" horiz-adv-x="1067" d="M57 317h25l29 -59q64 -133 152 -188.5t218 -55.5q177 0 273 77.5t96 221.5q0 125 -73 194.5t-259 121.5q-109 31 -182.5 65t-129 82t-81 114t-25.5 154q0 109 61.5 196t166.5 134t231 47q207 0 338 -59l45 -279h-24l-27 60q-59 130 -140.5 186.5t-203.5 56.5 q-151 0 -232.5 -74.5t-81.5 -201.5q0 -123 69.5 -188t260.5 -119q227 -64 323.5 -163t96.5 -265q0 -175 -146.5 -285t-371.5 -110q-231 0 -361 67z" />
<glyph unicode="T" horiz-adv-x="1398" d="M-14 1104l59 340h12q31 -24 64 -32t155.5 -12t417.5 -5q302 0 430.5 4.5t167.5 12.5t80 32h14l-57 -340h-20l-11 80q-12 101 -64 133t-204 35l-262 4v-1063q0 -82 6 -128t24.5 -75.5t46 -41t77.5 -17.5l79 -11v-22q-15 0 -143 2t-172 2t-172 -2t-143 -2v22l80 11 q66 8 96.5 29.5t43.5 73t13 159.5v1063l-239 -4q-105 -2 -160.5 -16t-92 -47.5t-71.5 -104.5l-35 -80h-20z" />
<glyph unicode="U" horiz-adv-x="1546" d="M25 1380v23q18 0 126.5 -2t151.5 -2q44 0 166.5 2t138.5 2v-23l-94 -12q-54 -7 -80.5 -30t-37.5 -75t-11 -155v-610q0 -235 111 -343t321 -108q212 1 338 119q123 116 123 332v10l-6 610q-1 97 -20 150.5t-52.5 74t-95.5 29.5l-57 8v23q16 0 111.5 -2t139.5 -2 q43 0 129.5 2t104.5 2v-23l-29 -4q-63 -9 -97 -30t-53 -75.5t-20 -154.5l-6 -610q-3 -254 -144.5 -391.5t-410.5 -137.5q-274 0 -412.5 127.5t-138.5 362.5v641q0 104 -10.5 156.5t-35 75.5t-75.5 30z" />
<glyph unicode="V" horiz-adv-x="1460" d="M-20 1378v25q16 0 111.5 -2t139.5 -2t172 2t144 2v-23l-76 -8q-100 -12 -100 -90q0 -48 30 -125l392 -950l319 799q68 175 68 254q0 100 -105 112l-71 8v23q16 0 106.5 -2t134.5 -2t132 2t104 2v-23l-41 -6q-65 -9 -110.5 -54t-88.5 -149l-498 -1198h-18l-522 1227 q-37 86 -73.5 124.5t-90.5 45.5z" />
<glyph unicode="W" horiz-adv-x="2095" d="M-14 1378v25q16 0 111 -2t139 -2t170.5 2t142.5 2v-23l-76 -8q-108 -13 -108 -92q0 -43 26 -123l332 -928l297 762l-84 209q-35 88 -69.5 125.5t-88.5 44.5l-59 8v25q16 0 112 -2t140 -2t171.5 2t143.5 2v-23l-76 -8q-104 -12 -104 -88q0 -46 29 -127l356 -928l272 795 q52 147 52 221q0 53 -28.5 87t-84.5 40l-74 8v23q16 0 109 -2t137 -2t131.5 2t103.5 2v-23l-38 -6q-65 -9 -109.5 -55t-81.5 -148l-434 -1198h-19l-380 953l-375 -953h-19l-454 1227q-32 86 -66.5 124t-87.5 46z" />
<glyph unicode="X" horiz-adv-x="1454" d="M4 -2v22l45 7q59 8 122 57t118 119l375 483l-357 514q-60 87 -106.5 125t-106.5 47l-55 8v23q16 0 123 -2t151 -2t175 2t147 2v-23l-90 -12q-46 -6 -66 -21.5t-20 -46.5q0 -40 61 -131l246 -368l229 313q88 124 88 180q0 65 -90 76l-88 10v23q16 0 125.5 -2t153.5 -2 t129.5 2t101.5 2v-23l-45 -6q-117 -17 -240 -176l-337 -436l389 -561q60 -87 106.5 -125t106.5 -47l55 -9v-22q-16 0 -123 2t-151 2t-175 -2t-147 -2v22l90 13q46 6 66 21t20 46q0 40 -61 131l-279 416l-266 -358q-90 -126 -90 -183q0 -33 21 -51t71 -24l88 -11v-22 q-16 0 -125 2t-153 2t-130 -2t-102 -2z" />
<glyph unicode="Y" horiz-adv-x="1437" d="M-31 1380v23q16 0 116 -2t144 -2t172 2t144 2v-23l-82 -10q-90 -11 -90 -65q0 -43 51 -119l362 -535l293 467q64 99 64 158q0 40 -28 65t-79 31l-59 8v23q16 0 116 -2t144 -2t129.5 2t101.5 2v-23l-45 -6q-65 -9 -117.5 -50.5t-107.5 -125.5l-385 -590v-315q0 -82 6 -128 t24.5 -75.5t46 -41t77.5 -17.5l80 -11v-22q-15 0 -143.5 2t-172.5 2t-172 -2t-143 -2v22l80 11q66 8 96.5 29.5t43.5 73t13 159.5v291l-428 616q-61 88 -104.5 125t-102.5 47z" />
<glyph unicode="Z" horiz-adv-x="1259" d="M35 14l936 1342l-459 -4q-76 -1 -123 -5t-87 -13t-66 -29t-47 -48t-42 -73l-36 -80h-21l64 340h12q29 -23 67.5 -31t158.5 -12t415 -4h373l10 -15l-936 -1341l524 4q124 1 193 17t112.5 52t87.5 111l39 68h21l-90 -293h-1096z" />
<glyph unicode="[" horiz-adv-x="655" d="M150 -184v1710h452v-23l-149 -8q-52 -3 -82 -15t-48.5 -42.5t-25 -77.5t-6.5 -127v-1124q0 -80 6.5 -127t25 -78t48.5 -43t82 -15l149 -8v-22h-452z" />
<glyph unicode="\" horiz-adv-x="860" d="M37 1409l39 18l747 -1433l-39 -19z" />
<glyph unicode="]" horiz-adv-x="655" d="M53 -162l150 8q52 3 82 15t48.5 43t25 78t6.5 127v1124q0 80 -6.5 127t-25 77.5t-48.5 42.5t-82 15l-150 8v23h453v-1710h-453v22z" />
<glyph unicode="^" horiz-adv-x="819" d="M113 942l276 473h41l277 -473l-19 -12l-278 291l-279 -291z" />
<glyph unicode="_" horiz-adv-x="1024" d="M-4 -176h1032v-29h-1032v29z" />
<glyph unicode="`" horiz-adv-x="1024" d="M362 1348q0 29 18.5 48t51.5 19q31 0 54 -21t55 -75l139 -234l-14 -12l-224 164q-42 31 -61 56t-19 55z" />
<glyph unicode="a" horiz-adv-x="944" d="M70 182q0 91 70 151.5t241 121.5q131 46 244 73v138q0 141 -44.5 207.5t-138.5 66.5q-58 0 -123 -35q-9 -120 -34 -172.5t-78 -52.5q-90 0 -90 84q0 39 57.5 91.5t151 92t182.5 39.5q148 0 209 -75.5t61 -243.5v-492q0 -79 18.5 -109t65.5 -30q36 0 56 4l8 -18 q-82 -35 -156 -35q-66 0 -103.5 39t-41.5 114q-172 -161 -332 -161q-98 0 -160.5 52.5t-62.5 149.5zM225 225q0 -82 41 -127t115 -45q55 0 119 33t125 94v312q-128 -26 -238 -72q-162 -68 -162 -195z" />
<glyph unicode="b" horiz-adv-x="1095" d="M-2 1421v17l289 67l18 -12v-651q79 72 147 106.5t166 34.5q177 0 287.5 -128t110.5 -316q0 -125 -38.5 -229t-106 -173.5t-158 -108t-193.5 -38.5q-154 0 -276 63l-78 -80h-14v1274q0 72 -18.5 101t-76.5 51zM305 319q0 -143 67.5 -218.5t182.5 -75.5q143 0 230 105 t87 296q0 201 -94.5 332t-247.5 131q-68 0 -119 -20t-106 -66v-484z" />
<glyph unicode="c" horiz-adv-x="991" d="M78 432q0 116 39.5 220t106 177t155 115.5t184.5 42.5q150 0 241 -53t91 -119q0 -50 -31.5 -80t-75.5 -30q-52 0 -78 51.5t-34 165.5q-52 24 -131 24q-142 0 -227 -111t-85 -303q0 -203 103.5 -329.5t265.5 -126.5q82 0 146.5 23t144.5 81l16 -16q-84 -90 -174.5 -140.5 t-208.5 -50.5q-201 0 -324.5 130.5t-123.5 328.5z" />
<glyph unicode="d" horiz-adv-x="1116" d="M80 422q0 125 38.5 229t105.5 173.5t157.5 108t193.5 38.5q120 0 216 -21v297q0 72 -18.5 101t-76.5 51l-59 22v17l289 67l18 -12v-1253q0 -92 8.5 -132.5t29.5 -57t71 -23.5l43 -7v-22q-219 0 -305 -6v127q-79 -72 -147.5 -107t-166.5 -35q-177 0 -287 128.5t-110 316.5 zM223 535q0 -201 94.5 -332t247.5 -131q68 0 119.5 20t106.5 66v483q0 143 -67.5 219t-182.5 76q-143 0 -230.5 -105t-87.5 -296z" />
<glyph unicode="e" horiz-adv-x="993" d="M78 459q0 117 41 218.5t106.5 168t147 104t164.5 37.5q185 0 280.5 -97t102.5 -296h-693v-27q0 -224 103 -359.5t260 -135.5q95 0 162.5 40t138.5 124l24 -11q-67 -114 -167.5 -183t-221.5 -69q-201 0 -324.5 132t-123.5 354zM229 629h510q-4 151 -66.5 235t-164.5 84 q-117 0 -191 -85.5t-88 -233.5z" />
<glyph unicode="f" horiz-adv-x="630" d="M37 881v16l162 51v27q0 133 58.5 254.5t164.5 198.5t233 77q67 0 108.5 -28.5t41.5 -69.5q0 -37 -26.5 -70.5t-63.5 -33.5q-42 0 -82.5 35.5t-89.5 107.5q-99 -29 -145 -113.5t-46 -257.5v-125h234v-69h-234v-641q0 -93 10.5 -133t38.5 -56.5t97 -23.5l53 -7v-22 q-30 0 -128.5 1t-146.5 1q-51 0 -130 -1t-99 -1v22l43 7q50 7 71 24t29.5 57t8.5 132v641h-162z" />
<glyph unicode="g" horiz-adv-x="1048" d="M45 -213q0 62 48.5 126.5t152.5 141.5q-72 9 -109 41.5t-37 85.5q0 43 57 99t140 102q-98 32 -157.5 102.5t-59.5 167.5q0 148 116.5 241t282.5 93q181 0 283 -102l258 84v-119h-227q53 -68 53 -168q0 -102 -58.5 -177t-146 -110t-188.5 -35q-55 0 -115 13 q-65 -39 -90 -68.5t-25 -58.5q0 -30 30.5 -41t131.5 -15q120 -5 287 -16q286 -19 286 -197q0 -127 -74.5 -225t-196.5 -148t-271 -50q-103 0 -185 24.5t-134 78.5t-52 130zM172 -156q0 -97 98.5 -166t237.5 -69q99 0 188.5 39t144 106.5t54.5 145.5q0 67 -68.5 97.5 t-240.5 39.5q-182 10 -293 14q-68 -51 -94.5 -98.5t-26.5 -108.5zM246 686q0 -148 53 -222.5t168 -74.5q110 0 162.5 75.5t52.5 199.5q0 146 -52.5 220t-166.5 74q-110 0 -163.5 -75t-53.5 -197z" />
<glyph unicode="h" horiz-adv-x="1105" d="M18 1421v17l289 67l19 -12v-670q96 83 167.5 121.5t161.5 38.5q140 0 213.5 -79.5t73.5 -235.5v-428q0 -92 8.5 -132.5t29.5 -57t71 -23.5l43 -7v-22q-19 0 -96.5 1t-127.5 1t-132 -1t-103 -1v22l41 7q53 7 74.5 23.5t29.5 56t8 133.5v405q0 122 -51.5 188t-144.5 66 q-77 0 -137 -28t-129 -91v-540q0 -94 8 -133.5t29.5 -56t74.5 -23.5l41 -7v-22q-21 0 -100 1t-129 1q-51 0 -130.5 -1t-99.5 -1v22l43 7q50 7 71 24t29.5 57t8.5 132v1007q0 73 -18 101.5t-76 50.5z" />
<glyph unicode="i" horiz-adv-x="559" d="M59 897v16l289 68l19 -12v-729q0 -94 8 -133.5t29.5 -56t74.5 -23.5l41 -7v-22q-21 0 -100 1t-129 1q-51 0 -130.5 -1t-99.5 -1v22l43 7q50 7 71 24t29.5 57t8.5 132v483q0 72 -18 100.5t-76 50.5zM162 1309q0 46 31 77t77 31t77.5 -31t31.5 -77t-31.5 -76.5t-77.5 -30.5 t-77 30.5t-31 76.5z" />
<glyph unicode="j" horiz-adv-x="518" d="M8 -414q54 29 83 50.5t55.5 57.5t36.5 87t10 127v815q0 72 -18.5 100.5t-76.5 50.5l-59 23v16l289 68l18 -12v-1000q0 -55 -5.5 -96.5t-14.5 -74.5t-30 -60.5t-41.5 -47.5t-61 -42.5t-76.5 -39.5t-99 -44zM141 1309q0 46 31.5 77t77.5 31t77 -31t31 -77t-31 -76.5 t-77 -30.5t-77.5 30.5t-31.5 76.5z" />
<glyph unicode="k" horiz-adv-x="1003" d="M18 1421v17l289 67l19 -12v-1001l243 227q64 59 88.5 89t24.5 56q0 27 -20.5 42.5t-63.5 23.5l-43 8v25q19 0 95 -1t126 -1t111 1t82 1v-23l-23 -2q-52 -4 -96.5 -30.5t-128.5 -102.5l-223 -205l313 -430q61 -83 92.5 -110t73.5 -33l39 -7v-22q-22 0 -69.5 1t-86.5 1 q-78 0 -117 -2q-31 58 -133 209l-215 301l-69 -66v-202q0 -94 8 -133.5t29.5 -56t74.5 -23.5l41 -7v-22q-21 0 -100 1t-129 1q-51 0 -130.5 -1t-99.5 -1v22l43 7q50 7 71 24t29.5 57t8.5 132v1007q0 73 -18 101.5t-76 50.5z" />
<glyph unicode="l" horiz-adv-x="538" d="M39 1421v17l289 67l18 -12v-1253q0 -94 8 -133.5t30 -56t75 -23.5l41 -7v-22q-21 0 -100.5 1t-129.5 1q-51 0 -130 -1t-99 -1v22l43 7q50 7 71 24t29.5 57t8.5 132v1007q0 72 -18.5 101t-76.5 51z" />
<glyph unicode="m" horiz-adv-x="1718" d="M39 897v16l289 68l18 -12v-146q98 85 166.5 122.5t159.5 37.5q108 0 170 -44t92 -126q100 86 175 128t165 42q280 0 280 -315v-428q0 -92 8.5 -132.5t29.5 -57t71 -23.5l43 -7v-22q-19 0 -96 1t-127 1t-132.5 -1t-103.5 -1v22l41 7q53 7 75 23.5t30 56t8 133.5v405 q0 123 -49.5 188.5t-141.5 65.5q-76 0 -134 -29t-134 -98q8 -50 8 -104v-428q0 -94 8 -133.5t30 -56t75 -23.5l41 -7v-22q-21 0 -99 1t-128 1t-131.5 -1t-102.5 -1v22l41 7q53 7 75 23.5t30 56t8 133.5v405q0 123 -49.5 188.5t-141.5 65.5q-76 0 -133 -27.5t-127 -91.5v-540 q0 -94 8 -133.5t30 -56t75 -23.5l41 -7v-22q-21 0 -100.5 1t-129.5 1q-51 0 -130 -1t-99 -1v22l43 7q50 7 71 24t29.5 57t8.5 132v483q0 72 -18.5 100.5t-76.5 50.5z" />
<glyph unicode="n" horiz-adv-x="1126" d="M39 897v16l289 68l18 -12v-146q96 83 168 121.5t162 38.5q140 0 213.5 -79.5t73.5 -235.5v-428q0 -93 8 -133t29 -56.5t71 -23.5l43 -7v-22q-19 0 -96 1t-127 1t-132.5 -1t-103.5 -1v22l41 7q53 7 75 23.5t30 56t8 133.5v405q0 122 -52 188t-145 66q-77 0 -137 -28 t-129 -91v-540q0 -94 8 -133.5t30 -56t75 -23.5l41 -7v-22q-21 0 -100.5 1t-129.5 1q-51 0 -130 -1t-99 -1v22l43 7q50 7 71 24t29.5 57t8.5 132v483q0 72 -18.5 100.5t-76.5 50.5z" />
<glyph unicode="o" horiz-adv-x="1089" d="M78 489q0 214 135.5 356t331.5 142q96 0 179.5 -33t148 -96t102 -162.5t37.5 -224.5q0 -214 -135.5 -356t-331.5 -142q-96 0 -179.5 33t-148 96t-102 162.5t-37.5 224.5zM252 528q0 -232 90.5 -376t235.5 -144q260 0 260 424q0 232 -90.5 376t-235.5 144 q-260 0 -260 -424z" />
<glyph unicode="p" horiz-adv-x="1116" d="M-2 -416l49 6q59 7 83 24t33 56.5t9 132.5v920q0 72 -18 100.5t-76 50.5l-60 23v16l289 68l19 -12v-127q79 72 147 106.5t166 34.5q177 0 287 -128t110 -316q0 -125 -38.5 -229t-105.5 -173.5t-157.5 -108t-193.5 -38.5q-123 0 -215 20v-207q0 -57 3 -89.5t10.5 -57.5 t25.5 -36.5t41 -18t65 -11.5l53 -6v-22q-30 0 -128 1t-146 1q-50 0 -139 -1t-113 -1v22zM326 319q0 -143 67 -218.5t182 -75.5q143 0 230.5 105t87.5 296q0 201 -94.5 332t-247.5 131q-68 0 -119 -20t-106 -66v-484z" />
<glyph unicode="q" horiz-adv-x="1095" d="M80 422q0 125 38.5 229t105.5 173.5t157.5 108t193.5 38.5q153 0 277 -64l78 80h14v-1184q0 -93 9 -132.5t33 -56.5t83 -24l49 -6v-22q-24 0 -113 1t-139 1q-48 0 -146 -1t-128 -1v22l53 6q69 7 97 23.5t38.5 56.5t10.5 133v316q-79 -72 -147.5 -107t-166.5 -35 q-177 0 -287 128.5t-110 316.5zM223 535q0 -201 94.5 -332t247.5 -131q68 0 119.5 20t106.5 66v483q0 143 -67.5 219t-182.5 76q-143 0 -230.5 -105t-87.5 -296z" />
<glyph unicode="r" horiz-adv-x="804" d="M39 897v16l289 68l18 -12v-170q91 100 161 143t140 43q109 0 109 -86q0 -55 -24 -88t-54 -33q-51 0 -170 92q-98 -51 -162 -125v-505q0 -93 10.5 -133t38.5 -56.5t97 -23.5l53 -7v-22q-30 0 -128.5 1t-146.5 1q-51 0 -130 -1t-99 -1v22l43 7q50 7 71 24t29.5 57t8.5 132 v483q0 72 -18.5 100.5t-76.5 50.5z" />
<glyph unicode="s" horiz-adv-x="868" d="M102 49v199h60q27 -128 88.5 -183t189.5 -55q96 0 154.5 50t58.5 135q0 82 -51 125t-196 90q-158 51 -227.5 117t-69.5 178q0 126 98 202t239 76q150 0 273 -65v-199h-60q-25 120 -74 175.5t-149 55.5q-92 0 -146 -50.5t-54 -135.5q0 -78 54 -124t185 -87 q169 -53 237 -119t68 -180q0 -87 -54 -151.5t-133.5 -95t-168.5 -30.5q-165 0 -322 72z" />
<glyph unicode="t" horiz-adv-x="684" d="M31 881v16l145 51l125 307h27v-305h280v-69h-280v-660q0 -162 137 -162q42 0 73 12t72 42l17 -21q-63 -55 -120 -82.5t-126 -27.5q-207 0 -207 215v684h-143z" />
<glyph unicode="u" horiz-adv-x="1110" d="M14 897v16l289 68l19 -12v-654q0 -122 51.5 -188t144.5 -66q77 0 137 28t129 91v543q0 72 -18 100.5t-76 50.5l-59 23v16l289 68l18 -12v-729q0 -92 8.5 -132.5t29.5 -57t71 -23.5l43 -7v-22q-220 0 -306 -6v145q-96 -83 -167.5 -121.5t-161.5 -38.5q-140 0 -213.5 80 t-73.5 236v430q0 72 -18 100.5t-76 50.5z" />
<glyph unicode="v" horiz-adv-x="1069" d="M-4 940v23q19 0 96 -1t127 -1q51 0 134 1t102 1v-23l-54 -6q-45 -6 -61 -20t-16 -42q0 -38 28 -116l236 -590l196 500q54 137 54 196q0 63 -74 72l-55 6v23q19 0 82.5 -1t113.5 -1t98.5 1t69.5 1v-23l-39 -6q-56 -9 -89 -49t-83 -158l-315 -754h-19l-327 768 q-51 120 -77 152t-85 41z" />
<glyph unicode="w" horiz-adv-x="1611" d="M-4 940v23q19 0 96 -1t127 -1q51 0 132 1t100 1v-23l-54 -6q-45 -6 -61.5 -20t-16.5 -42q0 -31 29 -116l219 -580l215 569l-12 31q-34 84 -63 117.5t-84 40.5l-43 6v23q19 0 96 -1t127 -1q51 0 131.5 1t99.5 1v-23l-53 -6q-45 -6 -61.5 -20t-16.5 -42q0 -31 29 -116 l219 -580l176 490q53 146 53 196q0 63 -73 72l-56 6v23q19 0 83 -1t114 -1t98.5 1t69.5 1v-23l-39 -6q-56 -9 -93 -54t-79 -153l-295 -754h-18l-287 717l-279 -717h-18l-307 768q-45 113 -74 148.5t-88 44.5z" />
<glyph unicode="x" horiz-adv-x="1069" d="M20 -2v22l27 5q55 9 106.5 48.5t112.5 116.5l211 269l-246 342q-52 72 -88.5 100.5t-81.5 34.5l-28 4v23q19 0 93 -1t124 -1q51 0 138 1t106 1v-23l-60 -6q-65 -8 -65 -49q0 -36 34 -84l166 -244l142 193q61 82 61 122q0 27 -19 42.5t-65 21.5l-29 4v23q19 0 85 -1 t116 -1t95.5 1t66.5 1v-23l-27 -4q-54 -9 -105 -48t-114 -118l-188 -240l268 -370q52 -72 88.5 -100.5t81.5 -34.5l29 -5v-22q-19 0 -93 1t-124 1q-51 0 -138 -1t-106 -1v22l59 7q66 8 66 49q0 35 -35 84l-188 272l-164 -221q-62 -83 -62 -123q0 -27 19 -42t65 -21l29 -5 v-22q-19 0 -85 1t-116 1t-95.5 -1t-66.5 -1z" />
<glyph unicode="y" horiz-adv-x="1069" d="M-4 940v23q19 0 96 -1t127 -1q51 0 134 1t102 1v-23l-54 -6q-45 -6 -61 -20t-16 -42q0 -38 28 -116l236 -590l196 500q54 137 54 196q0 63 -74 72l-55 6v23q19 0 82.5 -1t113.5 -1t98.5 1t69.5 1v-23l-39 -6q-56 -9 -89 -49t-83 -158l-395 -942q-52 -123 -106 -175 t-119 -52q-42 0 -64 23.5t-22 62.5q0 53 64 82q44 20 110 20q29 0 63 -4q70 133 123 260l-315 739q-51 120 -77 152t-85 41z" />
<glyph unicode="z" horiz-adv-x="946" d="M47 14l633 908h-303q-68 0 -108 -13.5t-65.5 -42t-53.5 -86.5l-27 -55h-25l39 264h13q21 -16 48.5 -22t108 -8.5t277.5 -2.5h276l10 -14l-632 -907h356q99 0 146 28.5t94 112.5l30 55h25l-53 -231h-779z" />
<glyph unicode="{" horiz-adv-x="778" d="M35 657v29h16q149 0 213 41.5t64 128.5q0 55 -32 161.5t-32 170.5q0 117 96 199t334 147l8 -25q-96 -32 -151.5 -58.5t-83.5 -58.5t-35.5 -62.5t-7.5 -82.5q0 -47 31.5 -164t31.5 -178q0 -97 -73.5 -150t-220.5 -83q147 -30 220.5 -83.5t73.5 -150.5q0 -61 -31.5 -178 t-31.5 -164q0 -52 7.5 -82.5t35.5 -62.5t83.5 -58.5t151.5 -58.5l-8 -24q-238 65 -334 147t-96 199q0 64 32 170t32 161q0 87 -64 128.5t-213 41.5h-16z" />
<glyph unicode="|" horiz-adv-x="368" d="M164 -451v2048h41v-2048h-41z" />
<glyph unicode="}" horiz-adv-x="778" d="M76 -166q96 32 151.5 58.5t83.5 58.5t35.5 62.5t7.5 82.5q0 47 -31.5 164t-31.5 178q0 97 74 150.5t221 83.5q-147 30 -221 83t-74 150q0 61 31.5 178t31.5 164q0 52 -7.5 82.5t-35.5 62.5t-83.5 58.5t-151.5 58.5l8 25q238 -65 334 -147t96 -199q0 -64 -31.5 -170.5 t-31.5 -161.5q0 -87 63.5 -128.5t212.5 -41.5h16v-29h-16q-149 0 -212.5 -41.5t-63.5 -128.5q0 -55 31.5 -161t31.5 -170q0 -117 -96 -199t-334 -147z" />
<glyph unicode="~" horiz-adv-x="749" d="M63 451q46 117 85 156.5t102 39.5q44 0 147.5 -18.5t141.5 -18.5q43 0 70.5 16t58.5 66l18 -8q-46 -118 -84.5 -157.5t-101.5 -39.5q-44 0 -147.5 18.5t-141.5 18.5q-43 0 -70.5 -16t-58.5 -66z" />
<glyph unicode="&#xa1;" horiz-adv-x="491" d="M135 1300q0 46 32 78.5t79 32.5t78.5 -32.5t31.5 -78.5t-31.5 -78t-78.5 -32t-79 32t-32 78zM152 86l81 956h25l82 -956q4 -59 -17 -79.5t-77 -20.5t-77 20.5t-17 79.5z" />
<glyph unicode="&#xa2;" horiz-adv-x="1003" d="M78 444q0 112 36.5 212t98 172.5t145 117t174.5 51.5l15 213l39 -4l-15 -207q146 -1 235 -54t89 -118q0 -50 -31.5 -80t-75.5 -30q-48 0 -75.5 43.5t-34.5 150.5q-45 37 -111 43l-59 -854q46 -12 94 -12q82 0 146 23.5t145 81.5l16 -17q-83 -90 -174 -140t-209 -50h-26 l-15 -201l-39 4l15 201q-175 22 -279 147t-104 307zM233 545q0 -158 63.5 -271.5t172.5 -158.5l59 839q-136 -6 -215.5 -114t-79.5 -295z" />
<glyph unicode="&#xa3;" horiz-adv-x="1013" d="M35 20q76 41 125 76t92.5 84t63.5 112t20 144q0 111 -57 246h-207v41h190q-4 10 -19.5 47t-21 51t-18 45.5t-17.5 50.5t-12 46.5t-9.5 52t-2.5 49.5q0 163 119 258.5t299 95.5q149 0 253.5 -53.5t104.5 -124.5q0 -44 -23 -67t-65 -23q-54 0 -101 50t-79 155 q-48 20 -121 20q-123 0 -188.5 -56t-65.5 -159q0 -63 25.5 -134t67.5 -159t61 -145h303v-41h-291q22 -74 22 -150q0 -127 -58 -225.5t-167 -181.5h297q116 0 177.5 14t103.5 51t88 117l39 68h20l-123 -375h-811z" />
<glyph unicode="&#xa4;" d="M47 690v21q254 15 375 33.5t192 64.5q-29 57 -87 128t-160 179l14 14q111 -104 180 -161t125 -86q47 69 67 191.5t35 369.5h21q17 -253 36 -372t64 -189q56 28 124 84t184 163l14 -14q-103 -110 -161 -180.5t-87 -126.5q70 -47 189 -64.5t378 -33.5v-21 q-254 -16 -375.5 -34.5t-191.5 -65.5q49 -93 248 -305l-14 -15q-213 201 -306 248q-47 -69 -67 -191.5t-35 -369.5h-21q-17 253 -36 372t-64 189q-56 -28 -121.5 -82.5t-185.5 -165.5l-14 15q197 209 247 305q-70 48 -189 66t-378 34z" />
<glyph unicode="&#xa5;" horiz-adv-x="1310" d="M-20 1380v23q16 0 115 -2t143 -2t170.5 2t142.5 2v-23l-84 -10q-98 -12 -98 -72q0 -35 39 -106l311 -545l252 471q49 96 49 148q0 90 -113 106l-59 8v23q16 0 115 -2t143 -2t126.5 2t98.5 2v-23l-45 -6q-63 -9 -113.5 -52t-95.5 -124l-282 -506h329v-41h-352l-31 -55 v-150h383v-40h-383v-113q0 -82 6 -128t24.5 -75.5t46 -41t77.5 -17.5l80 -11v-22q-15 0 -141 2t-170 2t-170.5 -2t-141.5 -2v22l80 11q50 6 77.5 17.5t46 41t24.5 75.5t6 128v113h-383v40h383v138l-39 67h-344v41h319l-299 510q-50 85 -94 122t-104 48z" />
<glyph unicode="&#xa6;" d="M47 690v21q254 15 375 33.5t192 64.5q-29 57 -87 128t-160 179l14 14q111 -104 180 -161t125 -86q47 69 67 191.5t35 369.5h21q17 -253 36 -372t64 -189q56 28 124 84t184 163l14 -14q-103 -110 -161 -180.5t-87 -126.5q70 -47 189 -64.5t378 -33.5v-21 q-254 -16 -375.5 -34.5t-191.5 -65.5q49 -93 248 -305l-14 -15q-213 201 -306 248q-47 -69 -67 -191.5t-35 -369.5h-21q-17 253 -36 372t-64 189q-56 -28 -121.5 -82.5t-185.5 -165.5l-14 15q197 209 247 305q-70 48 -189 66t-378 34z" />
<glyph unicode="&#xa7;" horiz-adv-x="1011" d="M78 803q0 117 52.5 233.5t133 201t181 137t192.5 52.5q81 0 124.5 -28.5t43.5 -77.5q0 -38 -25 -61t-63 -23q-71 0 -223 111q-160 -62 -258 -222q152 -16 269.5 -48.5t198.5 -78.5t132.5 -108t74.5 -134t23 -159q0 -117 -52.5 -233.5t-133 -201t-181 -137.5t-192.5 -53 q-81 0 -124.5 29t-43.5 78q0 38 25 61t63 23q71 0 223 -111q162 63 256 221q-189 20 -324 65t-216.5 113.5t-118.5 154.5t-37 196zM154 862q0 -133 66 -222t217.5 -146.5t400.5 -81.5q20 61 20 127q0 133 -66 222t-217.5 146.5t-400.5 81.5q-20 -61 -20 -127z" />
<glyph unicode="&#xa8;" horiz-adv-x="1024" d="M231 1231q0 43 31.5 73.5t75.5 30.5t75 -30.5t31 -73.5q0 -44 -31 -75.5t-75 -31.5t-75.5 31.5t-31.5 75.5zM580 1231q0 43 31 73.5t75 30.5t75.5 -30.5t31.5 -73.5q0 -44 -31.5 -75.5t-75.5 -31.5t-75 31.5t-31 75.5z" />
<glyph unicode="&#xa9;" horiz-adv-x="1638" d="M88 700q0 152 56.5 288t154 233t233 154t287.5 57t287.5 -57t233 -154t154 -233t56.5 -288t-56.5 -287.5t-154 -233t-233 -154t-287.5 -56.5t-287.5 56.5t-233 154t-154 233t-56.5 287.5zM137 700q0 -192 88.5 -349.5t245.5 -248t348 -90.5t348 90.5t245.5 248 t88.5 349.5q0 144 -52.5 271.5t-142.5 219t-217 145t-270 53.5t-270 -53.5t-217 -145t-142.5 -219t-52.5 -271.5zM397 711q0 98 39 182t102 139.5t142 87t160 31.5q157 0 272 -61l31 -181h-19l-18 35q-39 84 -103 131t-169 47q-143 0 -228.5 -107t-85.5 -294 q0 -195 93 -308.5t245 -113.5q99 0 160.5 42.5t103.5 135.5l17 37l20 -2l-31 -176q-121 -66 -282 -66q-195 0 -322 120t-127 321z" />
<glyph unicode="&#xaa;" horiz-adv-x="645" d="M102 969q0 50 38.5 83t133.5 66q130 38 134 39v74q0 75 -23.5 110t-73.5 35q-34 0 -63 -16q-9 -125 -66 -125q-55 0 -55 49q0 35 73 80t148 45q82 0 117 -42.5t35 -133.5v-266q0 -40 9.5 -56t33.5 -16q20 0 30 2l7 -14q-6 -2 -20.5 -7.5t-22 -8t-20.5 -5t-25 -2.5 q-75 0 -84 80q-95 -84 -179 -84q-56 0 -91.5 29.5t-35.5 83.5zM104 688v41h463v-41h-463zM197 993q0 -88 79 -88q63 0 132 60v168q-90 -26 -125 -39q-86 -36 -86 -101z" />
<glyph unicode="&#xab;" horiz-adv-x="1003" d="M57 481l469 494l19 -12l-297 -482l297 -483l-19 -10zM434 481l469 494l19 -12l-297 -482l297 -483l-19 -10z" />
<glyph unicode="&#xac;" d="M47 690v21q254 15 375 33.5t192 64.5q-29 57 -87 128t-160 179l14 14q111 -104 180 -161t125 -86q47 69 67 191.5t35 369.5h21q17 -253 36 -372t64 -189q56 28 124 84t184 163l14 -14q-103 -110 -161 -180.5t-87 -126.5q70 -47 189 -64.5t378 -33.5v-21 q-254 -16 -375.5 -34.5t-191.5 -65.5q49 -93 248 -305l-14 -15q-213 201 -306 248q-47 -69 -67 -191.5t-35 -369.5h-21q-17 253 -36 372t-64 189q-56 -28 -121.5 -82.5t-185.5 -165.5l-14 15q197 209 247 305q-70 48 -189 66t-378 34z" />
<glyph unicode="&#xad;" horiz-adv-x="675" d="M76 532v70h524v-70h-524z" />
<glyph unicode="&#xae;" horiz-adv-x="696" d="M66 1130q0 120 81 201.5t201 81.5t201.5 -81.5t81.5 -201.5t-81.5 -201t-201.5 -81t-201 81t-81 201zM94 1130q0 -109 73 -184.5t181 -75.5t181 75.5t73 184.5t-73 185t-181 76t-181 -76t-73 -185zM215 981v16l21 2q14 3 18 13t4 39v180q0 29 -4 38.5t-18 12.5l-21 2v16 h70h67q52 0 81.5 -22t29.5 -61q0 -55 -74 -84l62 -89q19 -29 33 -38t40 -7v-18q-18 -2 -35 -2q-55 0 -90 53l-61 90q-6 0 -17 1t-14 1v-73q0 -30 3.5 -39.5t17.5 -12.5l26 -2v-16h-71h-68zM307 1145q4 0 14 -1t15 -1q74 0 74 69q0 70 -64 70q-23 0 -39 -4v-133z" />
<glyph unicode="&#xaf;" horiz-adv-x="1024" d="M225 1141v106h574v-106h-574z" />
<glyph unicode="&#xb0;" horiz-adv-x="634" d="M82 1178q0 100 68.5 167.5t168.5 67.5t167 -67.5t67 -167.5t-69 -168t-169 -68q-99 0 -166 68t-67 168zM133 1178q0 -84 51 -139.5t133 -55.5t133.5 55.5t51.5 139.5t-51.5 139t-133.5 55t-133 -55t-51 -139z" />
<glyph unicode="&#xb1;" horiz-adv-x="1730" d="M37 881v16l162 51v4q0 139 63 256.5t173 186.5t241 69q155 0 270 -88q132 129 295 129q115 0 215 -49l66 49l30 -24v-1241q0 -94 8 -133.5t30 -56t75 -23.5l41 -7v-22q-21 0 -100 1t-129 1q-51 0 -130.5 -1t-99.5 -1v22l43 7q50 7 71 24t29.5 57t8.5 132v641h-461v-641 q0 -57 3 -89.5t10.5 -57.5t25.5 -36.5t41 -18t65 -11.5l54 -7v-22q-30 0 -128.5 1t-146.5 1q-51 0 -130 -1t-99 -1v22l43 7q50 7 71 24t29 57t8 132v641h-432v-641q0 -94 8 -133.5t30 -56t75 -23.5l41 -7v-22q-21 0 -100.5 1t-129.5 1q-51 0 -130 -1t-99 -1v22l43 7 q50 7 71 24t29.5 57t8.5 132v641h-162zM352 950h432v25q0 160 84 299q-110 141 -258 141q-114 0 -186 -87.5t-72 -276.5v-101zM938 950h461v248q0 118 -53 185t-154 67q-254 0 -254 -358v-142z" />
<glyph unicode="&#xb2;" d="M47 690v21q254 15 375 33.5t192 64.5q-29 57 -87 128t-160 179l14 14q111 -104 180 -161t125 -86q47 69 67 191.5t35 369.5h21q17 -253 36 -372t64 -189q56 28 124 84t184 163l14 -14q-103 -110 -161 -180.5t-87 -126.5q70 -47 189 -64.5t378 -33.5v-21 q-254 -16 -375.5 -34.5t-191.5 -65.5q49 -93 248 -305l-14 -15q-213 201 -306 248q-47 -69 -67 -191.5t-35 -369.5h-21q-17 253 -36 372t-64 189q-56 -28 -121.5 -82.5t-185.5 -165.5l-14 15q197 209 247 305q-70 48 -189 66t-378 34z" />
<glyph unicode="&#xb3;" d="M47 690v21q254 15 375 33.5t192 64.5q-29 57 -87 128t-160 179l14 14q111 -104 180 -161t125 -86q47 69 67 191.5t35 369.5h21q17 -253 36 -372t64 -189q56 28 124 84t184 163l14 -14q-103 -110 -161 -180.5t-87 -126.5q70 -47 189 -64.5t378 -33.5v-21 q-254 -16 -375.5 -34.5t-191.5 -65.5q49 -93 248 -305l-14 -15q-213 201 -306 248q-47 -69 -67 -191.5t-35 -369.5h-21q-17 253 -36 372t-64 189q-56 -28 -121.5 -82.5t-185.5 -165.5l-14 15q197 209 247 305q-70 48 -189 66t-378 34z" />
<glyph unicode="&#xb4;" horiz-adv-x="1024" d="M344 1085l139 234q32 54 55 75t54 21q33 0 51.5 -19t18.5 -48q0 -30 -19 -55t-61 -56l-224 -164z" />
<glyph unicode="&#xb5;" d="M47 690v21q254 15 375 33.5t192 64.5q-29 57 -87 128t-160 179l14 14q111 -104 180 -161t125 -86q47 69 67 191.5t35 369.5h21q17 -253 36 -372t64 -189q56 28 124 84t184 163l14 -14q-103 -110 -161 -180.5t-87 -126.5q70 -47 189 -64.5t378 -33.5v-21 q-254 -16 -375.5 -34.5t-191.5 -65.5q49 -93 248 -305l-14 -15q-213 201 -306 248q-47 -69 -67 -191.5t-35 -369.5h-21q-17 253 -36 372t-64 189q-56 -28 -121.5 -82.5t-185.5 -165.5l-14 15q197 209 247 305q-70 48 -189 66t-378 34z" />
<glyph unicode="&#xb6;" horiz-adv-x="1105" d="M80 1014q0 127 64.5 216.5t166 130t228.5 40.5h524v-37h-182v-1364h-41v1364h-230v-1214q0 -85 -42 -127.5t-113 -42.5q-78 0 -131 61l28 27q46 -54 105 -54q112 0 112 133v486h-55q-117 0 -214 42.5t-158.5 131t-61.5 207.5z" />
<glyph unicode="&#xb7;" horiz-adv-x="430" d="M104 567q0 46 32 78.5t79 32.5t79 -32.5t32 -78.5t-32 -78t-79 -32t-79 32t-32 78z" />
<glyph unicode="&#xb8;" horiz-adv-x="1024" d="M340 -295q0 22 13 34.5t36 12.5q26 0 51.5 -14.5t67.5 -48.5q98 16 98 84q0 27 -37.5 43t-134.5 22l-6 8l84 154h37l-43 -78q97 -8 143.5 -33t46.5 -75q0 -70 -75 -115t-177 -45q-104 0 -104 51z" />
<glyph unicode="&#xb9;" d="M47 690v21q254 15 375 33.5t192 64.5q-29 57 -87 128t-160 179l14 14q111 -104 180 -161t125 -86q47 69 67 191.5t35 369.5h21q17 -253 36 -372t64 -189q56 28 124 84t184 163l14 -14q-103 -110 -161 -180.5t-87 -126.5q70 -47 189 -64.5t378 -33.5v-21 q-254 -16 -375.5 -34.5t-191.5 -65.5q49 -93 248 -305l-14 -15q-213 201 -306 248q-47 -69 -67 -191.5t-35 -369.5h-21q-17 253 -36 372t-64 189q-56 -28 -121.5 -82.5t-185.5 -165.5l-14 15q197 209 247 305q-70 48 -189 66t-378 34z" />
<glyph unicode="&#xba;" horiz-adv-x="665" d="M76 1137q0 118 74.5 196t181.5 78q110 0 184 -74.5t74 -208.5q0 -118 -74.5 -196t-181.5 -78q-110 0 -184 74.5t-74 208.5zM96 688v41h473v-41h-473zM180 1159q0 -123 48 -200.5t124 -77.5q133 0 133 225q0 123 -48 200.5t-124 77.5q-133 0 -133 -225z" />
<glyph unicode="&#xbb;" horiz-adv-x="1003" d="M82 -2l297 483l-297 482l18 12l469 -494l-469 -493zM459 -2l297 483l-297 482l18 12l469 -494l-469 -493z" />
<glyph unicode="&#xbc;" d="M47 690v21q254 15 375 33.5t192 64.5q-29 57 -87 128t-160 179l14 14q111 -104 180 -161t125 -86q47 69 67 191.5t35 369.5h21q17 -253 36 -372t64 -189q56 28 124 84t184 163l14 -14q-103 -110 -161 -180.5t-87 -126.5q70 -47 189 -64.5t378 -33.5v-21 q-254 -16 -375.5 -34.5t-191.5 -65.5q49 -93 248 -305l-14 -15q-213 201 -306 248q-47 -69 -67 -191.5t-35 -369.5h-21q-17 253 -36 372t-64 189q-56 -28 -121.5 -82.5t-185.5 -165.5l-14 15q197 209 247 305q-70 48 -189 66t-378 34z" />
<glyph unicode="&#xbd;" d="M47 690v21q254 15 375 33.5t192 64.5q-29 57 -87 128t-160 179l14 14q111 -104 180 -161t125 -86q47 69 67 191.5t35 369.5h21q17 -253 36 -372t64 -189q56 28 124 84t184 163l14 -14q-103 -110 -161 -180.5t-87 -126.5q70 -47 189 -64.5t378 -33.5v-21 q-254 -16 -375.5 -34.5t-191.5 -65.5q49 -93 248 -305l-14 -15q-213 201 -306 248q-47 -69 -67 -191.5t-35 -369.5h-21q-17 253 -36 372t-64 189q-56 -28 -121.5 -82.5t-185.5 -165.5l-14 15q197 209 247 305q-70 48 -189 66t-378 34z" />
<glyph unicode="&#xbe;" d="M47 690v21q254 15 375 33.5t192 64.5q-29 57 -87 128t-160 179l14 14q111 -104 180 -161t125 -86q47 69 67 191.5t35 369.5h21q17 -253 36 -372t64 -189q56 28 124 84t184 163l14 -14q-103 -110 -161 -180.5t-87 -126.5q70 -47 189 -64.5t378 -33.5v-21 q-254 -16 -375.5 -34.5t-191.5 -65.5q49 -93 248 -305l-14 -15q-213 201 -306 248q-47 -69 -67 -191.5t-35 -369.5h-21q-17 253 -36 372t-64 189q-56 -28 -121.5 -82.5t-185.5 -165.5l-14 15q197 209 247 305q-70 48 -189 66t-378 34z" />
<glyph unicode="&#xbf;" horiz-adv-x="716" d="M59 442q0 112 58.5 175.5t177.5 97.5q101 29 129.5 51t28.5 72q0 89 -9 200l27 4q33 -198 33 -337q0 -57 -29.5 -84.5t-114.5 -47.5q-122 -30 -171.5 -75.5t-49.5 -122.5q0 -97 53 -178t138 -127q34 34 80 57t86 23q50 0 80 -24t30 -58q0 -38 -29.5 -60t-87.5 -22 q-52 0 -110 19.5t-115 59t-102.5 92.5t-74 127.5t-28.5 157.5zM332 1300q0 46 31.5 78.5t78.5 32.5t79 -32.5t32 -78.5t-32 -78t-79 -32t-78.5 32t-31.5 78z" />
<glyph unicode="&#xc0;" horiz-adv-x="1449" d="M-20 -2v22l40 7q62 9 108 56t85 146l438 1102l105 107h18l477 -1237q32 -84 69.5 -123t90.5 -47l59 -8v-25q-16 0 -111.5 2t-139.5 2t-170 -2t-142 -2v22l76 9q102 11 102 92q0 50 -26 123l-121 317h-535l-90 -231q-39 -103 -39 -178q0 -53 28 -85t81 -38l72 -9v-22 q-16 0 -106 2t-134 2t-131.5 -2t-103.5 -2zM422 610h498l-246 647zM465 1767q0 29 18.5 48.5t51.5 19.5q31 0 53 -21t55 -75l139 -234l-14 -12l-223 164q-42 31 -61 56t-19 54z" />
<glyph unicode="&#xc1;" horiz-adv-x="1449" d="M-20 -2v22l40 7q62 9 108 56t85 146l438 1102l105 107h18l477 -1237q32 -84 69.5 -123t90.5 -47l59 -8v-25q-16 0 -111.5 2t-139.5 2t-170 -2t-142 -2v22l76 9q102 11 102 92q0 50 -26 123l-121 317h-535l-90 -231q-39 -103 -39 -178q0 -53 28 -85t81 -38l72 -9v-22 q-16 0 -106 2t-134 2t-131.5 -2t-103.5 -2zM422 610h498l-246 647zM635 1475l139 233q32 54 55 75t54 21q33 0 51 -19t18 -48q0 -30 -19 -55t-61 -56l-223 -164z" />
<glyph unicode="&#xc2;" horiz-adv-x="1449" d="M-20 -2v22l40 7q62 9 108 56t85 146l438 1102l105 107h18l477 -1237q32 -84 69.5 -123t90.5 -47l59 -8v-25q-16 0 -111.5 2t-139.5 2t-170 -2t-142 -2v22l76 9q102 11 102 92q0 50 -26 123l-121 317h-535l-90 -231q-39 -103 -39 -178q0 -53 28 -85t81 -38l72 -9v-22 q-16 0 -106 2t-134 2t-131.5 -2t-103.5 -2zM422 610h498l-246 647zM451 1415l260 324h49l260 -324l-16 -14l-269 186l-268 -186z" />
<glyph unicode="&#xc3;" horiz-adv-x="1449" d="M-20 -2v22l40 7q62 9 108 56t85 146l438 1102l105 107h18l477 -1237q32 -84 69.5 -123t90.5 -47l59 -8v-25q-16 0 -111.5 2t-139.5 2t-170 -2t-142 -2v22l76 9q102 11 102 92q0 50 -26 123l-121 317h-535l-90 -231q-39 -103 -39 -178q0 -53 28 -85t81 -38l72 -9v-22 q-16 0 -106 2t-134 2t-131.5 -2t-103.5 -2zM422 610h498l-246 647zM430 1473q46 118 84.5 157t101.5 39q44 0 147.5 -18.5t141.5 -18.5q43 0 70.5 16t58.5 66l19 -8q-46 -118 -85 -157.5t-102 -39.5q-44 0 -147 18.5t-141 18.5q-43 0 -70.5 -16t-58.5 -66z" />
<glyph unicode="&#xc4;" horiz-adv-x="1449" d="M-20 -2v22l40 7q62 9 108 56t85 146l438 1102l105 107h18l477 -1237q32 -84 69.5 -123t90.5 -47l59 -8v-25q-16 0 -111.5 2t-139.5 2t-170 -2t-142 -2v22l76 9q102 11 102 92q0 50 -26 123l-121 317h-535l-90 -231q-39 -103 -39 -178q0 -53 28 -85t81 -38l72 -9v-22 q-16 0 -106 2t-134 2t-131.5 -2t-103.5 -2zM422 610h498l-246 647zM455 1589q0 43 31 74t75 31t75.5 -31t31.5 -74q0 -44 -31.5 -75t-75.5 -31t-75 31t-31 75zM803 1589q0 43 31 74t75 31t75.5 -31t31.5 -74q0 -44 -31.5 -75t-75.5 -31t-75 31t-31 75z" />
<glyph unicode="&#xc5;" horiz-adv-x="1449" d="M-20 -2v22l40 7q62 9 108 56t85 146l438 1102l105 107h18l477 -1237q32 -84 69.5 -123t90.5 -47l59 -8v-25q-16 0 -111.5 2t-139.5 2t-170 -2t-142 -2v22l76 9q102 11 102 92q0 50 -26 123l-121 317h-535l-90 -231q-39 -103 -39 -178q0 -53 28 -85t81 -38l72 -9v-22 q-16 0 -106 2t-134 2t-131.5 -2t-103.5 -2zM422 610h498l-246 647zM573 1624q0 62 43.5 106t104.5 44t104 -44t43 -106q0 -60 -43.5 -103.5t-103.5 -43.5t-104 43.5t-44 103.5zM616 1624q0 -46 31 -79.5t74 -33.5t73.5 33.5t30.5 79.5t-30 80.5t-74 34.5t-74.5 -34.5 t-30.5 -80.5z" />
<glyph unicode="&#xc6;" horiz-adv-x="1898" d="M-37 -2v22l45 7q66 9 116 50.5t101 125.5l666 1120q-53 41 -139 51l-45 6v23q18 0 221 -2t246 -2q44 0 228 1t200 1h155l60 -258h-25l-37 61q-61 102 -123.5 132t-208.5 30h-57q-145 0 -229 -25v-593l192 4q153 3 204.5 30t61.5 115l11 84h28q0 -16 -2 -112t-2 -140 q0 -43 2 -133.5t2 -108.5h-28l-9 58q-13 96 -63 125t-205 32l-192 5v-412q0 -86 8 -133.5t33.5 -78t66.5 -39.5t115 -9h123q102 0 154.5 11.5t91.5 44t83 104.5l39 63h25l-59 -258h-215q-67 0 -231 1t-197 1q-43 0 -211.5 -2t-186.5 -2v22l76 11q51 7 75.5 30t35 75.5 t10.5 156.5v268h-473l-164 -278q-55 -94 -55 -156q0 -40 29 -65t81 -33l60 -9v-22q-16 0 -114 2t-142 2t-130 -2t-102 -2zM528 610h445v738h-12z" />
<glyph unicode="&#xc7;" horiz-adv-x="1433" d="M90 700q0 131 41.5 247.5t113.5 203t165 149.5t198.5 95t212.5 32q152 0 254.5 -25t196.5 -73l49 -293h-25l-26 58q-66 141 -175 220t-284 79q-242 0 -386 -180t-144 -494q0 -328 157 -519.5t412 -191.5q168 0 271 71.5t175 227.5l27 58h25l-50 -287q-195 -105 -469 -105 l-28 -51q97 -8 143.5 -33t46.5 -75q0 -70 -75 -115t-177 -45q-104 0 -104 51q0 22 13 34.5t36 12.5q26 0 51.5 -14.5t67.5 -48.5q98 16 98 84q0 27 -37.5 43t-134.5 22l-6 8l70 127q-150 6 -278.5 59t-223 145t-148 226.5t-53.5 296.5z" />
<glyph unicode="&#xc8;" horiz-adv-x="1175" d="M45 -2v22l76 11q51 7 75.5 30t35 75.5t10.5 156.5v815q0 104 -10.5 156.5t-35 75.5t-75.5 30l-76 10v23q18 0 186 -2t211 -2q44 0 220 1t192 1h172l59 -258h-24l-37 61q-61 102 -123.5 132t-208.5 30h-57q-145 0 -229 -25v-593l192 4q153 3 204.5 30t61.5 115l10 84h29 q0 -16 -2 -112t-2 -140q0 -43 2 -133.5t2 -108.5h-29l-8 58q-13 96 -63 125t-205 32l-192 5v-412q0 -86 8 -133.5t33.5 -78t66.5 -39.5t115 -9h123q102 0 154.5 11.5t91.5 44t83 104.5l39 63h25l-60 -258h-223q-67 0 -227 1t-193 1q-43 0 -211 -2t-186 -2zM373 1747 q0 29 18.5 48.5t50.5 19.5q31 0 53.5 -21.5t55.5 -75.5l139 -233l-14 -12l-223 163q-42 31 -61 56t-19 55z" />
<glyph unicode="&#xc9;" horiz-adv-x="1175" d="M45 -2v22l76 11q51 7 75.5 30t35 75.5t10.5 156.5v815q0 104 -10.5 156.5t-35 75.5t-75.5 30l-76 10v23q18 0 186 -2t211 -2q44 0 220 1t192 1h172l59 -258h-24l-37 61q-61 102 -123.5 132t-208.5 30h-57q-145 0 -229 -25v-593l192 4q153 3 204.5 30t61.5 115l10 84h29 q0 -16 -2 -112t-2 -140q0 -43 2 -133.5t2 -108.5h-29l-8 58q-13 96 -63 125t-205 32l-192 5v-412q0 -86 8 -133.5t33.5 -78t66.5 -39.5t115 -9h123q102 0 154.5 11.5t91.5 44t83 104.5l39 63h25l-60 -258h-223q-67 0 -227 1t-193 1q-43 0 -211 -2t-186 -2zM498 1485l139 233 q33 55 55 76t53 21q33 0 51.5 -19.5t18.5 -48.5q0 -30 -19 -55t-61 -56l-223 -163z" />
<glyph unicode="&#xca;" horiz-adv-x="1175" d="M45 -2v22l76 11q51 7 75.5 30t35 75.5t10.5 156.5v815q0 104 -10.5 156.5t-35 75.5t-75.5 30l-76 10v23q18 0 186 -2t211 -2q44 0 220 1t192 1h172l59 -258h-24l-37 61q-61 102 -123.5 132t-208.5 30h-57q-145 0 -229 -25v-593l192 4q153 3 204.5 30t61.5 115l10 84h29 q0 -16 -2 -112t-2 -140q0 -43 2 -133.5t2 -108.5h-29l-8 58q-13 96 -63 125t-205 32l-192 5v-412q0 -86 8 -133.5t33.5 -78t66.5 -39.5t115 -9h123q102 0 154.5 11.5t91.5 44t83 104.5l39 63h25l-60 -258h-223q-67 0 -227 1t-193 1q-43 0 -211 -2t-186 -2zM313 1487l260 323 h50l260 -323l-17 -14l-268 186l-268 -186z" />
<glyph unicode="&#xcb;" horiz-adv-x="1175" d="M45 -2v22l76 11q51 7 75.5 30t35 75.5t10.5 156.5v815q0 104 -10.5 156.5t-35 75.5t-75.5 30l-76 10v23q18 0 186 -2t211 -2q44 0 220 1t192 1h172l59 -258h-24l-37 61q-61 102 -123.5 132t-208.5 30h-57q-145 0 -229 -25v-593l192 4q153 3 204.5 30t61.5 115l10 84h29 q0 -16 -2 -112t-2 -140q0 -43 2 -133.5t2 -108.5h-29l-8 58q-13 96 -63 125t-205 32l-192 5v-412q0 -86 8 -133.5t33.5 -78t66.5 -39.5t115 -9h123q102 0 154.5 11.5t91.5 44t83 104.5l39 63h25l-60 -258h-223q-67 0 -227 1t-193 1q-43 0 -211 -2t-186 -2zM317 1599 q0 43 31.5 74t75.5 31t75 -31t31 -74q0 -44 -31 -75t-75 -31t-75.5 31t-31.5 75zM666 1599q0 43 31 74t75 31t75.5 -31t31.5 -74q0 -44 -31.5 -75t-75.5 -31t-75 31t-31 75z" />
<glyph unicode="&#xcc;" horiz-adv-x="679" d="M25 -2v22l79 11q50 6 77.5 17.5t46 41t24.5 75.5t6 128v815q0 82 -6 128t-24.5 75.5t-46 41t-77.5 17.5l-79 10v23q15 0 143 -2t172 -2t172 2t143 2v-23l-80 -10q-66 -8 -96.5 -29.5t-43.5 -73t-13 -159.5v-815q0 -108 13 -159.5t43.5 -73t96.5 -29.5l80 -11v-22 q-15 0 -143 2t-172 2t-172 -2t-143 -2zM90 1737q0 29 18.5 48t51.5 19q31 0 53 -21t55 -75l140 -233l-15 -13l-223 164q-42 31 -61 56t-19 55z" />
<glyph unicode="&#xcd;" horiz-adv-x="679" d="M25 -2v22l79 11q50 6 77.5 17.5t46 41t24.5 75.5t6 128v815q0 82 -6 128t-24.5 75.5t-46 41t-77.5 17.5l-79 10v23q15 0 143 -2t172 -2t172 2t143 2v-23l-80 -10q-66 -8 -96.5 -29.5t-43.5 -73t-13 -159.5v-815q0 -108 13 -159.5t43.5 -73t96.5 -29.5l80 -11v-22 q-15 0 -143 2t-172 2t-172 -2t-143 -2zM266 1475l140 233q33 54 55 75t53 21q33 0 51.5 -19t18.5 -48q0 -30 -19 -55t-61 -56l-223 -164z" />
<glyph unicode="&#xce;" horiz-adv-x="679" d="M25 -2v22l79 11q50 6 77.5 17.5t46 41t24.5 75.5t6 128v815q0 82 -6 128t-24.5 75.5t-46 41t-77.5 17.5l-79 10v23q15 0 143 -2t172 -2t172 2t143 2v-23l-80 -10q-66 -8 -96.5 -29.5t-43.5 -73t-13 -159.5v-815q0 -108 13 -159.5t43.5 -73t96.5 -29.5l80 -11v-22 q-15 0 -143 2t-172 2t-172 -2t-143 -2zM55 1487l260 323h50l260 -323l-17 -14l-268 186l-268 -186z" />
<glyph unicode="&#xcf;" horiz-adv-x="679" d="M25 -2v22l79 11q50 6 77.5 17.5t46 41t24.5 75.5t6 128v815q0 82 -6 128t-24.5 75.5t-46 41t-77.5 17.5l-79 10v23q15 0 143 -2t172 -2t172 2t143 2v-23l-80 -10q-66 -8 -96.5 -29.5t-43.5 -73t-13 -159.5v-815q0 -108 13 -159.5t43.5 -73t96.5 -29.5l80 -11v-22 q-15 0 -143 2t-172 2t-172 -2t-143 -2zM59 1599q0 43 31.5 74t75.5 31t75 -31t31 -74q0 -44 -31 -75t-75 -31t-75.5 31t-31.5 75zM408 1599q0 43 31 74t75 31t75.5 -31t31.5 -74q0 -44 -31.5 -75t-75.5 -31t-75 31t-31 75z" />
<glyph unicode="&#xd0;" horiz-adv-x="1531" d="M59 688v41h213v379q0 105 -10 156.5t-34.5 75t-75.5 30.5l-76 10v23q17 0 124 -2t150 -2q40 0 111 2t121 2q185 0 339.5 -45t268.5 -131t178 -221t64 -306q0 -172 -59.5 -308.5t-163.5 -221.5t-239 -129.5t-292 -44.5q-116 0 -199 3t-119 3q-43 0 -155 -2t-129 -2v22 l76 11q51 7 75.5 30.5t34.5 75t10 156.5v395h-213zM436 293q0 -68 7.5 -111t24 -74.5t50 -47t79.5 -22.5t118 -7q116 0 210.5 38t166 114.5t110.5 202.5t39 292q0 333 -181 511.5t-487 178.5q-87 0 -137 -18v-621h355v-41h-355v-395z" />
<glyph unicode="&#xd1;" horiz-adv-x="1570" d="M18 1380v23q90 -4 175 -4q77 0 165 6l949 -1131l-7 844q-1 74 -10.5 121t-31.5 74.5t-50 40t-75 18.5l-58 8v23q16 0 112 -2t140 -2q43 0 129.5 2t104.5 2v-23l-29 -4q-48 -7 -76.5 -18.5t-51 -39.5t-32 -76.5t-10.5 -125.5l-6 -1134h-21l-1020 1210l7 -909 q1 -74 10.5 -121t31.5 -74.5t50 -40t75 -18.5l58 -9v-22q-16 0 -112 2t-140 2q-43 0 -129.5 -2t-104.5 -2v22l29 5q48 6 76.5 18.5t51 40.5t32 76.5t10.5 124.5l6 966q-92 101 -213 123zM494 1468q46 118 84.5 157.5t101.5 39.5q44 0 147.5 -18.5t141.5 -18.5q43 0 70.5 16 t58.5 66l18 -8q-46 -118 -84.5 -157.5t-101.5 -39.5q-44 0 -147.5 18.5t-141.5 18.5q-43 0 -70.5 -16t-58.5 -66z" />
<glyph unicode="&#xd2;" horiz-adv-x="1564" d="M94 700q0 164 55.5 302.5t149.5 230.5t219 143t264 51q201 0 356.5 -86.5t243.5 -252.5t88 -388q0 -164 -55.5 -302.5t-149.5 -230.5t-219 -143t-264 -51q-201 0 -356.5 86.5t-243.5 252.5t-88 388zM285 760q0 -222 60.5 -391t181 -265t286.5 -96q218 0 342.5 167.5 t124.5 465.5q0 222 -60.5 391t-181 265t-286.5 96q-218 0 -342.5 -167.5t-124.5 -465.5zM553 1757q0 29 18.5 48.5t51.5 19.5q31 0 53 -21t55 -75l139 -234l-14 -12l-223 164q-42 31 -61 56t-19 54z" />
<glyph unicode="&#xd3;" horiz-adv-x="1564" d="M94 700q0 164 55.5 302.5t149.5 230.5t219 143t264 51q201 0 356.5 -86.5t243.5 -252.5t88 -388q0 -164 -55.5 -302.5t-149.5 -230.5t-219 -143t-264 -51q-201 0 -356.5 86.5t-243.5 252.5t-88 388zM285 760q0 -222 60.5 -391t181 -265t286.5 -96q218 0 342.5 167.5 t124.5 465.5q0 222 -60.5 391t-181 265t-286.5 96q-218 0 -342.5 -167.5t-124.5 -465.5zM631 1495l139 234q32 54 55 75t54 21q32 0 50.5 -19.5t18.5 -48.5t-19 -54t-61 -56l-223 -164z" />
<glyph unicode="&#xd4;" horiz-adv-x="1564" d="M94 700q0 164 55.5 302.5t149.5 230.5t219 143t264 51q201 0 356.5 -86.5t243.5 -252.5t88 -388q0 -164 -55.5 -302.5t-149.5 -230.5t-219 -143t-264 -51q-201 0 -356.5 86.5t-243.5 252.5t-88 388zM285 760q0 -222 60.5 -391t181 -265t286.5 -96q218 0 342.5 167.5 t124.5 465.5q0 222 -60.5 391t-181 265t-286.5 96q-218 0 -342.5 -167.5t-124.5 -465.5zM473 1477l260 323h49l260 -323l-16 -15l-268 187l-269 -187z" />
<glyph unicode="&#xd5;" horiz-adv-x="1564" d="M94 700q0 164 55.5 302.5t149.5 230.5t219 143t264 51q201 0 356.5 -86.5t243.5 -252.5t88 -388q0 -164 -55.5 -302.5t-149.5 -230.5t-219 -143t-264 -51q-201 0 -356.5 86.5t-243.5 252.5t-88 388zM285 760q0 -222 60.5 -391t181 -265t286.5 -96q218 0 342.5 167.5 t124.5 465.5q0 222 -60.5 391t-181 265t-286.5 96q-218 0 -342.5 -167.5t-124.5 -465.5zM451 1493q46 118 84.5 157.5t101.5 39.5q44 0 147.5 -18.5t141.5 -18.5q43 0 70.5 16t58.5 66l18 -9q-46 -118 -84.5 -157t-101.5 -39q-44 0 -147.5 18.5t-141.5 18.5q-43 0 -70.5 -16 t-58.5 -66z" />
<glyph unicode="&#xd6;" horiz-adv-x="1564" d="M94 700q0 164 55.5 302.5t149.5 230.5t219 143t264 51q201 0 356.5 -86.5t243.5 -252.5t88 -388q0 -164 -55.5 -302.5t-149.5 -230.5t-219 -143t-264 -51q-201 0 -356.5 86.5t-243.5 252.5t-88 388zM285 760q0 -222 60.5 -391t181 -265t286.5 -96q218 0 342.5 167.5 t124.5 465.5q0 222 -60.5 391t-181 265t-286.5 96q-218 0 -342.5 -167.5t-124.5 -465.5zM477 1620q0 43 31.5 73.5t75.5 30.5t75 -30.5t31 -73.5q0 -44 -31 -75.5t-75 -31.5t-75.5 31.5t-31.5 75.5zM825 1620q0 43 31.5 73.5t75.5 30.5t75 -30.5t31 -73.5q0 -44 -31 -75.5 t-75 -31.5t-75.5 31.5t-31.5 75.5z" />
<glyph unicode="&#xd7;" d="M47 690v21q254 15 375 33.5t192 64.5q-29 57 -87 128t-160 179l14 14q111 -104 180 -161t125 -86q47 69 67 191.5t35 369.5h21q17 -253 36 -372t64 -189q56 28 124 84t184 163l14 -14q-103 -110 -161 -180.5t-87 -126.5q70 -47 189 -64.5t378 -33.5v-21 q-254 -16 -375.5 -34.5t-191.5 -65.5q49 -93 248 -305l-14 -15q-213 201 -306 248q-47 -69 -67 -191.5t-35 -369.5h-21q-17 253 -36 372t-64 189q-56 -28 -121.5 -82.5t-185.5 -165.5l-14 15q197 209 247 305q-70 48 -189 66t-378 34z" />
<glyph unicode="&#xd8;" horiz-adv-x="1564" d="M94 700q0 164 55.5 302.5t149.5 230.5t219 143t264 51q264 0 449 -149l139 170l33 -23l-143 -174q210 -197 210 -551q0 -164 -55.5 -302.5t-149.5 -230.5t-219 -143t-264 -51q-262 0 -448 150l-139 -170l-33 22l143 175q-211 198 -211 550zM285 760q0 -303 110 -500 l752 916q-143 217 -395 217q-218 0 -342.5 -167.5t-124.5 -465.5zM418 225q143 -217 395 -217q218 0 342.5 167.5t124.5 465.5q0 301 -111 500z" />
<glyph unicode="&#xd9;" horiz-adv-x="1550" d="M25 1380v23q18 0 126.5 -2t151.5 -2q44 0 166.5 2t138.5 2v-23l-94 -12q-54 -7 -80.5 -30t-37.5 -75t-11 -155v-610q0 -235 111 -343t321 -108q212 0 338 118.5t123 342.5l-6 610q-1 97 -20 150.5t-52.5 74t-95.5 29.5l-57 8v23q16 0 111.5 -2t139.5 -2q43 0 129.5 2 t104.5 2v-23l-29 -4q-63 -9 -97 -30t-53 -75.5t-20 -154.5l-6 -610q-3 -254 -144.5 -391.5t-410.5 -137.5q-274 0 -412.5 127.5t-138.5 362.5v641q0 104 -10.5 156.5t-35 75.5t-75.5 30zM516 1737q0 29 18.5 48t51.5 19q31 0 53 -21t55 -75l140 -233l-15 -13l-223 164 q-42 31 -61 56t-19 55z" />
<glyph unicode="&#xda;" horiz-adv-x="1550" d="M25 1380v23q18 0 126.5 -2t151.5 -2q44 0 166.5 2t138.5 2v-23l-94 -12q-54 -7 -80.5 -30t-37.5 -75t-11 -155v-610q0 -235 111 -343t321 -108q212 0 338 118.5t123 342.5l-6 610q-1 97 -20 150.5t-52.5 74t-95.5 29.5l-57 8v23q16 0 111.5 -2t139.5 -2q43 0 129.5 2 t104.5 2v-23l-29 -4q-63 -9 -97 -30t-53 -75.5t-20 -154.5l-6 -610q-3 -254 -144.5 -391.5t-410.5 -137.5q-274 0 -412.5 127.5t-138.5 362.5v641q0 104 -10.5 156.5t-35 75.5t-75.5 30zM702 1475l140 233q33 54 55 75t53 21q33 0 51.5 -19t18.5 -48q0 -30 -19 -55t-61 -56 l-223 -164z" />
<glyph unicode="&#xdb;" horiz-adv-x="1550" d="M25 1380v23q18 0 126.5 -2t151.5 -2q44 0 166.5 2t138.5 2v-23l-94 -12q-54 -7 -80.5 -30t-37.5 -75t-11 -155v-610q0 -235 111 -343t321 -108q212 0 338 118.5t123 342.5l-6 610q-1 97 -20 150.5t-52.5 74t-95.5 29.5l-57 8v23q16 0 111.5 -2t139.5 -2q43 0 129.5 2 t104.5 2v-23l-29 -4q-63 -9 -97 -30t-53 -75.5t-20 -154.5l-6 -610q-3 -254 -144.5 -391.5t-410.5 -137.5q-274 0 -412.5 127.5t-138.5 362.5v641q0 104 -10.5 156.5t-35 75.5t-75.5 30zM518 1487l260 323h49l260 -323l-16 -14l-268 186l-268 -186z" />
<glyph unicode="&#xdc;" horiz-adv-x="1550" d="M25 1380v23q18 0 126.5 -2t151.5 -2q44 0 166.5 2t138.5 2v-23l-94 -12q-54 -7 -80.5 -30t-37.5 -75t-11 -155v-610q0 -235 111 -343t321 -108q212 0 338 118.5t123 342.5l-6 610q-1 97 -20 150.5t-52.5 74t-95.5 29.5l-57 8v23q16 0 111.5 -2t139.5 -2q43 0 129.5 2 t104.5 2v-23l-29 -4q-63 -9 -97 -30t-53 -75.5t-20 -154.5l-6 -610q-3 -254 -144.5 -391.5t-410.5 -137.5q-274 0 -412.5 127.5t-138.5 362.5v641q0 104 -10.5 156.5t-35 75.5t-75.5 30zM516 1599q0 43 31.5 74t75.5 31t75 -31t31 -74q0 -44 -31 -75t-75 -31t-75.5 31 t-31.5 75zM864 1599q0 43 31.5 74t75.5 31t75 -31t31 -74q0 -44 -31 -75t-75 -31t-75.5 31t-31.5 75z" />
<glyph unicode="&#xdd;" horiz-adv-x="1437" d="M-31 1380v23q16 0 116 -2t144 -2t172 2t144 2v-23l-82 -10q-90 -11 -90 -65q0 -43 51 -119l362 -535l293 467q64 99 64 158q0 40 -28 65t-79 31l-59 8v23q16 0 116 -2t144 -2t129.5 2t101.5 2v-23l-45 -6q-65 -9 -117.5 -50.5t-107.5 -125.5l-385 -590v-315q0 -82 6 -128 t24.5 -75.5t46 -41t77.5 -17.5l80 -11v-22q-15 0 -143.5 2t-172.5 2t-172 -2t-143 -2v22l80 11q66 8 96.5 29.5t43.5 73t13 159.5v291l-428 616q-61 88 -104.5 125t-102.5 47zM707 1475l139 233q33 54 55 75t53 21q33 0 51.5 -19t18.5 -48q0 -30 -19 -55t-61 -56l-223 -164z " />
<glyph unicode="&#xde;" horiz-adv-x="1173" d="M45 -2v22l76 11q51 7 75.5 30t35 75.5t10.5 156.5v815q0 152 -23.5 202.5t-97.5 59.5l-76 10v23q18 0 132 -2t157 -2q44 0 166.5 2t138.5 2v-23l-80 -10q-51 -7 -77.5 -17.5t-45.5 -41t-24.5 -79.5t-5.5 -138q114 4 208 4q112 0 203 -20t160.5 -61.5t108 -110.5 t38.5 -161q0 -326 -526 -383l-4 25q90 15 149 36t105.5 59.5t68 100t21.5 150.5q0 174 -97 253t-266 79q-95 0 -169 -23v-749q0 -108 13 -159.5t43.5 -73t96.5 -29.5l80 -11v-22q-16 0 -138.5 2t-166.5 2q-43 0 -157 -2t-132 -2z" />
<glyph unicode="&#xdf;" horiz-adv-x="1191" d="M37 881v16l162 51v2q0 145 62 273t168.5 205t229.5 77q121 0 193 -61.5t72 -163.5q0 -70 -32.5 -124.5t-143.5 -170.5q-79 -82 -105.5 -121.5t-26.5 -79.5q0 -51 48.5 -86.5t226.5 -115.5q119 -53 181.5 -126t62.5 -184q0 -87 -48.5 -156t-120 -104t-149.5 -35 q-82 0 -148 18t-145 54v199h60q22 -120 83.5 -179t166.5 -59q82 0 133 58t51 147q0 81 -51.5 136t-163.5 104q-161 72 -222 125t-61 125q0 46 32 98t136 182q44 54 64 108t20 130q0 96 -52 151.5t-145 55.5q-56 0 -95 -15t-64 -43.5t-39 -76.5t-19.5 -105t-5.5 -139v-1051 q-51 0 -168 -1t-137 -1v22l43 7q50 7 71 24t29.5 57t8.5 132v641h-162z" />
<glyph unicode="&#xe0;" horiz-adv-x="944" d="M70 182q0 91 70 151.5t241 121.5q131 46 244 73v138q0 141 -44.5 207.5t-138.5 66.5q-58 0 -123 -35q-9 -120 -34 -172.5t-78 -52.5q-90 0 -90 84q0 39 57.5 91.5t151 92t182.5 39.5q148 0 209 -75.5t61 -243.5v-492q0 -79 18.5 -109t65.5 -30q36 0 56 4l8 -18 q-82 -35 -156 -35q-66 0 -103.5 39t-41.5 114q-172 -161 -332 -161q-98 0 -160.5 52.5t-62.5 149.5zM225 225q0 -82 41 -127t115 -45q55 0 119 33t125 94v312q-128 -26 -238 -72q-162 -68 -162 -195zM256 1348q0 29 18.5 48t51.5 19q31 0 53 -21t55 -75l139 -234l-14 -12 l-223 164q-42 31 -61 56t-19 55z" />
<glyph unicode="&#xe1;" horiz-adv-x="944" d="M70 182q0 91 70 151.5t241 121.5q131 46 244 73v138q0 141 -44.5 207.5t-138.5 66.5q-58 0 -123 -35q-9 -120 -34 -172.5t-78 -52.5q-90 0 -90 84q0 39 57.5 91.5t151 92t182.5 39.5q148 0 209 -75.5t61 -243.5v-492q0 -79 18.5 -109t65.5 -30q36 0 56 4l8 -18 q-82 -35 -156 -35q-66 0 -103.5 39t-41.5 114q-172 -161 -332 -161q-98 0 -160.5 52.5t-62.5 149.5zM225 225q0 -82 41 -127t115 -45q55 0 119 33t125 94v312q-128 -26 -238 -72q-162 -68 -162 -195zM358 1085l140 234q33 54 55 75t53 21q33 0 51.5 -19t18.5 -48 q0 -30 -19 -55t-61 -56l-223 -164z" />
<glyph unicode="&#xe2;" horiz-adv-x="944" d="M70 182q0 91 70 151.5t241 121.5q131 46 244 73v138q0 141 -44.5 207.5t-138.5 66.5q-58 0 -123 -35q-9 -120 -34 -172.5t-78 -52.5q-90 0 -90 84q0 39 57.5 91.5t151 92t182.5 39.5q148 0 209 -75.5t61 -243.5v-492q0 -79 18.5 -109t65.5 -30q36 0 56 4l8 -18 q-82 -35 -156 -35q-66 0 -103.5 39t-41.5 114q-172 -161 -332 -161q-98 0 -160.5 52.5t-62.5 149.5zM180 1087l260 324h49l261 -324l-17 -14l-268 187l-268 -187zM225 225q0 -82 41 -127t115 -45q55 0 119 33t125 94v312q-128 -26 -238 -72q-162 -68 -162 -195z" />
<glyph unicode="&#xe3;" horiz-adv-x="944" d="M70 182q0 91 70 151.5t241 121.5q131 46 244 73v138q0 141 -44.5 207.5t-138.5 66.5q-58 0 -123 -35q-9 -120 -34 -172.5t-78 -52.5q-90 0 -90 84q0 39 57.5 91.5t151 92t182.5 39.5q148 0 209 -75.5t61 -243.5v-492q0 -79 18.5 -109t65.5 -30q36 0 56 4l8 -18 q-82 -35 -156 -35q-66 0 -103.5 39t-41.5 114q-172 -161 -332 -161q-98 0 -160.5 52.5t-62.5 149.5zM164 1114q46 118 84.5 157.5t101.5 39.5q44 0 147.5 -18.5t141.5 -18.5q43 0 70.5 16t58.5 66l18 -8q-46 -118 -84.5 -157.5t-101.5 -39.5q-44 0 -147.5 18.5t-141.5 18.5 q-43 0 -70.5 -16t-58.5 -66zM225 225q0 -82 41 -127t115 -45q55 0 119 33t125 94v312q-128 -26 -238 -72q-162 -68 -162 -195z" />
<glyph unicode="&#xe4;" horiz-adv-x="944" d="M70 182q0 91 70 151.5t241 121.5q131 46 244 73v138q0 141 -44.5 207.5t-138.5 66.5q-58 0 -123 -35q-9 -120 -34 -172.5t-78 -52.5q-90 0 -90 84q0 39 57.5 91.5t151 92t182.5 39.5q148 0 209 -75.5t61 -243.5v-492q0 -79 18.5 -109t65.5 -30q36 0 56 4l8 -18 q-82 -35 -156 -35q-66 0 -103.5 39t-41.5 114q-172 -161 -332 -161q-98 0 -160.5 52.5t-62.5 149.5zM178 1231q0 43 31.5 73.5t75.5 30.5t75 -30.5t31 -73.5q0 -44 -31 -75.5t-75 -31.5t-75.5 31.5t-31.5 75.5zM225 225q0 -82 41 -127t115 -45q55 0 119 33t125 94v312 q-128 -26 -238 -72q-162 -68 -162 -195zM526 1231q0 43 31.5 73.5t75.5 30.5t75 -30.5t31 -73.5q0 -44 -31 -75.5t-75 -31.5t-75.5 31.5t-31.5 75.5z" />
<glyph unicode="&#xe5;" horiz-adv-x="944" d="M70 182q0 91 70 151.5t241 121.5q131 46 244 73v138q0 141 -44.5 207.5t-138.5 66.5q-58 0 -123 -35q-9 -120 -34 -172.5t-78 -52.5q-90 0 -90 84q0 39 57.5 91.5t151 92t182.5 39.5q148 0 209 -75.5t61 -243.5v-492q0 -79 18.5 -109t65.5 -30q36 0 56 4l8 -18 q-82 -35 -156 -35q-66 0 -103.5 39t-41.5 114q-172 -161 -332 -161q-98 0 -160.5 52.5t-62.5 149.5zM225 225q0 -82 41 -127t115 -45q55 0 119 33t125 94v312q-128 -26 -238 -72q-162 -68 -162 -195zM328 1245q0 62 43 106t104 44t104.5 -44t43.5 -106q0 -60 -44 -103.5 t-104 -43.5t-103.5 43.5t-43.5 103.5zM371 1245q0 -46 30.5 -79t73.5 -33t74 33t31 79t-30.5 80.5t-74.5 34.5t-74 -34.5t-30 -80.5z" />
<glyph unicode="&#xe6;" horiz-adv-x="1499" d="M70 182q0 91 70 151.5t241 121.5q134 47 223 67v164q0 134 -38 194t-124 60q-58 0 -123 -35q-9 -120 -34 -172.5t-78 -52.5q-90 0 -90 84q0 39 57.5 91.5t151 92t182.5 39.5q105 0 158.5 -40.5t70.5 -133.5q62 83 144 128.5t172 45.5q357 0 372 -393h-669q-2 -12 -2 -41 q0 -215 98 -348t244 -133q95 0 162.5 40t138.5 124l24 -11q-66 -113 -165.5 -182.5t-213.5 -69.5q-124 0 -218 55t-150 158q-99 -102 -187.5 -154t-193.5 -52q-98 0 -160.5 52.5t-62.5 149.5zM225 225q0 -82 41 -127t115 -45q123 0 278 158q-55 119 -55 276 q-120 -25 -217 -67q-162 -68 -162 -195zM758 629h487q-6 145 -64 232t-157 87q-114 0 -183 -85.5t-83 -233.5z" />
<glyph unicode="&#xe7;" horiz-adv-x="991" d="M78 432q0 116 39.5 220t106 177t155 115.5t184.5 42.5q150 0 241 -53t91 -119q0 -50 -31.5 -80t-75.5 -30q-52 0 -78 51.5t-34 165.5q-52 24 -131 24q-142 0 -227 -111t-85 -303q0 -203 103.5 -329.5t265.5 -126.5q82 0 146.5 23t144.5 81l16 -16q-84 -90 -174.5 -140.5 t-208.5 -50.5l-28 -51q97 -8 143.5 -33t46.5 -75q0 -70 -75 -115t-177 -45q-104 0 -104 51q0 22 13 34.5t36 12.5q26 0 51.5 -14.5t67.5 -48.5q98 16 98 84q0 27 -37.5 43t-134.5 22l-6 8l69 129q-186 12 -298.5 140t-112.5 317z" />
<glyph unicode="&#xe8;" horiz-adv-x="993" d="M78 459q0 117 41 218.5t106.5 168t147 104t164.5 37.5q185 0 280.5 -97t102.5 -296h-693v-27q0 -224 103 -359.5t260 -135.5q95 0 162.5 40t138.5 124l24 -11q-67 -114 -167.5 -183t-221.5 -69q-201 0 -324.5 132t-123.5 354zM229 629h510q-4 151 -66.5 235t-164.5 84 q-117 0 -191 -85.5t-88 -233.5zM287 1348q0 29 18 48t51 19q31 0 54 -21t55 -75l139 -234l-14 -12l-223 164q-42 31 -61 56t-19 55z" />
<glyph unicode="&#xe9;" horiz-adv-x="993" d="M78 459q0 117 41 218.5t106.5 168t147 104t164.5 37.5q185 0 280.5 -97t102.5 -296h-693v-27q0 -224 103 -359.5t260 -135.5q95 0 162.5 40t138.5 124l24 -11q-67 -114 -167.5 -183t-221.5 -69q-201 0 -324.5 132t-123.5 354zM229 629h510q-4 151 -66.5 235t-164.5 84 q-117 0 -191 -85.5t-88 -233.5zM395 1085l140 234q33 54 55 75t53 21q33 0 51.5 -19t18.5 -48q0 -30 -19 -55t-61 -56l-223 -164z" />
<glyph unicode="&#xea;" horiz-adv-x="993" d="M78 459q0 117 41 218.5t106.5 168t147 104t164.5 37.5q185 0 280.5 -97t102.5 -296h-693v-27q0 -224 103 -359.5t260 -135.5q95 0 162.5 40t138.5 124l24 -11q-67 -114 -167.5 -183t-221.5 -69q-201 0 -324.5 132t-123.5 354zM227 1087l260 324h50l260 -324l-17 -14 l-268 187l-268 -187zM229 629h510q-4 151 -66.5 235t-164.5 84q-117 0 -191 -85.5t-88 -233.5z" />
<glyph unicode="&#xeb;" horiz-adv-x="993" d="M78 459q0 117 41 218.5t106.5 168t147 104t164.5 37.5q185 0 280.5 -97t102.5 -296h-693v-27q0 -224 103 -359.5t260 -135.5q95 0 162.5 40t138.5 124l24 -11q-67 -114 -167.5 -183t-221.5 -69q-201 0 -324.5 132t-123.5 354zM227 1231q0 43 31.5 73.5t75.5 30.5 t75 -30.5t31 -73.5q0 -44 -31 -75.5t-75 -31.5t-75.5 31.5t-31.5 75.5zM229 629h510q-4 151 -66.5 235t-164.5 84q-117 0 -191 -85.5t-88 -233.5zM575 1231q0 43 31.5 73.5t75.5 30.5t75 -30.5t31 -73.5q0 -44 -31 -75.5t-75 -31.5t-75.5 31.5t-31.5 75.5z" />
<glyph unicode="&#xec;" horiz-adv-x="559" d="M4 1348q0 29 18.5 48t51.5 19q31 0 53 -21t55 -75l140 -234l-15 -12l-223 164q-42 31 -61 56t-19 55zM59 897v16l289 68l19 -12v-729q0 -94 8 -133.5t29.5 -56t74.5 -23.5l41 -7v-22q-21 0 -100 1t-129 1q-51 0 -130.5 -1t-99.5 -1v22l43 7q50 7 71 24t29.5 57t8.5 132 v483q0 72 -18 100.5t-76 50.5z" />
<glyph unicode="&#xed;" horiz-adv-x="559" d="M59 897v16l289 68l19 -12v-729q0 -94 8 -133.5t29.5 -56t74.5 -23.5l41 -7v-22q-21 0 -100 1t-129 1q-51 0 -130.5 -1t-99.5 -1v22l43 7q50 7 71 24t29.5 57t8.5 132v483q0 72 -18 100.5t-76 50.5zM211 1085l139 234q32 54 55 75t54 21q33 0 51 -19t18 -48 q0 -30 -19 -55.5t-60 -55.5l-224 -164z" />
<glyph unicode="&#xee;" horiz-adv-x="559" d="M-10 1087l260 324h49l260 -324l-16 -14l-269 187l-268 -187zM59 897v16l289 68l19 -12v-729q0 -94 8 -133.5t29.5 -56t74.5 -23.5l41 -7v-22q-21 0 -100 1t-129 1q-51 0 -130.5 -1t-99.5 -1v22l43 7q50 7 71 24t29.5 57t8.5 132v483q0 72 -18 100.5t-76 50.5z" />
<glyph unicode="&#xef;" horiz-adv-x="559" d="M-6 1231q0 43 31 73.5t75 30.5t75.5 -30.5t31.5 -73.5q0 -44 -31.5 -75.5t-75.5 -31.5t-75 31.5t-31 75.5zM59 897v16l289 68l19 -12v-729q0 -94 8 -133.5t29.5 -56t74.5 -23.5l41 -7v-22q-21 0 -100 1t-129 1q-51 0 -130.5 -1t-99.5 -1v22l43 7q50 7 71 24t29.5 57 t8.5 132v483q0 72 -18 100.5t-76 50.5zM342 1231q0 43 31.5 73.5t75.5 30.5t75 -30.5t31 -73.5q0 -44 -31 -75.5t-75 -31.5t-75.5 31.5t-31.5 75.5z" />
<glyph unicode="&#xf0;" horiz-adv-x="1089" d="M78 489q0 105 37 199t98 159t140.5 102.5t162.5 37.5q172 0 295 -147q-38 260 -229 454l-164 -155l-29 30l164 154q-88 85 -203 150l17 32q130 -67 229 -141l152 143l28 -30l-147 -140q379 -303 379 -807q0 -258 -128 -407.5t-335 -149.5q-96 0 -179.5 33t-148 96 t-102 162.5t-37.5 224.5zM252 528q0 -232 90.5 -376t235.5 -144q260 0 260 424q0 232 -90.5 376t-235.5 144q-260 0 -260 -424z" />
<glyph unicode="&#xf1;" horiz-adv-x="1126" d="M39 897v16l289 68l18 -12v-146q96 83 168 121.5t162 38.5q140 0 213.5 -79.5t73.5 -235.5v-428q0 -93 8 -133t29 -56.5t71 -23.5l43 -7v-22q-19 0 -96 1t-127 1t-132.5 -1t-103.5 -1v22l41 7q53 7 75 23.5t30 56t8 133.5v405q0 122 -52 188t-145 66q-77 0 -137 -28 t-129 -91v-540q0 -94 8 -133.5t30 -56t75 -23.5l41 -7v-22q-21 0 -100.5 1t-129.5 1q-51 0 -130 -1t-99 -1v22l43 7q50 7 71 24t29.5 57t8.5 132v483q0 72 -18.5 100.5t-76.5 50.5zM270 1114q46 118 85 157.5t102 39.5q44 0 147 -18.5t141 -18.5q43 0 70.5 16t58.5 66l19 -8 q-46 -118 -84.5 -157.5t-101.5 -39.5q-44 0 -147.5 18.5t-141.5 18.5q-43 0 -70.5 -16t-58.5 -66z" />
<glyph unicode="&#xf2;" horiz-adv-x="1089" d="M78 489q0 214 135.5 356t331.5 142q96 0 179.5 -33t148 -96t102 -162.5t37.5 -224.5q0 -214 -135.5 -356t-331.5 -142q-96 0 -179.5 33t-148 96t-102 162.5t-37.5 224.5zM252 528q0 -232 90.5 -376t235.5 -144q260 0 260 424q0 232 -90.5 376t-235.5 144 q-260 0 -260 -424zM283 1348q0 29 18 48t51 19q31 0 54 -21t55 -75l139 -234l-14 -12l-224 164q-41 30 -60 55.5t-19 55.5z" />
<glyph unicode="&#xf3;" horiz-adv-x="1089" d="M78 489q0 214 135.5 356t331.5 142q96 0 179.5 -33t148 -96t102 -162.5t37.5 -224.5q0 -214 -135.5 -356t-331.5 -142q-96 0 -179.5 33t-148 96t-102 162.5t-37.5 224.5zM252 528q0 -232 90.5 -376t235.5 -144q260 0 260 424q0 232 -90.5 376t-235.5 144 q-260 0 -260 -424zM387 1085l139 234q32 54 55 75t54 21q33 0 51.5 -19t18.5 -48q0 -30 -19 -55t-61 -56l-224 -164z" />
<glyph unicode="&#xf4;" horiz-adv-x="1089" d="M78 489q0 214 135.5 356t331.5 142q96 0 179.5 -33t148 -96t102 -162.5t37.5 -224.5q0 -214 -135.5 -356t-331.5 -142q-96 0 -179.5 33t-148 96t-102 162.5t-37.5 224.5zM252 528q0 -232 90.5 -376t235.5 -144q260 0 260 424q0 232 -90.5 376t-235.5 144 q-260 0 -260 -424zM252 1087l260 324h49l260 -324l-16 -14l-268 187l-269 -187z" />
<glyph unicode="&#xf5;" horiz-adv-x="1089" d="M78 489q0 214 135.5 356t331.5 142q96 0 179.5 -33t148 -96t102 -162.5t37.5 -224.5q0 -214 -135.5 -356t-331.5 -142q-96 0 -179.5 33t-148 96t-102 162.5t-37.5 224.5zM229 1114q46 118 85 157.5t102 39.5q44 0 147.5 -18.5t141.5 -18.5q43 0 70.5 16t58.5 66l18 -8 q-46 -118 -84.5 -157.5t-101.5 -39.5q-44 0 -147.5 18.5t-141.5 18.5q-43 0 -70.5 -16t-58.5 -66zM252 528q0 -232 90.5 -376t235.5 -144q260 0 260 424q0 232 -90.5 376t-235.5 144q-260 0 -260 -424z" />
<glyph unicode="&#xf6;" horiz-adv-x="1089" d="M78 489q0 214 135.5 356t331.5 142q96 0 179.5 -33t148 -96t102 -162.5t37.5 -224.5q0 -214 -135.5 -356t-331.5 -142q-96 0 -179.5 33t-148 96t-102 162.5t-37.5 224.5zM252 528q0 -232 90.5 -376t235.5 -144q260 0 260 424q0 232 -90.5 376t-235.5 144 q-260 0 -260 -424zM256 1231q0 43 31 73.5t75 30.5t75.5 -30.5t31.5 -73.5q0 -44 -31.5 -75.5t-75.5 -31.5t-75 31.5t-31 75.5zM604 1231q0 43 31.5 73.5t75.5 30.5t75 -30.5t31 -73.5q0 -44 -31 -75.5t-75 -31.5t-75.5 31.5t-31.5 75.5z" />
<glyph unicode="&#xf7;" horiz-adv-x="921" d="M61 688v41h799v-41h-799zM377 403q0 34 25 59t59 25t59 -25t25 -59t-25 -59t-59 -25t-59 25t-25 59zM377 1014q0 34 25 59t59 25t59 -25t25 -59t-25 -59t-59 -25t-59 25t-25 59z" />
<glyph unicode="&#xf8;" horiz-adv-x="1089" d="M78 489q0 214 135.5 356t331.5 142q182 0 303 -106l104 127l29 -23l-107 -131q138 -138 138 -383q0 -214 -135.5 -356t-331.5 -142q-181 0 -303 107l-105 -127l-28 22l106 129q-137 144 -137 385zM252 528q0 -177 55 -309l457 559q-43 83 -108 128.5t-144 45.5 q-260 0 -260 -424zM326 182q43 -83 108 -128.5t144 -45.5q260 0 260 424q0 175 -56 309z" />
<glyph unicode="&#xf9;" horiz-adv-x="1110" d="M14 897v16l289 68l19 -12v-654q0 -122 51.5 -188t144.5 -66q77 0 137 28t129 91v543q0 72 -18 100.5t-76 50.5l-59 23v16l289 68l18 -12v-729q0 -92 8.5 -132.5t29.5 -57t71 -23.5l43 -7v-22q-220 0 -306 -6v145q-96 -83 -167.5 -121.5t-161.5 -38.5q-140 0 -213.5 80 t-73.5 236v430q0 72 -18 100.5t-76 50.5zM258 1348q0 29 18.5 48t51.5 19q31 0 53 -21t55 -75l139 -234l-14 -12l-223 164q-42 31 -61 56t-19 55z" />
<glyph unicode="&#xfa;" horiz-adv-x="1110" d="M14 897v16l289 68l19 -12v-654q0 -122 51.5 -188t144.5 -66q77 0 137 28t129 91v543q0 72 -18 100.5t-76 50.5l-59 23v16l289 68l18 -12v-729q0 -92 8.5 -132.5t29.5 -57t71 -23.5l43 -7v-22q-220 0 -306 -6v145q-96 -83 -167.5 -121.5t-161.5 -38.5q-140 0 -213.5 80 t-73.5 236v430q0 72 -18 100.5t-76 50.5zM465 1085l139 234q32 54 55 75t54 21q33 0 51 -19t18 -48q0 -30 -19 -55t-61 -56l-223 -164z" />
<glyph unicode="&#xfb;" horiz-adv-x="1110" d="M14 897v16l289 68l19 -12v-654q0 -122 51.5 -188t144.5 -66q77 0 137 28t129 91v543q0 72 -18 100.5t-76 50.5l-59 23v16l289 68l18 -12v-729q0 -92 8.5 -132.5t29.5 -57t71 -23.5l43 -7v-22q-220 0 -306 -6v145q-96 -83 -167.5 -121.5t-161.5 -38.5q-140 0 -213.5 80 t-73.5 236v430q0 72 -18 100.5t-76 50.5zM250 1087l260 324h49l260 -324l-16 -14l-268 187l-269 -187z" />
<glyph unicode="&#xfc;" horiz-adv-x="1110" d="M14 897v16l289 68l19 -12v-654q0 -122 51.5 -188t144.5 -66q77 0 137 28t129 91v543q0 72 -18 100.5t-76 50.5l-59 23v16l289 68l18 -12v-729q0 -92 8.5 -132.5t29.5 -57t71 -23.5l43 -7v-22q-220 0 -306 -6v145q-96 -83 -167.5 -121.5t-161.5 -38.5q-140 0 -213.5 80 t-73.5 236v430q0 72 -18 100.5t-76 50.5zM254 1231q0 43 31 73.5t75 30.5t75.5 -30.5t31.5 -73.5q0 -44 -31.5 -75.5t-75.5 -31.5t-75 31.5t-31 75.5zM602 1231q0 43 31.5 73.5t75.5 30.5t75 -30.5t31 -73.5q0 -44 -31 -75.5t-75 -31.5t-75.5 31.5t-31.5 75.5z" />
<glyph unicode="&#xfd;" horiz-adv-x="1069" d="M-4 940v23q19 0 96 -1t127 -1q51 0 134 1t102 1v-23l-54 -6q-45 -6 -61 -20t-16 -42q0 -38 28 -116l236 -590l196 500q54 137 54 196q0 63 -74 72l-55 6v23q19 0 82.5 -1t113.5 -1t98.5 1t69.5 1v-23l-39 -6q-56 -9 -89 -49t-83 -158l-395 -942q-52 -123 -106 -175 t-119 -52q-42 0 -64 23.5t-22 62.5q0 53 64 82t173 16q70 133 123 260l-315 739q-51 120 -77 152t-85 41zM504 1085l139 234q32 54 55 75t54 21q33 0 51 -19t18 -48q0 -30 -19 -55t-61 -56l-223 -164z" />
<glyph unicode="&#xfe;" horiz-adv-x="1095" d="M-23 -416l50 6q59 7 83 24t33 56.5t9 132.5v1446q0 72 -18.5 101t-76.5 51l-59 22v17l276 65l31 -24v-639q79 72 147 106.5t166 34.5q177 0 287.5 -128t110.5 -316q0 -125 -38.5 -229t-106 -173.5t-158 -108t-193.5 -38.5q-123 0 -215 20v-207q0 -93 10.5 -133 t38.5 -56.5t97 -23.5l53 -6v-22q-30 0 -128.5 1t-146.5 1q-50 0 -139 -1t-113 -1v22zM305 319q0 -143 67.5 -218.5t182.5 -75.5q143 0 230 105t87 296q0 201 -94.5 332t-247.5 131q-68 0 -119 -20t-106 -66v-484z" />
<glyph unicode="&#xff;" horiz-adv-x="1069" d="M-4 940v23q19 0 96 -1t127 -1q51 0 134 1t102 1v-23l-54 -6q-45 -6 -61 -20t-16 -42q0 -38 28 -116l236 -590l196 500q54 137 54 196q0 63 -74 72l-55 6v23q19 0 82.5 -1t113.5 -1t98.5 1t69.5 1v-23l-39 -6q-56 -9 -89 -49t-83 -158l-395 -942q-52 -123 -106 -175 t-119 -52q-42 0 -64 23.5t-22 62.5q0 53 64 82t173 16q70 133 123 260l-315 739q-51 120 -77 152t-85 41zM279 1231q0 43 31 73.5t75 30.5t75.5 -30.5t31.5 -73.5q0 -44 -31.5 -75.5t-75.5 -31.5t-75 31.5t-31 75.5zM627 1231q0 43 31 73.5t75 30.5t75.5 -30.5t31.5 -73.5 q0 -44 -31.5 -75.5t-75.5 -31.5t-75 31.5t-31 75.5z" />
<glyph unicode="&#x152;" horiz-adv-x="1970" d="M100 696q0 139 39 255t108 199t163.5 141t206.5 86t237 28q88 0 179 -3t122 -3q44 0 269 1t241 1h156l59 -258h-25l-36 61q-61 102 -123.5 132t-208.5 30h-57q-146 0 -230 -25v-593l193 4q153 3 204.5 30t61.5 115l10 84h29q0 -16 -2 -112t-2 -140q0 -43 2 -133.5 t2 -108.5h-29l-8 58q-13 96 -63 125t-205 32l-193 5v-412q0 -86 8 -133.5t33.5 -78t66.5 -39.5t115 -9h123q102 0 155 11.5t92 44t83 104.5l39 63h24l-59 -258h-215q-67 0 -273 1t-239 1q-41 0 -127 -2t-135 -2q-164 0 -306 45t-251 130.5t-171.5 220t-62.5 302.5zM291 719 q0 -169 47 -301.5t130 -215.5t192.5 -126t238.5 -43q87 0 137 18v1057q0 87 -7 133.5t-31.5 78t-65.5 41t-115 9.5q-116 0 -210.5 -38.5t-166 -116t-110.5 -203.5t-39 -293z" />
<glyph unicode="&#x153;" horiz-adv-x="1720" d="M78 489q0 214 133.5 356t323.5 142q125 0 223.5 -60t156.5 -175q61 109 158 172t201 63q182 0 273 -99t100 -294h-672v-27q0 -223 101.5 -359t250.5 -136q86 0 154 41t137 123l24 -11q-66 -113 -165 -182.5t-213 -69.5q-245 0 -363 215q-61 -102 -155.5 -158.5 t-210.5 -56.5q-93 0 -174.5 33t-145 96t-100.5 163t-37 224zM252 528q0 -228 88 -374t227 -146q250 0 250 424q0 228 -88 374t-227 146q-250 0 -250 -424zM977 629h489q-5 144 -62.5 231.5t-158.5 87.5q-109 0 -182 -86t-86 -233z" />
<glyph unicode="&#x178;" horiz-adv-x="1437" d="M-31 1380v23q16 0 116 -2t144 -2t172 2t144 2v-23l-82 -10q-90 -11 -90 -65q0 -43 51 -119l362 -535l293 467q64 99 64 158q0 40 -28 65t-79 31l-59 8v23q16 0 116 -2t144 -2t129.5 2t101.5 2v-23l-45 -6q-65 -9 -117.5 -50.5t-107.5 -125.5l-385 -590v-315q0 -82 6 -128 t24.5 -75.5t46 -41t77.5 -17.5l80 -11v-22q-15 0 -143.5 2t-172.5 2t-172 -2t-143 -2v22l80 11q66 8 96.5 29.5t43.5 73t13 159.5v291l-428 616q-61 88 -104.5 125t-102.5 47zM461 1599q0 43 31 74t75 31t75.5 -31t31.5 -74q0 -44 -31.5 -75t-75.5 -31t-75 31t-31 75z M809 1599q0 43 31 74t75 31t75.5 -31t31.5 -74q0 -44 -31.5 -75t-75.5 -31t-75 31t-31 75z" />
<glyph unicode="&#x2c6;" horiz-adv-x="1024" d="M227 1087l260 324h50l260 -324l-17 -14l-268 187l-268 -187z" />
<glyph unicode="&#x2dc;" horiz-adv-x="1024" d="M201 1114q46 118 84.5 157.5t101.5 39.5q44 0 147.5 -18.5t141.5 -18.5q43 0 70.5 16t58.5 66l18 -8q-46 -118 -84.5 -157.5t-101.5 -39.5q-44 0 -147.5 18.5t-141.5 18.5q-43 0 -70.5 -16t-58.5 -66z" />
<glyph unicode="&#x2000;" horiz-adv-x="917" />
<glyph unicode="&#x2001;" horiz-adv-x="1835" />
<glyph unicode="&#x2002;" horiz-adv-x="917" />
<glyph unicode="&#x2003;" horiz-adv-x="1835" />
<glyph unicode="&#x2004;" horiz-adv-x="611" />
<glyph unicode="&#x2005;" horiz-adv-x="458" />
<glyph unicode="&#x2006;" horiz-adv-x="305" />
<glyph unicode="&#x2007;" horiz-adv-x="305" />
<glyph unicode="&#x2008;" horiz-adv-x="229" />
<glyph unicode="&#x2009;" horiz-adv-x="367" />
<glyph unicode="&#x200a;" horiz-adv-x="101" />
<glyph unicode="&#x2010;" horiz-adv-x="675" d="M76 532v70h524v-70h-524z" />
<glyph unicode="&#x2011;" horiz-adv-x="675" d="M76 532v70h524v-70h-524z" />
<glyph unicode="&#x2012;" horiz-adv-x="675" d="M76 532v70h524v-70h-524z" />
<glyph unicode="&#x2013;" horiz-adv-x="1024" d="M76 537v61h872v-61h-872z" />
<glyph unicode="&#x2014;" horiz-adv-x="2048" d="M76 537v61h1896v-61h-1896z" />
<glyph unicode="&#x2018;" horiz-adv-x="430" d="M86 1112q0 88 59 168.5t162 140.5l10 -18q-75 -53 -114 -116t-39 -124q86 -39 117.5 -71t31.5 -74q0 -33 -22.5 -55.5t-57.5 -22.5q-60 0 -103.5 48t-43.5 124z" />
<glyph unicode="&#x2019;" horiz-adv-x="430" d="M102 948q75 53 114.5 116t39.5 124q-86 39 -118 71t-32 74q0 33 22.5 55.5t57.5 22.5q61 0 104.5 -48t43.5 -124q0 -88 -59 -168.5t-162 -140.5z" />
<glyph unicode="&#x201a;" horiz-adv-x="479" d="M90 -250q75 53 114.5 116t39.5 124q-86 39 -118 71t-32 74q0 33 22.5 55.5t57.5 22.5q61 0 104.5 -48t43.5 -124q0 -88 -59.5 -168.5t-162.5 -140.5z" />
<glyph unicode="&#x201c;" horiz-adv-x="768" d="M86 1112q0 88 59 168.5t162 140.5l10 -18q-75 -53 -114 -116t-39 -124q86 -39 117.5 -71t31.5 -74q0 -33 -22.5 -55.5t-57.5 -22.5q-60 0 -103.5 48t-43.5 124zM424 1112q0 88 59 168.5t162 140.5l10 -18q-75 -53 -114 -116t-39 -124q86 -39 117.5 -71t31.5 -74 q0 -33 -22.5 -55.5t-57.5 -22.5q-60 0 -103.5 48t-43.5 124z" />
<glyph unicode="&#x201d;" horiz-adv-x="768" d="M102 948q75 53 114.5 116t39.5 124q-86 39 -118 71t-32 74q0 33 22.5 55.5t57.5 22.5q61 0 104.5 -48t43.5 -124q0 -88 -59 -168.5t-162 -140.5zM440 948q75 53 114.5 116t39.5 124q-86 39 -118 71t-32 74q0 33 22.5 55.5t57.5 22.5q61 0 104.5 -48t43.5 -124 q0 -88 -59 -168.5t-162 -140.5z" />
<glyph unicode="&#x201e;" horiz-adv-x="768" d="M90 -250q75 53 114.5 116t39.5 124q-86 39 -118 71t-32 74q0 33 22.5 55.5t57.5 22.5q61 0 104.5 -48t43.5 -124q0 -88 -59.5 -168.5t-162.5 -140.5zM428 -250q75 53 114.5 116t39.5 124q-86 39 -118 71t-32 74q0 33 22.5 55.5t57.5 22.5q60 0 103.5 -48t43.5 -124 q0 -88 -59 -168.5t-162 -140.5z" />
<glyph unicode="&#x2022;" horiz-adv-x="819" d="M139 694q0 112 79.5 191.5t191.5 79.5t191 -79t79 -192q0 -112 -79 -191t-191 -79q-113 0 -192 79t-79 191z" />
<glyph unicode="&#x2026;" horiz-adv-x="1323" d="M104 96q0 45 31 76t76 31t75.5 -31t30.5 -76t-30.5 -75.5t-75.5 -30.5t-76 31t-31 75zM555 96q0 45 31 76t76 31t75.5 -31t30.5 -76t-30.5 -75.5t-75.5 -30.5q-46 0 -76.5 31t-30.5 75zM1006 96q0 45 30.5 76t75.5 31t76 -31t31 -76q0 -44 -30.5 -75t-76.5 -31 q-45 0 -75.5 30.5t-30.5 75.5z" />
<glyph unicode="&#x202f;" horiz-adv-x="367" />
<glyph unicode="&#x2039;" horiz-adv-x="626" d="M57 481l469 494l19 -12l-297 -482l297 -483l-19 -10z" />
<glyph unicode="&#x203a;" horiz-adv-x="626" d="M82 -2l297 483l-297 482l18 12l469 -494l-469 -493z" />
<glyph unicode="&#x205f;" horiz-adv-x="458" />
<glyph unicode="&#x2122;" horiz-adv-x="1351" d="M51 1278l23 139h14q15 -13 49.5 -16.5t186.5 -3.5t193.5 4t62.5 16h10l-23 -139h-18l-4 35q-4 35 -22.5 45t-73.5 12l-93 2v-391q0 -53 10 -69t42 -21l36 -4v-21h-125h-124v21l36 4q33 5 42.5 21t9.5 69v391l-84 -2q-52 -2 -73.5 -12t-39.5 -45l-18 -35h-17zM633 866v19 l18 2q31 3 44 21.5t14 70.5l16 305q1 43 -9.5 62.5t-37.5 27.5l-35 10v17h80h61l197 -430l197 430h57h72v-21l-33 -4q-28 -3 -39 -23.5t-8 -70.5l14 -311q2 -44 13 -61.5t40 -20.5l23 -2v-21h-111h-121v21l37 4q28 3 38 20.5t9 59.5l-14 307l-192 -414h-13l-194 420 l-11 -307q-1 -49 13 -67t51 -21l20 -2v-21h-100h-96z" />
<glyph unicode="&#x25fc;" horiz-adv-x="962" d="M0 0v963h963v-963h-963z" />
<glyph unicode="&#xfb01;" horiz-adv-x="1116" d="M37 881v16l162 51v4q0 140 63 267t174 206.5t240 79.5q127 0 187.5 -34t60.5 -80q0 -40 -28.5 -72.5t-64.5 -32.5q-43 0 -86 42.5t-77 125.5q-8 2 -25 2q-141 0 -216 -102.5t-75 -302.5v-101h426l129 31l31 -25v-716q0 -94 8 -133.5t30 -56t75 -23.5l41 -7v-22 q-21 0 -100.5 1t-129.5 1q-51 0 -130 -1t-99 -1v22l43 7q50 7 71 24t29 57t8 132v503q0 73 -29 105.5t-102 32.5h-301v-641q0 -94 8 -133.5t30 -56t75 -23.5l41 -7v-22q-21 0 -100.5 1t-129.5 1q-51 0 -130 -1t-99 -1v22l43 7q50 7 71 24t29.5 57t8.5 132v641h-162z" />
<glyph unicode="&#xfb02;" horiz-adv-x="1144" d="M37 881v16l162 51v27q0 133 58.5 254.5t164.5 198.5t233 77q115 0 215 -49l66 49l31 -24v-1241q0 -94 8 -133.5t29.5 -56t74.5 -23.5l41 -7v-22q-21 0 -100 1t-129 1q-51 0 -130 -1t-99 -1v22l43 7q50 7 71 24t29 57t8 132v641h-461v-641q0 -93 10.5 -133t38.5 -56.5 t97 -23.5l53 -7v-22q-30 0 -128.5 1t-146.5 1q-51 0 -130 -1t-99 -1v22l43 7q50 7 71 24t29.5 57t8.5 132v641h-162zM352 950h461v248q0 118 -53 185t-154 67q-254 0 -254 -358v-142z" />
</font>
</defs>
</svg>
